SplineFontDB: 3.2
FontName: DSETypewriter
FullName: DSE Typewriter
FamilyName: DSE Typewriter
Weight: Regular
Copyright: Copyright (c) 2020, Darren Embry\n\nSIL OFL 1.1\n
UComments: "2020-2-19: Created with FontForge (http://fontforge.org)"
Version: 001.000
StrokeWidth: 96
ItalicAngle: 0
UnderlinePosition: -192
UnderlineWidth: 96
Ascent: 1648
Descent: 400
InvalidEm: 0
LayerCount: 2
Layer: 0 0 "Back" 1
Layer: 1 0 "Fore" 0
XUID: [1021 633 -131660588 20145]
FSType: 0
OS2Version: 0
OS2_WeightWidthSlopeOnly: 0
OS2_UseTypoMetrics: 1
CreationTime: 1582156054
ModificationTime: 1582854988
PfmFamily: 17
TTFWeight: 400
TTFWidth: 5
LineGap: 384
VLineGap: 0
Panose: 2 7 5 9 0 2 5 2 4 3
OS2TypoAscent: 0
OS2TypoAOffset: 1
OS2TypoDescent: 0
OS2TypoDOffset: 1
OS2TypoLinegap: 384
OS2WinAscent: 0
OS2WinAOffset: 1
OS2WinDescent: 0
OS2WinDOffset: 1
HheadAscent: 0
HheadAOffset: 1
HheadDescent: 0
HheadDOffset: 1
OS2Vendor: 'PfEd'
MarkAttachClasses: 1
DEI: 91125
LangName: 1033
Encoding: UnicodeBmp
UnicodeInterp: none
NameList: AGL For New Fonts
DisplaySize: -48
AntiAlias: 1
FitToEm: 0
WinInfo: 0 32 8
BeginPrivate: 0
EndPrivate
Grid
-2048 1392.20019531 m 4
 4096 1392.20019531 l 1028
  Named: "accent bottom"
-1437.05950928 2672 m 0
 -1437.05950928 -1424 l 1024
4884 492 m 1049
-2048 624 m 0
 4096 624 l 1024
  Named: "half cap"
768 2672 m 0
 768 -1424 l 1024
  Named: "1/4 char"
256 2672 m 0
 256 -1424 l 1024
  Named: "3/4 char"
512 2672 m 0
 512 -1424 l 1024
  Named: "1/2 char"
-2048 1584 m 0
 4096 1584 l 1024
  Named: "accent"
-2048 1200 m 0
 4096 1200 l 1024
  Named: "cap"
-2048 816 m 0
 4096 816 l 1024
  Named: "ex"
-2048 432 m 0
 4096 432 l 1024
  Named: "half ex"
-2048 -336 m 0
 4096 -336 l 1024
  Named: "descender"
-2048 48 m 0
 4096 48 l 1024
  Named: "base"
0 -384 m 25
 0 1632 l 25
 1024 1632 l 25
 1024 -384 l 25
 0 -384 l 1049
16 -384 m 25
 16 1632 l 1049
32 -384 m 25
 32 1632 l 1049
48 -384 m 25
 48 1632 l 1049
64 -384 m 25
 64 1632 l 1049
80 -384 m 25
 80 1632 l 1049
96 -384 m 25

StartChar: H
Encoding: 72 72 1
Width: 1024
VWidth: 0
Flags: HW
AnchorPoint: "top" 512 1272 basechar 0
LayerCount: 2
Fore
SplineSet
47 48 m 0
 47 74.1444717079 68.8536339246 96 95 96 c 2
 208 96 l 1
 208 1152 l 1
 94 1152 l 2
 67.8536339246 1152 46 1173.85552829 46 1200 c 0
 46 1226.14447171 67.8536339246 1248 94 1248 c 2
 414 1248 l 2
 440.144471708 1248 462 1226.14636608 462 1200 c 0
 462 1173.85363392 440.144471708 1152 414 1152 c 2
 304 1152 l 1
 304 720 l 1
 412 720 l 1
 720 720 l 1
 720 1152 l 1
 606 1152 l 2
 579.853633925 1152 558 1173.85552829 558 1200 c 0
 558 1226.14447171 579.853633925 1248 606 1248 c 2
 926 1248 l 2
 952.144471708 1248 974 1226.14636608 974 1200 c 0
 974 1173.85363392 952.144471708 1152 926 1152 c 2
 816 1152 l 1
 816 96 l 1
 926 96 l 2
 952.144471708 96 974 74.1463660754 974 48 c 0
 974 21.8536339246 952.144471708 0 926 0 c 2
 606 0 l 2
 579.853633925 0 558 21.8555282921 558 48 c 0
 558 74.1444717079 579.853633925 96 606 96 c 2
 720 96 l 1
 720 624 l 1
 412 624 l 1
 304 624 l 1
 304 96 l 1
 414 96 l 2
 440.144471708 96 462 74.1463660754 462 48 c 0
 462 21.8536339246 440.144471708 0 414 0 c 2
 95 0 l 2
 68.8536339246 0 47 21.8555282921 47 48 c 0
EndSplineSet
Validated: 1
EndChar

StartChar: O
Encoding: 79 79 2
Width: 1024
VWidth: 0
Flags: HW
AnchorPoint: "top" 512 1272 basechar 0
LayerCount: 2
Fore
SplineSet
192 624 m 0
 192 309.043945312 322.613898845 80 512 80 c 0
 701.385438205 80 831 309.044921875 831 624 c 0
 831 938.956054688 701.386101155 1168 512 1168 c 0
 322.614561795 1168 192 938.955078125 192 624 c 0
97 624 m 0
 97 963.044921875 241.385438205 1264 512 1264 c 0
 782.613898845 1264 927 963.043945312 927 624 c 0
 927 284.955078125 782.614561795 -16 512 -16 c 0
 241.386101155 -16 97 284.956054688 97 624 c 0
EndSplineSet
Validated: 1
EndChar

StartChar: I
Encoding: 73 73 3
Width: 1024
VWidth: 0
Flags: HW
AnchorPoint: "top" 512 1272 basechar 0
LayerCount: 2
Fore
SplineSet
159 1200 m 0
 159 1226.14453125 180.853515625 1248 207 1248 c 2
 816 1248 l 2
 842.14453125 1248 864 1226.14648438 864 1200 c 0
 864 1173.85351562 842.14453125 1152 816 1152 c 2
 560 1152 l 1
 560 96 l 1
 816 96 l 2
 842.14453125 96 864 74.146484375 864 48 c 0
 864 21.853515625 842.14453125 -3.20167590865e-15 816 0 c 2
 208 0 l 2
 181.853515625 0 160 21.85546875 160 48 c 0
 160 74.14453125 181.853515625 96 208 96 c 2
 464 96 l 1
 464 1152 l 1
 207 1152 l 2
 180.853515625 1152 159 1173.85546875 159 1200 c 0
EndSplineSet
Validated: 1
EndChar

StartChar: emdash
Encoding: 8212 8212 4
Width: 1024
VWidth: 0
Flags: HW
LayerCount: 2
Fore
SplineSet
0 624 m 4
 0 650.14453125 21.853515625 672 48 672 c 6
 976 672 l 6
 1002.14453125 672 1024 650.146484375 1024 624 c 4
 1024 597.853515625 1002.14453125 576 976 576 c 6
 48 576 l 6
 21.853515625 576 0 597.85546875 0 624 c 4
EndSplineSet
Validated: 1
EndChar

StartChar: endash
Encoding: 8211 8211 5
Width: 1024
VWidth: 0
Flags: HW
LayerCount: 2
Fore
SplineSet
48 624 m 0
 48 650.14453125 69.853515625 672 96 672 c 2
 928 672 l 2
 954.14453125 672 976 650.146484375 976 624 c 0
 976 597.853515625 954.14453125 576 928 576 c 2
 96 576 l 2
 69.853515625 576 48 597.85546875 48 624 c 0
EndSplineSet
Validated: 1
EndChar

StartChar: hyphen
Encoding: 45 45 6
Width: 1024
VWidth: 0
Flags: HW
LayerCount: 2
Fore
SplineSet
96 624 m 0
 96 650.14453125 117.853515625 672 144 672 c 2
 880 672 l 2
 906.14453125 672 928 650.146484375 928 624 c 0
 928 597.853515625 906.14453125 576 880 576 c 2
 144 576 l 2
 117.853515625 576 96 597.85546875 96 624 c 0
EndSplineSet
Validated: 1
EndChar

StartChar: period
Encoding: 46 46 7
Width: 1024
VWidth: 0
Flags: HW
LayerCount: 2
Fore
SplineSet
320 128 m 0
 320 207 406 272 512 272 c 0
 618 272 704 207 704 128 c 0
 704 103.876953125 695.981445312 81.0595703125 681.823242188 61 c 0
 649.615234375 15.365234375 585.6328125 -16 512 -16 c 0
 406 -16 320 49 320 128 c 0
EndSplineSet
Validated: 1
EndChar

StartChar: slash
Encoding: 47 47 8
Width: 1024
VWidth: 0
Flags: HW
LayerCount: 2
Fore
SplineSet
106.533747416 -186.932505168 m 4
 89.8715016746 -178.601382297 80.1189050886 -161.320105594 80.1189050886 -143.612920117 c 0
 80.1189050886 -136.469277496 81.7062109746 -129.256315131 85.067494832 -122.533747416 c 6
 853.067494832 1413.46625258 l 6
 861.398617704 1430.12849832 878.679894409 1439.88109491 896.387079888 1439.88109491 c 0
 903.530722507 1439.88109491 910.743684871 1438.29378903 917.466252584 1434.93250517 c 4
 934.12941889 1426.60092202 943.881023279 1409.31949306 943.881023279 1391.6129427 c 0
 943.881023279 1384.46912868 942.293688853 1377.25611479 938.932505168 1370.53374742 c 6
 170.932505168 -165.466252584 l 6
 162.600922015 -182.12941889 145.319493053 -191.881023279 127.612942696 -191.881023279 c 0
 120.46912868 -191.881023279 113.256114787 -190.293688853 106.533747416 -186.932505168 c 4
EndSplineSet
Validated: 1
EndChar

StartChar: one
Encoding: 49 49 9
Width: 1024
VWidth: 0
Flags: HW
LayerCount: 2
Fore
SplineSet
160 48 m 0
 160 74.14453125 181.853515625 96 208 96 c 2
 464 96 l 1
 464 1065.27823506 l 1
 382.804705056 984.773613866 293.662890591 944 208 944 c 0
 181.853633925 944 160 965.855528292 160 992 c 0
 160 1018.14447171 181.853633925 1040 208 1040 c 0
 282.000659503 1040 381.400183688 1090.63350614 472.061585872 1226.62560942 c 0
 476.564191691 1233.37951815 482.590237054 1238.62091972 489.410803829 1242.20390847 c 0
 496.176274338 1245.89269134 503.881342763 1247.99999944 512 1248 c 0
 516.812137272 1248 521.478970845 1247.25965251 525.890965247 1245.888456 c 0
 530.324403287 1244.58204914 534.619962246 1242.60884601 538.625609419 1239.93841413 c 0
 545.379674897 1235.43570381 550.620977053 1229.40975463 554.203867059 1222.58942391 c 0
 557.892635937 1215.82407826 559.999999994 1208.11900902 560 1200 c 2
 560 96 l 1
 816 96 l 2
 842.14453125 96 864 74.146484375 864 48 c 0
 864 21.853515625 842.14453125 -3.20167590865e-15 816 0 c 2
 208 0 l 2
 181.853515625 0 160 21.85546875 160 48 c 0
EndSplineSet
Validated: 1
EndChar

StartChar: backslash
Encoding: 92 92 10
Width: 1024
VWidth: 0
Flags: HW
LayerCount: 2
Fore
SplineSet
917.465820312 -186.932617188 m 0
 910.74359109 -190.293872167 903.530679459 -191.881245677 896.386934103 -191.881245677 c 0
 878.680614253 -191.881245677 861.399206472 -182.129467631 853.067382812 -165.465820312 c 2
 85.0673828125 1370.53417969 l 2
 81.706127833 1377.25640891 80.1187543229 1384.46932054 80.1187543229 1391.6130659 c 0
 80.1187543229 1409.31938575 89.8705323691 1426.60079353 106.534179688 1434.93261719 c 0
 113.256639863 1438.29398764 120.469492111 1439.88132825 127.613039907 1439.88132825 c 0
 145.32009185 1439.88132825 162.601324102 1430.12840649 170.932617188 1413.46582031 c 2
 938.932617188 -122.534179688 l 2
 942.293987637 -129.256639864 943.881328249 -136.469492112 943.881328249 -143.613039909 c 0
 943.881328249 -161.320091851 934.128406484 -178.601324102 917.465820312 -186.932617188 c 0
EndSplineSet
Validated: 1
EndChar

StartChar: asciitilde
Encoding: 126 126 11
Width: 1024
VWidth: 0
Flags: HW
LayerCount: 2
Fore
SplineSet
144.002248473 384.000002318 m 4
 117.900641846 384.000002318 96.054044494 405.786848751 96.0001024044 431.900849556 c 4
 95.9989218444 432.472372537 95.9983315404 433.043425804 95.9983315404 433.614007221 c 4
 95.9983315404 628.263567862 164.696843062 768 304 768 c 5
 554.122425975 768 554.119925992 576 720 576 c 4
 772.23465528 576 832 627.360828494 832 816 c 4
 832 842.144471708 853.853633925 864 880 864 c 4
 906.146366075 864 928 842.144471708 928 816 c 4
 928 620.639171506 859.775110345 480 720 480 c 4
 469.880074008 480 469.877574025 672 304 672 c 4
 251.880058508 672 191.998016374 620.887991303 191.998016374 433.917432983 c 4
 191.998016374 433.312760715 191.998642685 432.706667491 191.999897596 432.099150444 c 4
 191.999997853 432.002083293 l 0
 191.999997853 405.859486893 170.18169369 384.027041922 144.002248473 384.000002318 c 4
EndSplineSet
Validated: 1
EndChar

StartChar: bar
Encoding: 124 124 12
Width: 1024
VWidth: 0
Flags: HW
LayerCount: 2
Fore
SplineSet
512 1440 m 4
 538.14453125 1440 560 1418.14648438 560 1392 c 6
 560 -146 l 6
 560 -172.14453125 538.146484375 -194 512 -194 c 4
 485.853515625 -194 464 -172.14453125 464 -146 c 6
 464 1392 l 6
 464 1418.14648438 485.85546875 1440 512 1440 c 4
EndSplineSet
Validated: 1
EndChar

StartChar: plus
Encoding: 43 43 13
Width: 1024
VWidth: 0
Flags: HW
LayerCount: 2
Fore
SplineSet
96 624 m 0
 96 650.14453125 117.853515625 672 144 672 c 2
 464 672 l 1
 464 992 l 2
 464 1018.14453125 485.853515625 1040 512 1040 c 0
 538.146484375 1040 560 1018.14453125 560 992 c 2
 560 672 l 1
 880 672 l 2
 906.14453125 672 928 650.146484375 928 624 c 0
 928 597.853515625 906.14453125 576 880 576 c 2
 560 576 l 1
 560 256 l 2
 560 229.853515625 538.14453125 208 512 208 c 0
 485.85546875 208 464 229.853515625 464 256 c 2
 464 576 l 1
 144 576 l 2
 117.853515625 576 96 597.85546875 96 624 c 0
EndSplineSet
Validated: 1
EndChar

StartChar: zero
Encoding: 48 48 14
Width: 1024
VWidth: 0
Flags: HW
LayerCount: 2
Fore
SplineSet
97 624 m 0
 97 963.044921875 241.385438205 1264 512 1264 c 0
 782.613898845 1264 927 963.043945312 927 624 c 0
 927 284.955078125 782.614561795 -16 512 -16 c 0
 241.386101155 -16 97 284.956054688 97 624 c 0
192 624 m 0
 192 309.043945312 322.613898845 80 512 80 c 0
 701.385438205 80 831 309.044921875 831 624 c 0
 831 938.956054688 701.386101155 1168 512 1168 c 0
 322.614561795 1168 192 938.955078125 192 624 c 0
416 624 m 0
 416 677 459 720 512 720 c 0
 565 720 608 677 608 624 c 0
 608 571 565 528 512 528 c 0
 459 528 416 571 416 624 c 0
EndSplineSet
Validated: 1
EndChar

StartChar: comma
Encoding: 44 44 15
Width: 1024
VWidth: 0
Flags: HW
LayerCount: 2
Fore
SplineSet
320 128 m 0
 320 207 406 272 512 272 c 0
 618 272 704 207 704 128 c 0
 704 -145.676757812 398.458007812 -389.099609375 398.064453125 -389.426757812 c 0
 388.924464538 -396.525822785 378.310626381 -399.909394115 367.879857287 -399.909394115 c 0
 353.979386296 -399.909394115 340.404033538 -393.90040102 331.075195312 -382.66796875 c 0
 323.743524872 -373.841112842 320.069910994 -363.022908668 320.069910994 -352.163766206 c 0
 320.069910994 -338.837418936 325.602452722 -325.44941772 336.696289062 -315.604492188 c 0
 341.159492196 -311.884519043 504.963006534 -169.068891785 575.846408959 -7.78690127021 c 1
 555.870013363 -13.1022791561 534.380789083 -16 512 -16 c 1
 406 -16 320 49 320 128 c 0
EndSplineSet
Validated: 1
EndChar

StartChar: minus
Encoding: 8722 8722 16
Width: 1024
VWidth: 0
Flags: HW
LayerCount: 2
Fore
SplineSet
96 624 m 0
 96 650.14453125 117.853515625 672 144 672 c 2
 880 672 l 2
 906.14453125 672 928 650.146484375 928 624 c 0
 928 597.853515625 906.14453125 576 880 576 c 2
 144 576 l 2
 117.853515625 576 96 597.85546875 96 624 c 0
EndSplineSet
Validated: 1
EndChar

StartChar: equal
Encoding: 61 61 17
Width: 1024
VWidth: 0
Flags: HW
LayerCount: 2
Fore
SplineSet
96 768 m 4
 96 794.14453125 117.853515625 816 144 816 c 6
 880 816 l 6
 906.14453125 816 928 794.146484375 928 768 c 4
 928 741.853515625 906.14453125 720 880 720 c 6
 144 720 l 6
 117.853515625 720 96 741.85546875 96 768 c 4
96 480 m 4
 96 506.14453125 117.853515625 528 144 528 c 6
 880 528 l 6
 906.14453125 528 928 506.146484375 928 480 c 4
 928 453.853515625 906.14453125 432 880 432 c 6
 144 432 l 6
 117.853515625 432 96 453.85546875 96 480 c 4
EndSplineSet
Validated: 1
EndChar

StartChar: colon
Encoding: 58 58 18
Width: 1024
VWidth: 0
Flags: HW
LayerCount: 2
Fore
SplineSet
320 688 m 4
 320 767 406 832 512 832 c 4
 618 832 704 767 704 688 c 4
 704 663.876953125 695.981445312 641.059570312 681.823242188 621 c 4
 649.615234375 575.365234375 585.6328125 544 512 544 c 4
 406 544 320 609 320 688 c 4
320 128 m 4
 320 207 406 272 512 272 c 4
 618 272 704 207 704 128 c 4
 704 103.876953125 695.981445312 81.0595703125 681.823242188 61 c 4
 649.615234375 15.365234375 585.6328125 -16 512 -16 c 4
 406 -16 320 49 320 128 c 4
EndSplineSet
Validated: 1
EndChar

StartChar: semicolon
Encoding: 59 59 19
Width: 1024
VWidth: 0
Flags: HW
LayerCount: 2
Fore
SplineSet
320 128 m 4
 320 207 406 272 512 272 c 4
 618 272 704 207 704 128 c 4
 704 -145.676757812 398.458007812 -389.099609375 398.064453125 -389.426757812 c 4
 388.924464538 -396.525822785 378.310626381 -399.909394115 367.879857287 -399.909394115 c 0
 353.979386296 -399.909394115 340.404033538 -393.90040102 331.075195312 -382.66796875 c 4
 323.743524872 -373.841112842 320.069910994 -363.022908668 320.069910994 -352.163766206 c 0
 320.069910994 -338.837418936 325.602452722 -325.44941772 336.696289062 -315.604492188 c 4
 341.16015625 -311.884765625 504.962890625 -169.069335938 575.846679688 -7.787109375 c 5
 555.870117188 -13.1025390625 534.380859375 -16 512 -16 c 4
 406 -16 320 49 320 128 c 4
320 688 m 4
 320 767 406 832 512 832 c 4
 618 832 704 767 704 688 c 4
 704 663.876953125 695.981445312 641.059570312 681.823242188 621 c 4
 649.615234375 575.365234375 585.6328125 544 512 544 c 4
 406 544 320 609 320 688 c 4
EndSplineSet
Validated: 1
EndChar

StartChar: less
Encoding: 60 60 20
Width: 1024
VWidth: 0
Flags: HW
LayerCount: 2
Fore
SplineSet
921.621066039 1079.90997411 m 4
 925.854128228 1072.5413103 927.859449828 1064.41545988 927.859449828 1056.35590204 c 0
 927.859449828 1039.61987788 919.21243532 1023.16970955 903.909974107 1014.37893396 c 6
 224.361459434 624 l 5
 903.909974107 233.621066039 l 6
 919.211643921 224.830745082 927.859517628 208.380602263 927.859517628 191.643988369 c 0
 927.859517628 183.584660723 925.854252653 175.458906295 921.621066039 168.090025893 c 4
 912.830290448 152.78756468 896.380122119 144.140550172 879.644097956 144.140550172 c 0
 871.584540118 144.140550172 863.458689703 146.145871772 856.090025893 150.378933961 c 6
 104.090025893 582.378933961 l 6
 99.7097695774 584.895251419 92.42162984 590.994862405 88.3831381142 596.898261046 c 4
 82.8169518443 605.034817636 80.1792737586 614.375759944 80.1792737586 623.648610545 c 0
 80.1792737586 640.328406366 88.7137470956 656.787884602 104.090025893 665.621066039 c 6
 856.090025893 1097.62106604 l 6
 863.458906295 1101.85425266 871.584660722 1103.85951763 879.643988369 1103.85951763 c 0
 896.380602262 1103.85951763 912.830745082 1095.21164392 921.621066039 1079.90997411 c 4
EndSplineSet
Validated: 1
EndChar

StartChar: eight
Encoding: 56 56 21
Width: 1024
VWidth: 0
Flags: HW
LayerCount: 2
Fore
SplineSet
152 944 m 0
 152 1126.13403844 319.116449403 1264 512 1264 c 0
 704.883616445 1264 872 1126.13414687 872 944 c 0
 872 829.464898405 805.913283259 732.435744715 708.890735649 676.188546949 c 1
 837.711335916 615.053217631 928 495.374360122 928 352 c 0
 928 142.768119417 735.71494738 -16 512 -16 c 0
 288.285109543 -16 96 142.768192874 96 352 c 0
 96 495.374394512 186.288617272 615.053222697 315.10919613 676.188541512 c 1
 218.086672889 732.435720253 152 829.464845654 152 944 c 0
192 352 m 0
 192 207.231807126 329.714890457 80 512 80 c 0
 694.28505262 80 832 207.231880583 832 352 c 0
 832 496.768192874 694.285109543 624 512 624 c 0
 329.71494738 624 192 496.768119417 192 352 c 0
512 720 m 0
 663.116449403 720 776 826.13403844 776 944 c 0
 776 1061.86585313 663.116383555 1168 512 1168 c 0
 360.883550597 1168 248 1061.86596156 248 944 c 0
 248 826.13414687 360.883616445 720 512 720 c 0
EndSplineSet
Validated: 1
EndChar

StartChar: greater
Encoding: 62 62 22
Width: 1024
VWidth: 0
Flags: HW
LayerCount: 2
Fore
SplineSet
88.3828125 1079.91015625 m 0
 97.1732791718 1095.21173793 113.623324853 1103.85968322 130.359922562 1103.85968322 c 0
 138.419281924 1103.85968322 146.545087489 1101.85438199 153.9140625 1097.62109375 c 2
 905.9140625 665.62109375 l 2
 921.290083643 656.787632995 929.824586707 640.328057896 929.824586707 623.648205521 c 0
 929.824586707 614.375575284 927.187042684 605.034869495 921.62109375 596.8984375 c 0
 917.58203125 590.995117188 910.293945312 584.895507812 905.9140625 582.37890625 c 2
 153.9140625 150.37890625 l 2
 146.545343568 146.145717843 138.419406744 144.140332776 130.359756356 144.140332776 c 0
 113.6238288 144.140332776 97.1737207296 152.787322533 88.3828125 168.08984375 c 0
 84.1495242619 175.458818762 82.1442230262 183.584624329 82.1442230262 191.643983691 c 0
 82.1442230262 208.380581399 90.7921683185 224.830627079 106.09375 233.62109375 c 2
 785.642578125 624 l 1
 106.09375 1014.37890625 l 2
 90.7912287834 1023.16981448 82.1442390262 1039.61992255 82.1442390262 1056.35585011 c 0
 82.1442390262 1064.4155005 84.1496240931 1072.54143732 88.3828125 1079.91015625 c 0
EndSplineSet
Validated: 1
EndChar

StartChar: underscore
Encoding: 95 95 23
Width: 1024
VWidth: 0
Flags: HW
LayerCount: 2
Fore
SplineSet
96 48 m 4
 96 74.14453125 117.853515625 96 144 96 c 6
 880 96 l 6
 906.14453125 96 928 74.146484375 928 48 c 4
 928 21.853515625 906.14453125 0 880 0 c 6
 144 0 l 6
 117.853515625 0 96 21.85546875 96 48 c 4
EndSplineSet
Validated: 1
EndChar

StartChar: asciicircum
Encoding: 94 94 24
Width: 1024
VWidth: 0
Flags: HW
LayerCount: 2
Fore
SplineSet
142.05859375 830.05859375 m 4
 132.81518556 839.302490235 128.193115225 851.651531206 128.193115225 864.000612244 c 0
 128.193115225 876.34904098 132.814697279 888.697509779 142.05859375 897.94140625 c 6
 478.058874503 1233.9411255 l 6
 487.475060033 1243.35731103 499.4594224 1247.20218468 511.082344144 1247.20218468 c 0
 524.818783433 1247.20218468 538.050381654 1241.83186934 545.941125497 1233.9411255 c 6
 881.94140625 897.94140625 l 6
 891.18481444 888.697509765 895.806884775 876.348468794 895.806884775 863.999387756 c 0
 895.806884775 851.65095902 891.185302721 839.302490221 881.94140625 830.05859375 c 4
 872.697509779 820.814697279 860.34904098 816.193115225 848.000612244 816.193115225 c 0
 835.651531206 816.193115225 823.302490235 820.81518556 814.05859375 830.05859375 c 6
 512 1132.11774901 l 5
 209.94140625 830.05859375 l 6
 200.697509779 820.814697279 188.34904098 816.193115225 176.000612244 816.193115225 c 0
 163.651531206 816.193115225 151.302490235 820.81518556 142.05859375 830.05859375 c 4
EndSplineSet
Validated: 1
EndChar

StartChar: U
Encoding: 85 85 25
Width: 1024
VWidth: 0
Flags: HW
AnchorPoint: "top" 512 1272 basechar 0
LayerCount: 2
Fore
SplineSet
46 1200 m 0
 46 1226.14447171 67.8536339246 1248 94 1248 c 2
 256 1248 l 1
 414 1248 l 2
 440.144471708 1248 462 1226.14636608 462 1200 c 0
 462 1173.85363392 440.144471708 1152 414 1152 c 2
 304 1152 l 1
 304 288 l 2
 304 173.554060986 397.55407845 80 512 80 c 0
 626.445939014 80 720 173.55407845 720 288 c 2
 720 1152 l 1
 606 1152 l 2
 579.853633925 1152 558 1173.85552829 558 1200 c 0
 558 1226.14447171 579.853633925 1248 606 1248 c 2
 768 1248 l 1
 926 1248 l 2
 952.144471708 1248 974 1226.14636608 974 1200 c 0
 974 1173.85363392 952.144471708 1152 926 1152 c 2
 816 1152 l 1
 816 288 l 2
 816 120.44592155 679.554060986 -16 512 -16 c 0
 344.44592155 -16 208 120.445939014 208 288 c 2
 208 1152 l 1
 94 1152 l 2
 67.8536339246 1152 46 1173.85552829 46 1200 c 0
EndSplineSet
Validated: 1
EndChar

StartChar: J
Encoding: 74 74 26
Width: 1024
VWidth: 0
Flags: HW
AnchorPoint: "top" 656 1272 basechar 0
LayerCount: 2
Fore
SplineSet
336 1200 m 0
 336 1226.14453125 357.853515625 1248 384 1248 c 2
 928 1248 l 2
 954.144471708 1248 976 1226.14636608 976 1200 c 0
 976 1173.85363392 954.144471708 1152 928 1152 c 2
 704 1152 l 1
 704 289 l 2
 704 288.83323864 703.997334735 288.666651778 703.997334735 288.500243946 c 0
 703.997334735 288.333673993 704 288.166924496 704 288 c 0
 704 120.698242188 568.732421875 -16 401 -16 c 0
 233.876953125 -16 96 119.015625 96 287 c 0
 96 287.334045731 96.0035675613 287.667391278 96.010666056 288 c 2
 96 288 l 1
 96 335 l 1
 96 336 l 1
 96.0051066378 336 l 1
 96.5419248424 388.539823381 139.333732582 431 192 431 c 0
 245 431 288 388 288 335 c 0
 288 283.900420348 248.028414829 242.096558178 197.661167966 239.164336968 c 1
 219.601086108 148.08113233 302.702764192 80 401 80 c 0
 515.267578125 80 608 173.301757812 608 288 c 0
 608 288.166924487 608.002665266 288.333674001 608.002665266 288.500243946 c 0
 608.002665266 288.666651769 608 288.833238649 608 289 c 2
 608 1152 l 1
 384 1152 l 2
 357.853515625 1152 336 1173.85546875 336 1200 c 0
EndSplineSet
Validated: 1
EndChar

StartChar: question
Encoding: 63 63 27
Width: 1024
VWidth: 0
Flags: HW
LayerCount: 2
Fore
SplineSet
320 128 m 0
 320 207 406 272 512 272 c 0
 618 272 704 207 704 128 c 0
 704 103.876953125 695.981445312 81.0595703125 681.823242188 61 c 0
 649.615234375 15.365234375 585.6328125 -16 512 -16 c 0
 406 -16 320 49 320 128 c 0
209.074892747 1054.48449394 m 1
 253.935556987 1046.42377398 288 1007.17286874 288 960 c 1
 288 907 245 864 192 864 c 0
 139 864 96 907 96 960 c 2
 96 1008 l 2
 96 1171.70117188 305.557617188 1264 512 1264 c 0
 718.469726562 1264 928 1171.70507812 928 1008 c 0
 928 849.617667056 799.996553621 822.367717771 727.103112829 782.341722076 c 0
 635.156766666 731.853725001 560 708.644926558 560 480 c 0
 560 453.855528292 538.146366075 432 512 432 c 0
 485.853633925 432 464 453.855528292 464 480 c 0
 464 745.271089067 583.667452084 813.101353124 680.896887171 866.490309174 c 0
 786.519071379 924.487750979 832 917.705426442 832 1008 c 0
 832 1074.29492188 711.530273438 1168 512 1168 c 0
 356.379887258 1168 248.871945146 1111.0177158 209.074892747 1054.48449394 c 1
EndSplineSet
Validated: 1
EndChar

StartChar: exclam
Encoding: 33 33 28
Width: 1024
VWidth: 0
Flags: HW
LayerCount: 2
Fore
SplineSet
320 128 m 0
 320 207 406 272 512 272 c 0
 618 272 704 207 704 128 c 0
 704 49 618 -16 512 -16 c 0
 406 -16 320 49 320 128 c 0
512 592.18704102 m 0
 502.318306372 592.121863389 492.553644163 594.923538443 484.163085938 600.896484375 c 0
 481.894967657 602.51107037 479.807706545 604.311302229 477.907289792 606.26336733 c 0
 475.235763155 608.92817564 472.850806604 611.951793198 470.833007812 615.317382812 c 0
 469.438554119 617.641472301 320.016621552 862.442495132 320.000003532 1119.96484376 c 2
 320 1120 l 1
 320.000000024 1120.00231934 l 1
 320 1120.0078125 l 1
 320.000002197 1120.02186684 l 2
 320.015870039 1199.01199411 406.009780268 1264 512 1264 c 0
 617.992116885 1264 703.98720842 1199.00966761 703.999998574 1120.01762522 c 2
 704 1120.0078125 l 1
 703.999999976 1120.00231934 l 1
 704 1120 l 1
 703.999996468 1119.96484375 l 2
 703.983376301 862.442495129 554.561443735 617.641472301 553.166992188 615.317382812 c 0
 551.172984053 611.99147387 548.8204245 608.999521034 546.187086821 606.357770431 c 0
 544.260559311 604.369207379 542.14156459 602.537068661 539.836914062 600.896484375 c 0
 531.446355837 594.923538443 521.681693628 592.121863389 512 592.18704102 c 0
EndSplineSet
Validated: 1
EndChar

StartChar: V
Encoding: 86 86 29
Width: 1024
VWidth: 0
Flags: HW
AnchorPoint: "top" 512 1272 basechar 0
LayerCount: 2
Fore
SplineSet
16 1200 m 0
 16 1226.14447171 37.8536339246 1248 64 1248 c 2
 384 1248 l 2
 410.144471708 1248 432 1226.14636608 432 1200 c 0
 432 1173.85363392 410.144471708 1152 384 1152 c 2
 265.018714812 1152 l 1
 512 120.489926571 l 1
 758.981285188 1152 l 1
 640 1152 l 2
 613.855528292 1152 592 1173.85363392 592 1200 c 0
 592 1226.14636608 613.855528292 1248 640 1248 c 2
 960 1248 l 2
 986.146366075 1248 1008 1226.14447171 1008 1200 c 0
 1008 1173.85552829 986.146366075 1152 960 1152 c 2
 857.69477115 1152 l 1
 590.680551852 36.822966458 l 2
 585.990690414 17.2358980997 566.738139935 0 544 0 c 2
 512 0 l 1
 480 0 l 2
 459.859293777 0 438.614134663 14.7098639531 433.319448148 36.822966458 c 2
 166.30522885 1152 l 1
 64 1152 l 2
 37.8536339246 1152 16 1173.85552829 16 1200 c 0
EndSplineSet
Validated: 1
EndChar

StartChar: Y
Encoding: 89 89 30
Width: 1024
VWidth: 0
Flags: HW
AnchorPoint: "top" 512 1272 basechar 0
LayerCount: 2
Fore
SplineSet
14 1200 m 0
 14 1226.14453125 35.853515625 1248 62 1248 c 2
 382 1248 l 2
 408.14453125 1248 430 1226.14648438 430 1200 c 0
 430 1173.85351562 408.14453125 1152 382 1152 c 2
 265.569767416 1152 l 1
 510.92473586 722.628805225 l 1
 744.011955881 1152 l 1
 638 1152 l 2
 611.853515625 1152 590 1173.85546875 590 1200 c 0
 590 1226.14453125 611.853515625 1248 638 1248 c 2
 958 1248 l 2
 984.14453125 1248 1006 1226.14648438 1006 1200 c 0
 1006 1173.85351562 984.14453125 1152 958 1152 c 2
 853.245186977 1152 l 1
 560 611.811497676 l 1
 560 96 l 1
 816 96 l 2
 842.14453125 96 864 74.146484375 864 48 c 0
 864 21.853515625 842.14453125 -3.20167590865e-15 816 0 c 2
 208 0 l 2
 181.853515625 0 160 21.85546875 160 48 c 0
 160 74.14453125 181.853515625 96 208 96 c 2
 464 96 l 1
 464 611.252907021 l 1
 155.001661155 1152 l 1
 62 1152 l 2
 35.853515625 1152 14 1173.85546875 14 1200 c 0
EndSplineSet
Validated: 1
EndChar

StartChar: quoteright
Encoding: 8217 8217 31
Width: 1024
VWidth: 0
Flags: HW
LayerCount: 2
Fore
SplineSet
320 1104 m 0
 320 1183 406 1248 512 1248 c 0
 618 1248 704 1183 704 1104 c 0
 704 830.323242188 398.458007812 586.900390625 398.064453125 586.573242188 c 0
 388.924464538 579.474177215 378.310626381 576.090605885 367.879857287 576.090605885 c 0
 353.979386296 576.090605885 340.404033538 582.09959898 331.075195312 593.33203125 c 0
 323.743524872 602.158887158 320.069910994 612.977091332 320.069910994 623.836233794 c 0
 320.069910994 637.162581064 325.602452722 650.55058228 336.696289062 660.395507812 c 0
 341.159492196 664.115480957 504.963006534 806.931108215 575.846408959 968.21309873 c 1
 555.870013363 962.897720844 534.380789083 960 512 960 c 1
 406 960 320 1025 320 1104 c 0
EndSplineSet
Validated: 1
EndChar

StartChar: quoteleft
Encoding: 8216 8216 32
Width: 1024
VWidth: 0
Flags: HW
LayerCount: 2
Fore
SplineSet
704 719.573242188 m 0
 704 640.573242188 618 575.573242188 512 575.573242188 c 0
 406 575.573242188 320 640.573242188 320 719.573242188 c 0
 320 993.25 625.541992188 1236.67285156 625.935546875 1237 c 0
 635.075535463 1244.09906497 645.68937362 1247.4826363 656.120142715 1247.4826363 c 0
 670.020613706 1247.4826363 683.595966462 1241.47364321 692.924804688 1230.24121094 c 0
 700.256475128 1221.41435503 703.930089006 1210.59615086 703.930089006 1199.7370084 c 0
 703.930089006 1186.41066113 698.397547278 1173.02265991 687.303710938 1163.17773438 c 0
 682.840507804 1159.45776123 519.036993466 1016.64213397 448.153591041 855.360143458 c 1
 468.129986637 860.675521344 489.619210917 863.573242188 512 863.573242188 c 1
 618 863.573242188 704 798.573242188 704 719.573242188 c 0
EndSplineSet
Validated: 1
EndChar

StartChar: quotedblleft
Encoding: 8220 8220 33
Width: 1024
VWidth: 0
Flags: HW
LayerCount: 2
Fore
SplineSet
413.96875 1237.49511719 m 0
 425.879270677 1227.9753843 431.613434263 1214.01010845 431.613434263 1200.10658884 c 0
 431.613434263 1189.61813512 428.350235686 1179.16482565 422.013671875 1170.68164062 c 0
 419.473398152 1167.49273761 309.508685072 1025.25907977 261.75654769 860.379128559 c 1
 270.588030682 862.098614574 279.696943064 863 289 863 c 0
 368 863 433 798 433 719 c 0
 433 640 368 575 289 575 c 0
 213.429701423 575 150.670199254 634.478697605 145.363356069 708.7942291 c 0
 144.473097606 712.399331991 144.000001061 716.153240079 144 720 c 0
 144 982.662109375 343.994140625 1226.82714844 346.995117188 1230.58203125 c 0
 356.325063237 1241.50207033 370.378352195 1247.70602657 384.615588914 1247.70602657 c 0
 394.869905246 1247.70602657 405.219645337 1244.48769537 413.96875 1237.49511719 c 0
861.96875 1237.49511719 m 0
 873.879270677 1227.9753843 879.613434263 1214.01010845 879.613434263 1200.10658884 c 0
 879.613434263 1189.61813512 876.350235686 1179.16482565 870.013671875 1170.68164062 c 0
 867.473398152 1167.49273761 757.508685072 1025.25907977 709.75654769 860.379128559 c 1
 718.588030682 862.098614574 727.696943064 863 737 863 c 0
 816 863 881 798 881 719 c 0
 881 640 816 575 737 575 c 0
 661.429701423 575 598.670199254 634.478697605 593.363356069 708.7942291 c 0
 592.473097606 712.399331991 592.000001061 716.153240079 592 720 c 0
 592 982.662109375 791.994140625 1226.82714844 794.995117188 1230.58203125 c 0
 804.325063237 1241.50207033 818.378352195 1247.70602657 832.615588914 1247.70602657 c 0
 842.869905246 1247.70602657 853.219645337 1244.48769537 861.96875 1237.49511719 c 0
EndSplineSet
Validated: 1
EndChar

StartChar: quotedblright
Encoding: 8221 8221 34
Width: 1024
VWidth: 0
Flags: HW
LayerCount: 2
Fore
SplineSet
611.03125 586 m 0
 599.120729323 595.519732889 593.386565737 609.485008735 593.386565737 623.388528347 c 0
 593.386565737 633.876982062 596.649764314 644.330291532 602.986328125 652.813476562 c 0
 605.526601848 656.002379575 715.491314928 798.236037414 763.24345231 963.115988629 c 1
 754.411969318 961.396502614 745.303056936 960.495117188 736 960.495117188 c 0
 657 960.495117188 592 1025.49511719 592 1104.49511719 c 0
 592 1183.49511719 657 1248.49511719 736 1248.49511719 c 0
 811.570298577 1248.49511719 874.329800746 1189.01641959 879.636643931 1114.70088809 c 0
 880.526902394 1111.0957852 880.999998939 1107.34187711 881 1103.49511719 c 0
 881 840.833007812 681.005859375 596.66796875 678.004882812 592.913085938 c 0
 668.674936763 581.993046863 654.621647806 575.789090615 640.384411087 575.789090615 c 0
 630.130094754 575.789090615 619.780354663 579.007421817 611.03125 586 c 0
163.03125 586 m 0
 151.120729323 595.519732889 145.386565737 609.485008735 145.386565737 623.388528347 c 0
 145.386565737 633.876982062 148.649764314 644.330291532 154.986328125 652.813476562 c 0
 157.526601848 656.002379575 267.491314928 798.236037414 315.24345231 963.115988629 c 1
 306.411969318 961.396502614 297.303056936 960.495117188 288 960.495117188 c 0
 209 960.495117188 144 1025.49511719 144 1104.49511719 c 0
 144 1183.49511719 209 1248.49511719 288 1248.49511719 c 0
 363.570298577 1248.49511719 426.329800746 1189.01641959 431.636643931 1114.70088809 c 0
 432.526902394 1111.0957852 432.999998939 1107.34187711 433 1103.49511719 c 0
 433 840.833007812 233.005859375 596.66796875 230.004882812 592.913085938 c 0
 220.674936763 581.993046863 206.621647806 575.789090615 192.384411087 575.789090615 c 0
 182.130094754 575.789090615 171.780354663 579.007421817 163.03125 586 c 0
EndSplineSet
Validated: 1
EndChar

StartChar: quotedbl
Encoding: 34 34 35
Width: 1024
VWidth: 0
Flags: HW
LayerCount: 2
Fore
SplineSet
799.03515625 1154.34765625 m 0
 797.749023438 900.44140625 761.01953125 688.611328125 751.975585938 640.184570312 c 1
 751.943359375 617.876953125 735.958984375 597.436523438 713.403320312 592.9296875 c 0
 710.102539062 592.270507812 706.80078125 591.96875 703.541015625 592.001953125 c 0
 700.278320312 591.967773438 696.97265625 592.26953125 693.666992188 592.9296875 c 0
 671.111328125 597.435546875 655.126953125 617.877929688 655.094726562 640.185546875 c 1
 645.889648438 689.48046875 608 908.067382812 608 1168 c 0
 608 1221 651 1264 704 1264 c 0
 757 1264 800 1221 800 1168 c 0
 800 1163.36523438 799.670898438 1158.80761719 799.03515625 1154.34765625 c 0
415.03515625 1154.34765625 m 0
 413.749023438 900.44140625 377.01953125 688.611328125 367.975585938 640.184570312 c 1
 367.943359375 617.876953125 351.958984375 597.436523438 329.403320312 592.9296875 c 0
 326.102539062 592.270507812 322.80078125 591.96875 319.541015625 592.001953125 c 0
 316.278320312 591.967773438 312.97265625 592.26953125 309.666992188 592.9296875 c 0
 287.111328125 597.435546875 271.126953125 617.877929688 271.094726562 640.185546875 c 1
 261.889648438 689.48046875 224 908.067382812 224 1168 c 0
 224 1221 267 1264 320 1264 c 0
 373 1264 416 1221 416 1168 c 0
 416 1163.36523438 415.670898438 1158.80761719 415.03515625 1154.34765625 c 0
EndSplineSet
Validated: 1
EndChar

StartChar: quotesingle
Encoding: 39 39 36
Width: 1024
VWidth: 0
Flags: HW
LayerCount: 2
Fore
SplineSet
656 1120.00292969 m 0
 656 867.665039062 557.887695312 625.479492188 556.280273438 621.45703125 c 0
 555.481445312 619.633789062 554.591796875 617.88671875 553.620117188 616.217773438 c 0
 548.41015625 607.025390625 540.18359375 599.572265625 529.813476562 595.427734375 c 0
 524.002929688 593.10546875 517.96484375 591.999023438 512 592.013671875 c 0
 506.03515625 591.999023438 499.997070312 593.10546875 494.186523438 595.427734375 c 0
 483.810546875 599.57421875 475.581054688 607.032226562 470.372070312 616.231445312 c 0
 469.403320312 617.896484375 468.516601562 619.638671875 467.719726562 621.45703125 c 0
 466.112440649 625.479151955 367.999997894 867.627000221 367.999997894 1119.93889989 c 0
 368.002598421 1198.99413184 432.977722208 1264 512 1264 c 0
 590.999023438 1264 656 1199.00195312 656 1120.00292969 c 0
EndSplineSet
Validated: 1
EndChar

StartChar: asterisk
Encoding: 42 42 37
Width: 1024
VWidth: 0
Flags: HW
LayerCount: 2
Fore
SplineSet
168.673828125 816.599609375 m 0
 165.833984375 816.204101562 162.938476562 816 160 816 c 0
 125 816 96 845 96 880 c 0
 96 915 125 944 160 944 c 0
 253.051757812 944 340.955078125 932.427734375 367.836914062 928.551757812 c 0
 390.955078125 928.53515625 411.802734375 911.345703125 415.43359375 887.916015625 c 0
 415.829101562 885.361328125 416.014648438 882.814453125 416 880.295898438 c 0
 416.016601562 877.76953125 415.831054688 875.213867188 415.43359375 872.649414062 c 0
 411.803710938 849.219726562 390.954101562 832.030273438 367.834960938 832.014648438 c 0
 341.788085938 828.258789062 258.463867188 817.279296875 168.673828125 816.599609375 c 0
855.326171875 816.599609375 m 0
 765.536132812 817.279296875 682.211914062 828.258789062 656.165039062 832.014648438 c 0
 633.045898438 832.030273438 612.196289062 849.219726562 608.56640625 872.649414062 c 0
 608.168945312 875.213867188 607.983398438 877.76953125 608 880.295898438 c 0
 607.985351562 882.814453125 608.170898438 885.361328125 608.56640625 887.916015625 c 0
 612.197265625 911.345703125 633.044921875 928.53515625 656.163085938 928.551757812 c 0
 683.044921875 932.427734375 770.948242188 944 864 944 c 0
 899 944 928 915 928 880 c 0
 928 845 899 816 864 816 c 0
 861.061523438 816 858.166015625 816.204101562 855.326171875 816.599609375 c 0
738.569335938 614.37109375 m 0
 740.33203125 612.109375 741.95703125 609.703125 743.42578125 607.159179688 c 0
 749.152756348 597.239879849 751.868693697 586.324082349 751.868693697 575.512988801 c 0
 751.868693697 553.288468636 740.391247037 531.50642334 720 519.733398438 c 0
 710.080700161 514.00642334 699.164902661 511.290485991 688.353809113 511.290485991 c 0
 666.129288948 511.290485991 644.347243652 522.767932651 632.57421875 543.159179688 c 0
 586.048828125 623.744140625 552.118164062 705.657226562 542.034179688 730.875 c 0
 537.773375541 738.267698845 535.693058983 746.562260129 535.693058983 754.832985675 c 0
 535.693058983 768.970425376 541.771381468 783.038221207 553.427734375 792.413085938 c 0
 555.442382812 794.033203125 557.555664062 795.466796875 559.744140625 796.713867188 c 0
 561.923828125 797.991210938 564.229492188 799.108398438 566.649414062 800.046875 c 0
 572.19085197 802.195296058 577.933762673 803.210609079 583.611219002 803.210609079 c 0
 600.581825421 803.210609079 616.967607021 794.138942617 625.639648438 779.141601562 c 0
 641.915039062 758.462890625 693.0859375 691.791992188 738.569335938 614.37109375 c 0
395.243164062 1209.02929688 m 0
 439.549804688 1130.92871094 471.703125 1053.27832031 481.473632812 1028.84277344 c 0
 485.735908825 1021.44975764 487.816898429 1013.15431493 487.816898429 1004.88269268 c 0
 487.816898429 990.745773615 481.738375366 976.678433575 470.08203125 967.3046875 c 0
 468.060546875 965.677734375 465.940429688 964.239257812 463.744140625 962.990234375 c 0
 461.5703125 961.71875 459.271484375 960.60546875 456.861328125 959.670898438 c 0
 451.319310433 957.522347514 445.575979717 956.506980242 439.898219233 956.506980242 c 0
 422.928072649 956.506980242 406.54369154 965.577667896 397.87109375 980.573242188 c 0
 381.07421875 1001.91601562 327.100585938 1072.25585938 280.57421875 1152.84082031 c 0
 274.847243652 1162.76012015 272.131306303 1173.67591765 272.131306303 1184.4870112 c 0
 272.131306303 1206.71153136 283.608752963 1228.49357666 304 1240.26660156 c 0
 313.919299839 1245.99357666 324.83509734 1248.70951401 335.64619089 1248.70951401 c 0
 357.870711054 1248.70951401 379.652756349 1237.23206735 391.42578125 1216.84082031 c 0
 392.89453125 1214.29589844 394.166015625 1211.68652344 395.243164062 1209.02929688 c 0
628.756835938 1209.02929688 m 0
 629.833984375 1211.68652344 631.10546875 1214.296875 632.57421875 1216.84082031 c 0
 644.347243651 1237.23206735 666.129288946 1248.70951401 688.35380911 1248.70951401 c 0
 699.16490266 1248.70951401 710.080700161 1245.99357666 720 1240.26660156 c 0
 740.391247037 1228.49357666 751.868693697 1206.71153136 751.868693697 1184.4870112 c 0
 751.868693697 1173.67591765 749.152756348 1162.76012015 743.42578125 1152.84082031 c 0
 696.899414062 1072.25585938 642.92578125 1001.91503906 626.12890625 980.573242188 c 0
 617.45630846 965.577667896 601.071927351 956.506980242 584.101780767 956.506980242 c 0
 578.424020283 956.506980242 572.680689567 957.522347514 567.138671875 959.670898438 c 0
 564.728515625 960.60546875 562.4296875 961.71875 560.255859375 962.990234375 c 0
 558.059570312 964.239257812 555.939453125 965.677734375 553.916992188 967.3046875 c 0
 542.261344643 976.678368847 536.183052453 990.745579339 536.183052453 1004.88264502 c 0
 536.183052453 1013.1545078 538.264040873 1021.45028647 542.526367188 1028.84375 c 0
 552.296875 1053.27832031 584.450195312 1130.92871094 628.756835938 1209.02929688 c 0
285.430664062 614.37109375 m 0
 330.9140625 691.791992188 382.084960938 758.462890625 398.361328125 779.141601562 c 0
 407.032441428 794.138603009 423.417493863 803.210198229 440.387643511 803.210198229 c 0
 446.065459882 803.210198229 451.808772945 802.19470974 457.350585938 800.045898438 c 0
 459.770507812 799.108398438 462.076171875 797.991210938 464.255859375 796.713867188 c 0
 466.444335938 795.466796875 468.557617188 794.033203125 470.572265625 792.413085938 c 0
 482.228618532 783.038221207 488.306941017 768.970425376 488.306941017 754.832985675 c 0
 488.306941017 746.562260129 486.226624459 738.267698845 481.965820312 730.875 c 0
 471.880859375 705.657226562 437.951171875 623.744140625 391.42578125 543.159179688 c 0
 379.652756348 522.767932651 357.870711052 511.290485991 335.646190887 511.290485991 c 0
 324.835097339 511.290485991 313.919299839 514.00642334 304 519.733398438 c 0
 283.608752963 531.50642334 272.131306303 553.288468636 272.131306303 575.512988801 c 0
 272.131306303 586.324082349 274.847243652 597.239879849 280.57421875 607.159179688 c 0
 282.043945312 609.704101562 283.66796875 612.109375 285.430664062 614.37109375 c 0
EndSplineSet
Validated: 1
EndChar

StartChar: parenleft
Encoding: 40 40 38
Width: 1024
VWidth: 0
Flags: HW
LayerCount: 2
Fore
SplineSet
758.387695312 1420.81640625 m 0
 764.78401014 1412.29550667 767.713228279 1402.42265939 767.713228279 1392.65543135 c 0
 767.713228279 1377.90104791 761.029001257 1363.3876786 749.514648438 1354.13964844 c 0
 743.737304688 1349.77148438 384 1073.44628906 384 624 c 0
 384 173.794921875 744.530273438 -102.375 749.498046875 -106.126953125 c 0
 761.718783321 -115.933540916 767.931659542 -130.052345491 767.931659542 -144.174335218 c 0
 767.931659542 -154.233676063 764.779269359 -164.294633043 758.400390625 -172.799804688 c 0
 749.137849094 -185.149860063 734.843951605 -191.903779083 720.10269099 -191.903779083 c 0
 710.440038362 -191.903779083 700.58517233 -189.00189985 691.829101562 -182.872070312 c 0
 687.891601562 -179.918945312 288 117.245117188 288 624 c 0
 288 1129.953125 687.015625 1427.25878906 691.811523438 1430.859375 c 0
 700.091449833 1436.66103763 710.053353903 1439.61525774 720.034689909 1439.61525774 c 0
 734.446788519 1439.61525774 748.899400014 1433.45611954 758.387695312 1420.81640625 c 0
EndSplineSet
Validated: 1
EndChar

StartChar: parenright
Encoding: 41 41 39
Width: 1024
VWidth: 0
Flags: HW
LayerCount: 2
Fore
SplineSet
265.612304688 1420.81640625 m 0
 275.100599986 1433.45611954 289.553211481 1439.61525774 303.965310091 1439.61525774 c 0
 313.946646097 1439.61525774 323.908550167 1436.66103763 332.188476562 1430.859375 c 0
 336.984375 1427.25878906 736 1129.953125 736 624 c 0
 736 117.245117188 336.108398438 -179.918945312 332.170898438 -182.872070312 c 0
 323.41482767 -189.00189985 313.559961638 -191.903779083 303.89730901 -191.903779083 c 0
 289.156048395 -191.903779083 274.862150906 -185.149860063 265.599609375 -172.799804688 c 0
 259.220730641 -164.294633043 256.068340458 -154.233676063 256.068340458 -144.174335218 c 0
 256.068340458 -130.052345491 262.281216679 -115.933540916 274.501953125 -106.126953125 c 0
 279.469726562 -102.375 640 173.794921875 640 624 c 0
 640 1073.44628906 280.262695312 1349.77148438 274.485351562 1354.13964844 c 0
 262.970998743 1363.3876786 256.286771721 1377.90104791 256.286771721 1392.65543135 c 0
 256.286771721 1402.42265939 259.21598986 1412.29550667 265.612304688 1420.81640625 c 0
EndSplineSet
Validated: 1
EndChar

StartChar: E
Encoding: 69 69 40
Width: 1024
VWidth: 0
Flags: HW
AnchorPoint: "top" 512 1272 basechar 0
LayerCount: 2
Fore
SplineSet
48 1200 m 0
 48 1226.14447171 69.8536339246 1248 96 1248 c 2
 864 1248 l 2
 893.054472683 1248 912 1220.60141632 912 1200 c 2
 912 864 l 2
 912 837.855528292 890.146366075 816 864 816 c 0
 837.853633925 816 816 837.855528292 816 864 c 2
 816 1152 l 1
 352 1152 l 1
 352 720 l 1
 560 720 l 1
 560 864 l 2
 560 890.146366075 581.855528292 912 608 912 c 0
 634.144471708 912 656 890.146366075 656 864 c 2
 656 480 l 2
 656 453.855528292 634.146366075 432 608 432 c 0
 581.853633925 432 560 453.855528292 560 480 c 2
 560 624 l 1
 352 624 l 1
 352 96 l 1
 832 96 l 1
 832 384 l 2
 832 410.144471708 853.853633925 432 880 432 c 0
 906.146366075 432 928 410.144471708 928 384 c 2
 928 48 l 2
 928 27.3985836813 909.054472683 -3.55802918541e-15 880 0 c 2
 96 0 l 2
 69.8536339246 0 48 21.8555282921 48 48 c 0
 48 74.1444717079 69.8536339246 96 96 96 c 2
 256 96 l 1
 256 1152 l 1
 96 1152 l 2
 69.8536339246 1152 48 1173.85552829 48 1200 c 0
EndSplineSet
Validated: 1
EndChar

StartChar: F
Encoding: 70 70 41
Width: 1024
VWidth: 0
Flags: HW
AnchorPoint: "top" 512 1272 basechar 0
LayerCount: 2
Fore
SplineSet
48 1200 m 0
 48 1226.14447171 69.8536339246 1248 96 1248 c 2
 880 1248 l 2
 909.0546875 1248 928 1220.6015625 928 1200 c 2
 928 864 l 2
 928 837.85546875 906.146484375 816 880 816 c 0
 853.853515625 816 832 837.85546875 832 864 c 2
 832 1152 l 1
 352 1152 l 1
 352 720 l 1
 560 720 l 1
 560 864 l 2
 560 890.146366075 581.855528292 912 608 912 c 0
 634.144471708 912 656 890.146366075 656 864 c 2
 656 480 l 2
 656 453.855528292 634.146366075 432 608 432 c 0
 581.853633925 432 560 453.855528292 560 480 c 2
 560 624 l 1
 352 624 l 1
 352 96 l 1
 512 96 l 2
 538.14453125 96 560 74.146484375 560 48 c 0
 560 21.853515625 538.14453125 0 512 0 c 2
 96 0 l 2
 69.853515625 0 48 21.85546875 48 48 c 0
 48 74.14453125 69.853515625 96 96 96 c 2
 256 96 l 1
 256 1152 l 1
 96 1152 l 2
 69.8536339246 1152 48 1173.85552829 48 1200 c 0
EndSplineSet
Validated: 1
EndChar

StartChar: K
Encoding: 75 75 42
Width: 1024
VWidth: 0
Flags: HW
AnchorPoint: "top" 512 1272 basechar 0
LayerCount: 2
Fore
SplineSet
47 48 m 0
 47 74.1444717079 68.8536339246 96 95 96 c 2
 208 96 l 1
 208 1152 l 1
 94 1152 l 2
 67.8536339246 1152 46 1173.85552829 46 1200 c 0
 46 1226.14447171 67.8536339246 1248 94 1248 c 2
 414 1248 l 2
 440.144471708 1248 462 1226.14636608 462 1200 c 0
 462 1173.85363392 440.144471708 1152 414 1152 c 2
 304 1152 l 1
 304 650.18728273 l 1
 697.864354447 1152 l 1
 590 1152 l 2
 563.853515625 1152 542 1173.85546875 542 1200 c 0
 542 1226.14453125 563.853515625 1248 590 1248 c 2
 910 1248 l 2
 936.14453125 1248 958 1226.14648438 958 1200 c 0
 958 1173.85351562 936.14453125 1152 910 1152 c 2
 819.903121595 1152 l 1
 488.539927245 729.818744978 l 1
 845.072551269 96 l 1
 942 96 l 2
 968.14453125 96 990 74.146484375 990 48 c 0
 990 21.853515625 968.14453125 0 942 0 c 2
 622 0 l 2
 595.853515625 0 574 21.85546875 574 48 c 0
 574 74.14453125 595.853515625 96 622 96 c 2
 734.927320748 96 l 1
 428.927320748 640 l 1
 424.382599694 648.077557283 l 1
 304 494.701208044 l 1
 304 96 l 1
 414 96 l 2
 440.144471708 96 462 74.1463660754 462 48 c 0
 462 21.8536339246 440.144471708 0 414 0 c 2
 95 0 l 2
 68.8536339246 0 47 21.8555282921 47 48 c 0
EndSplineSet
Validated: 1
EndChar

StartChar: L
Encoding: 76 76 43
Width: 1024
VWidth: 0
Flags: HW
AnchorPoint: "top" 512 1272 basechar 0
LayerCount: 2
Fore
SplineSet
48 48 m 0
 48 74.1444717079 69.8536339246 96 96 96 c 2
 256 96 l 1
 256 1152 l 1
 96 1152 l 2
 69.853515625 1152 48 1173.85546875 48 1200 c 0
 48 1226.14453125 69.853515625 1248 96 1248 c 2
 544 1248 l 2
 570.14453125 1248 592 1226.14648438 592 1200 c 0
 592 1173.85351562 570.14453125 1152 544 1152 c 2
 352 1152 l 1
 352 96 l 1
 832 96 l 1
 832 432 l 2
 832 458.14453125 853.853515625 480 880 480 c 0
 906.146484375 480 928 458.14453125 928 432 c 2
 928 48 l 2
 928 27.3985836813 909.054472683 -3.55802918541e-15 880 0 c 2
 96 0 l 2
 69.8536339246 0 48 21.8555282921 48 48 c 0
EndSplineSet
Validated: 1
EndChar

StartChar: X
Encoding: 88 88 44
Width: 1024
VWidth: 0
Flags: HW
AnchorPoint: "top" 512 1272 basechar 0
LayerCount: 2
Fore
SplineSet
31 48 m 0
 31 74.14453125 52.853515625 96 79 96 c 2
 182.408454242 96 l 1
 458.180023653 639.7749256 l 1
 198.408735921 1152 l 1
 94 1152 l 2
 67.8536339246 1152 46 1173.85552829 46 1200 c 0
 46 1226.14447171 67.8536339246 1248 94 1248 c 2
 414 1248 l 2
 440.144471708 1248 462 1226.14636608 462 1200 c 0
 462 1173.85363392 440.144471708 1152 414 1152 c 2
 306.048406936 1152 l 1
 511.99985916 745.898544909 l 1
 717.951311384 1152 l 1
 606 1152 l 2
 579.853633925 1152 558 1173.85552829 558 1200 c 0
 558 1226.14447171 579.853633925 1248 606 1248 c 2
 926 1248 l 2
 952.144471708 1248 974 1226.14636608 974 1200 c 0
 974 1173.85363392 952.144471708 1152 926 1152 c 2
 825.591545758 1152 l 1
 565.819976347 639.774370174 l 1
 841.591264077 96 l 1
 942 96 l 2
 968.14453125 96 990 74.146484375 990 48 c 0
 990 21.853515625 968.14453125 0 942 0 c 2
 622 0 l 2
 595.853515625 0 574 21.85546875 574 48 c 0
 574 74.14453125 595.853515625 96 622 96 c 2
 733.951593066 96 l 1
 512.00014084 533.650750866 l 1
 290.048688616 96 l 1
 398 96 l 2
 424.14453125 96 446 74.146484375 446 48 c 0
 446 21.853515625 424.14453125 0 398 0 c 2
 79 0 l 2
 52.853515625 0 31 21.85546875 31 48 c 0
EndSplineSet
Validated: 1
EndChar

StartChar: M
Encoding: 77 77 45
Width: 1024
VWidth: 0
Flags: HW
AnchorPoint: "top" 512 1272 basechar 0
LayerCount: 2
Fore
SplineSet
31 48 m 0
 31 74.14453125 52.853515625 96 79 96 c 2
 160 96 l 1
 160 1152 l 1
 80 1152 l 2
 53.8536339246 1152 32 1173.85552829 32 1200 c 0
 32 1226.14447171 53.8536339246 1248 80 1248 c 2
 272 1248 l 2
 293.355471776 1248 312.054735973 1232.75016918 317.815038946 1214.31719967 c 2
 512 592.925324297 l 1
 706.184961054 1214.31719967 l 2
 712.554764252 1234.7005699 732.687945336 1248 752 1248 c 2
 944 1248 l 2
 970.144471708 1248 992 1226.14636608 992 1200 c 0
 992 1173.85363392 970.144471708 1152 944 1152 c 2
 864 1152 l 1
 864 96 l 1
 942 96 l 2
 968.14453125 96 990 74.146484375 990 48 c 0
 990 21.853515625 968.14453125 0 942 0 c 2
 655 0 l 2
 628.853515625 0 607 21.85546875 607 48 c 0
 607 74.14453125 628.853515625 96 655 96 c 2
 768 96 l 1
 768 1090.2746757 l 1
 557.815038946 417.682800329 l 2
 554.077953775 405.724127782 543.501440985 392.917512663 529.867581212 387.449472039 c 0
 524.168138094 385.163634644 518.258863268 384.088365066 512.424745082 384.088365066 c 0
 492.045386931 384.088365066 472.583089129 397.20879049 466.184961054 417.682800329 c 2
 256 1090.2746757 l 1
 256 96 l 1
 366 96 l 2
 392.14453125 96 414 74.146484375 414 48 c 0
 414 21.853515625 392.14453125 0 366 0 c 2
 79 0 l 2
 52.853515625 0 31 21.85546875 31 48 c 0
EndSplineSet
Validated: 1
EndChar

StartChar: N
Encoding: 78 78 46
Width: 1024
VWidth: 0
Flags: HW
AnchorPoint: "top" 512 1272 basechar 0
LayerCount: 2
Fore
SplineSet
48 48 m 0
 48 74.1444717079 69.8536339246 96 96 96 c 2
 208 96 l 1
 208 1152 l 1
 96 1152 l 2
 69.8555282921 1152 48 1173.85363392 48 1200 c 0
 48 1226.14636608 69.8555282921 1248 96 1248 c 2
 304 1248 l 2
 322.116170691 1248 341.106862879 1236.34854482 348.524106017 1217.93332048 c 2
 720 295.648342314 l 1
 720 1152 l 1
 608 1152 l 2
 581.855528292 1152 560 1173.85363392 560 1200 c 0
 560 1226.14636608 581.855528292 1248 608 1248 c 2
 928 1248 l 2
 954.146366075 1248 976 1226.14447171 976 1200 c 0
 976 1173.85552829 954.146366075 1152 928 1152 c 2
 816 1152 l 1
 816 48 l 2
 816 21.6451520917 793.865582227 0.00333621142985 767.910164833 0.00333621142985 c 0
 766.692574925 0.00333621142985 765.46657643 0.0509617327729 764.234059899 0.147960386691 c 0
 744.682227105 1.68668332862 728.439833115 17.7424168493 723.475893983 30.066679521 c 2
 304 1071.52407148 l 1
 304 96 l 1
 416 96 l 2
 442.144471708 96 464 74.1463660754 464 48 c 0
 464 21.8536339246 442.144471708 0 416 0 c 2
 96 0 l 2
 69.8536339246 0 48 21.8555282921 48 48 c 0
EndSplineSet
Validated: 1
EndChar

StartChar: W
Encoding: 87 87 47
Width: 1024
VWidth: 0
Flags: HW
AnchorPoint: "top" 512 1272 basechar 0
LayerCount: 2
Fore
SplineSet
31 1200 m 0
 31 1226.14453125 52.853515625 1248 79 1248 c 2
 366 1248 l 2
 392.14453125 1248 414 1226.14648438 414 1200 c 0
 414 1173.85351562 392.14453125 1152 366 1152 c 2
 241.878931915 1152 l 1
 297.905377998 157.530582021 l 1
 465.433159993 827.641710002 l 2
 470.86825834 849.382103389 491.002429396 863.935299495 512.389098729 863.935299495 c 0
 517.334286497 863.935299495 522.34644058 863.157195501 527.259322882 861.509922711 c 0
 543.006606682 856.22991181 554.94449982 842.131070751 558.566840007 827.641710002 c 2
 726.094622002 157.530582021 l 1
 782.121068085 1152 l 1
 655 1152 l 2
 628.853515625 1152 607 1173.85546875 607 1200 c 0
 607 1226.14453125 628.853515625 1248 655 1248 c 2
 942 1248 l 2
 968.14453125 1248 990 1226.14648438 990 1200 c 0
 990 1173.85351562 968.14453125 1152 942 1152 c 2
 878.273298112 1152 l 1
 815.924005494 45.3000560285 l 2
 814.642881202 22.5600998569 794.326269372 0 768 0 c 2
 740 0 l 1
 704 0 l 2
 684.49112936 0 662.951519727 14.284851061 657.433159993 36.3582899983 c 2
 512 618.09092997 l 1
 366.566840007 36.3582899983 l 2
 361.835243872 17.4319054602 342.752780065 0 320 0 c 2
 283 0 l 1
 256 0 l 2
 233.22398441 0 209.556816429 19.0154669038 208.075994506 45.3000560285 c 2
 145.726701888 1152 l 1
 79 1152 l 2
 52.853515625 1152 31 1173.85546875 31 1200 c 0
EndSplineSet
Validated: 1
EndChar

StartChar: Z
Encoding: 90 90 48
Width: 1024
VWidth: 0
Flags: HW
AnchorPoint: "top" 512 1272 basechar 0
LayerCount: 2
Fore
SplineSet
160 816 m 0
 133.855528292 816 112 837.853633925 112 864 c 2
 112 1200 l 2
 112 1229.05447268 139.398583681 1248 160 1248 c 2
 864 1248 l 2
 890.354847908 1248 911.996663788 1225.86558223 911.996663788 1199.91016483 c 0
 911.996663788 1190.42088032 906.702675195 1177.68414818 904.449420471 1174.1573147 c 2
 215.626691635 96 l 1
 848 96 l 1
 848 432 l 2
 848 458.144471708 869.853633925 480 896 480 c 0
 922.146366075 480 944 458.144471708 944 432 c 2
 944 48 l 2
 944 27.3985836813 925.054472683 0 896 0 c 2
 128 0 l 2
 121.439361805 0 112.336238768 1.95374428384 105.410518623 5.64772342475 c 0
 89.2843905917 14.2489344647 80.167722399 31.1757627204 80.167722399 48.3822124785 c 0
 80.167722399 57.1514407426 82.5356932779 65.9932981252 87.550579529 73.8426853009 c 2
 776.373308365 1152 l 1
 208 1152 l 1
 208 864 l 2
 208 837.853633925 186.144471708 816 160 816 c 0
EndSplineSet
Validated: 1
EndChar

StartChar: A
Encoding: 65 65 49
Width: 1024
VWidth: 0
Flags: HW
AnchorPoint: "top" 512 1272 basechar 0
LayerCount: 2
Fore
SplineSet
1008 48 m 0
 1008 21.8555282921 986.146366075 0 960 0 c 2
 640 0 l 2
 613.855528292 0 592 21.8536339246 592 48 c 0
 592 74.1463660754 613.855528292 96 640 96 c 2
 758.981285187 96 l 1
 667.037623215 480 l 1
 356.962376785 480 l 1
 265.018714813 96 l 1
 384 96 l 2
 410.144471708 96 432 74.1463660754 432 48 c 0
 432 21.8536339246 410.144471708 0 384 0 c 2
 64 0 l 2
 37.8536339246 0 16 21.8555282921 16 48 c 0
 16 74.1444717079 37.8536339246 96 64 96 c 2
 166.305228849 96 l 1
 433.319448148 1211.17703354 l 2
 438.009309586 1230.7641019 457.261860065 1248 480 1248 c 2
 512 1248 l 1
 544 1248 l 2
 564.140706223 1248 585.385865337 1233.29013605 590.680551852 1211.17703354 c 2
 857.694771151 96 l 1
 960 96 l 2
 986.146366075 96 1008 74.1444717079 1008 48 c 0
644.051707723 576 m 1
 512 1127.51007343 l 1
 379.948292277 576 l 1
 644.051707723 576 l 1
EndSplineSet
Validated: 1
EndChar

StartChar: T
Encoding: 84 84 50
Width: 1024
VWidth: 0
Flags: HW
AnchorPoint: "top" 512 1272 basechar 0
LayerCount: 2
Fore
SplineSet
224 48 m 0
 224 74.14453125 245.853515625 96 272 96 c 2
 464 96 l 1
 464 1152 l 1
 192 1152 l 1
 192 816 l 2
 192 789.853633925 170.144471708 768 144 768 c 0
 117.855528292 768 96 789.853633925 96 816 c 2
 96 1200 l 2
 96 1229.05447268 123.398583681 1248 144 1248 c 2
 880 1248 l 2
 909.054472683 1248 928 1220.60141632 928 1200 c 2
 928 816 l 2
 928 789.855528292 906.146366075 768 880 768 c 0
 853.853633925 768 832 789.855528292 832 816 c 2
 832 1152 l 1
 560 1152 l 1
 560 96 l 1
 752 96 l 2
 778.14453125 96 800 74.146484375 800 48 c 0
 800 21.853515625 778.14453125 0 752 0 c 2
 272 0 l 2
 245.853515625 0 224 21.85546875 224 48 c 0
EndSplineSet
Validated: 1
EndChar

StartChar: bracketleft
Encoding: 91 91 51
Width: 1024
VWidth: 0
Flags: HW
LayerCount: 2
Fore
SplineSet
768 -144 m 0
 768 -170.144471708 746.146366075 -192 720 -192 c 2
 336 -192 l 2
 306.945527317 -192 288 -164.601416319 288 -144 c 2
 288 1392 l 2
 288 1421.05447268 315.398583681 1440 336 1440 c 2
 720 1440 l 2
 746.144471708 1440 768 1418.14636608 768 1392 c 0
 768 1365.85363392 746.144471708 1344 720 1344 c 2
 384 1344 l 1
 384 -96 l 1
 720 -96 l 2
 746.146366075 -96 768 -117.855528292 768 -144 c 0
EndSplineSet
Validated: 1
EndChar

StartChar: bracketright
Encoding: 93 93 52
Width: 1024
VWidth: 0
Flags: HW
LayerCount: 2
Fore
SplineSet
256 -144 m 0
 256 -117.85546875 277.853515625 -96 304 -96 c 2
 640 -96 l 1
 640 1344 l 1
 304 1344 l 2
 277.85546875 1344 256 1365.85351562 256 1392 c 0
 256 1418.14648438 277.85546875 1440 304 1440 c 2
 688 1440 l 2
 708.6015625 1440 736 1421.0546875 736 1392 c 2
 736 -144 l 2
 736 -164.6015625 717.0546875 -192 688 -192 c 2
 304 -192 l 2
 277.853515625 -192 256 -170.14453125 256 -144 c 0
EndSplineSet
Validated: 1
EndChar

StartChar: numbersign
Encoding: 35 35 53
Width: 1024
VWidth: 0
Flags: HW
LayerCount: 2
Fore
SplineSet
96 480 m 0
 96 506.14453125 117.853515625 528 144 528 c 2
 319.337899758 528 l 1
 351.337899758 720 l 1
 144 720 l 2
 117.853515625 720 96 741.85546875 96 768 c 0
 96 794.14453125 117.853515625 816 144 816 c 2
 367.337899758 816 l 1
 464.653091656 1399.89115139 l 2
 468.522429217 1423.10717676 489.290188546 1439.98296687 512.211637021 1439.98296687 c 0
 514.751715655 1439.98296687 517.318242312 1439.77572652 519.891151391 1439.34690834 c 0
 543.108784263 1435.47730287 559.982941562 1414.70837475 559.982941562 1391.78812254 c 0
 559.982941562 1389.24809459 559.7757079 1386.68164595 559.346908344 1384.10884861 c 2
 464.662100242 816 l 1
 623.337899758 816 l 1
 720.653091656 1399.89115139 l 2
 724.522697134 1423.10878426 745.291625239 1439.98294156 768.211877445 1439.98294156 c 0
 770.751905406 1439.98294156 773.318354051 1439.7757079 775.891151391 1439.34690834 c 0
 799.107176763 1435.47757078 815.982966874 1414.70981145 815.982966874 1391.78836297 c 0
 815.982966874 1389.24828434 815.775726523 1386.68175769 815.346908344 1384.10884861 c 2
 720.662100242 816 l 1
 880 816 l 2
 906.14453125 816 928 794.146484375 928 768 c 0
 928 741.853515625 906.14453125 720 880 720 c 2
 704.662100242 720 l 1
 672.662100242 528 l 1
 880 528 l 2
 906.14453125 528 928 506.146484375 928 480 c 0
 928 453.853515625 906.14453125 432 880 432 c 2
 656.662100242 432 l 1
 559.346908344 -151.891151391 l 2
 555.477570782 -175.107176763 534.709811448 -191.982966874 511.78836297 -191.982966874 c 0
 509.248284339 -191.982966874 506.681757684 -191.775726523 504.108848609 -191.346908344 c 0
 480.891215737 -187.477302865 464.017058438 -166.708374754 464.017058438 -143.788122544 c 0
 464.017058438 -141.248094586 464.2242921 -138.681645945 464.653091656 -136.108848609 c 2
 559.337899758 432 l 1
 400.662100242 432 l 1
 303.346908344 -151.891151391 l 2
 299.477302865 -175.108784263 278.708374754 -191.982941562 255.788122544 -191.982941562 c 0
 253.248094586 -191.982941562 250.681645945 -191.7757079 248.108848609 -191.346908344 c 0
 224.892823237 -187.477570782 208.017033126 -166.709811448 208.017033126 -143.78836297 c 0
 208.017033126 -141.248284339 208.224273477 -138.681757684 208.653091656 -136.108848609 c 2
 303.337899758 432 l 1
 144 432 l 2
 117.853515625 432 96 453.85546875 96 480 c 0
448.662100242 720 m 1
 416.662100242 528 l 1
 575.337899758 528 l 1
 607.337899758 720 l 1
 448.662100242 720 l 1
EndSplineSet
Validated: 1
EndChar

StartChar: percent
Encoding: 37 37 54
Width: 1024
VWidth: 0
Flags: HW
LayerCount: 2
Fore
SplineSet
106.533747416 -186.932505168 m 0
 89.8715016746 -178.601382297 80.1189050886 -161.320105594 80.1189050886 -143.612920117 c 0
 80.1189050886 -136.469277496 81.7062109746 -129.256315131 85.067494832 -122.533747416 c 2
 777.492704896 1262.31667271 l 1
 703.170243958 1225.38030797 603.832804213 1187.41005343 485.519501683 1169.14659279 c 1
 501.732804325 1139.75787712 509.377305766 1105.46118382 509.377305766 1069.84938808 c 0
 509.377305766 1022.03854075 495.598413615 971.857276612 470.27734375 928 c 0
 425.474775427 850.399857417 345.458550073 794.19414464 265.743152591 794.19414464 c 0
 237.957564721 794.19414464 210.208525626 801.0228002 184 816.154296875 c 0
 125.096224259 850.162401698 98.622694233 911.879353479 98.622694233 978.150611915 c 0
 98.622694233 1025.96145925 112.401586385 1076.14272339 137.72265625 1120 c 0
 181.522395951 1195.86319653 258.977040538 1251.27899962 336.903916315 1253.72176684 c 0
 338.557318122 1253.90310258 340.233800534 1253.99742637 341.928619608 1253.99994693 c 0
 650.13248033 1254.45827478 862.659028619 1426.73671781 866.111837311 1429.56502421 c 0
 875.862274596 1437.1068364 887.363202898 1440.39988535 898.525132311 1439.83358137 c 0
 904.964030143 1439.54697278 911.413886164 1437.95868823 917.466252584 1434.93250517 c 0
 919.427541909 1433.95186051 921.293079978 1432.84722666 923.058235696 1431.63250408 c 0
 926.708900068 1429.1529918 930.0596871 1426.13246011 932.986560066 1422.59402514 c 0
 941.428599275 1412.38804575 944.998811567 1399.54566263 943.663956222 1387.05221675 c 0
 943.125839893 1381.42406803 941.579038734 1375.82681478 938.932505168 1370.53374742 c 2
 170.932505168 -165.466252584 l 2
 162.600922015 -182.12941889 145.319493053 -191.881023279 127.612942696 -191.881023279 c 0
 120.46912868 -191.881023279 113.256114787 -190.293688853 106.533747416 -186.932505168 c 0
220.861328125 1072 m 0
 202.368102176 1039.96897985 194.882054772 1008.86726759 194.882054772 981.84717173 c 0
 194.882054772 942.269667444 210.943166789 911.449160617 232 899.291992188 c 0
 240.754445055 894.237610935 251.870870318 891.544077218 264.335177254 891.544077218 c 0
 302.318730053 891.544077218 352.819467722 916.557741373 387.138671875 976 c 0
 405.631897824 1008.03102015 413.117945228 1039.13273241 413.117945228 1066.15282827 c 0
 413.117945228 1105.73033256 397.056833211 1136.55083938 376 1148.70800781 c 0
 367.245554945 1153.76238906 356.129129681 1156.45592278 343.664822744 1156.45592278 c 0
 305.681269945 1156.45592278 255.180532278 1131.44225863 220.861328125 1072 c 0
553.72265625 320 m 0
 598.525224573 397.600142583 678.541449927 453.80585536 758.256847409 453.80585536 c 0
 786.042435279 453.80585536 813.791474374 446.9771998 840 431.845703125 c 0
 898.903775741 397.837598302 925.377305767 336.120646521 925.377305767 269.849388085 c 0
 925.377305767 222.038540747 911.598413615 171.857276613 886.27734375 128 c 0
 841.474775427 50.3998574166 761.458550073 -5.80585536034 681.743152591 -5.80585536034 c 0
 653.957564721 -5.80585536034 626.208525626 1.0228002003 600 16.154296875 c 0
 541.096224259 50.1624016984 514.622694233 111.879353479 514.622694233 178.150611915 c 0
 514.622694233 225.961459253 528.401586385 276.142723387 553.72265625 320 c 0
636.861328125 272 m 0
 618.368102176 239.968979852 610.882054772 208.867267595 610.882054772 181.84717173 c 0
 610.882054772 142.269667444 626.943166789 111.449160617 648 99.2919921875 c 0
 656.754445055 94.2376109346 667.870870317 91.5440772172 680.335177253 91.5440772172 c 0
 718.318730053 91.5440772172 768.819467722 116.557741373 803.138671875 176 c 0
 821.631897824 208.031020148 829.117945228 239.132732405 829.117945228 266.15282827 c 0
 829.117945228 305.730332556 813.056833211 336.550839383 792 348.708007812 c 0
 783.245554945 353.762389065 772.129129682 356.455922782 759.664822746 356.455922782 c 0
 721.681269947 356.455922782 671.180532278 331.442258627 636.861328125 272 c 0
EndSplineSet
Validated: 1
EndChar

StartChar: three
Encoding: 51 51 55
Width: 1024
VWidth: 0
Flags: HW
LayerCount: 2
Fore
SplineSet
209.078626198 193.516176973 m 1
 248.882473682 136.984056135 356.402034636 80 512 80 c 0
 694.28505262 80 832 207.231880583 832 352 c 0
 832 496.768192874 694.285109543 624 512 624 c 2
 416 624 l 2
 389.85546875 624 368 645.853515625 368 672 c 0
 368 698.146484375 389.85546875 720 416 720 c 2
 512 720 l 2
 663.116449403 720 776 826.13403844 776 944 c 0
 776 1061.86585313 663.116383555 1168 512 1168 c 0
 387.202654859 1168 304.643253898 1127.42252814 268.639481813 1085.77371195 c 1
 311.727708763 1076.32522899 344 1037.9152065 344 992 c 0
 344 939 301 896 248 896 c 0
 195 896 152 939 152 992 c 2
 152 1040 l 2
 152 1187.2734375 333.217773438 1264 512 1264 c 0
 704.883616445 1264 872 1126.13414687 872 944 c 0
 872 829.464898405 805.913283259 732.435744715 708.890735649 676.188546949 c 1
 837.711335916 615.053217631 928 495.374360122 928 352 c 0
 928 142.768119417 735.71494738 -16 512 -16 c 0
 305.530273438 -16 96 76.294921875 96 240 c 2
 96 288 l 2
 96 341 139 384 192 384 c 0
 245 384 288 341 288 288 c 0
 288 240.828439899 253.937446941 201.578403764 209.078626198 193.516176973 c 1
EndSplineSet
Validated: 1
EndChar

StartChar: four
Encoding: 52 52 56
Width: 1024
VWidth: 0
Flags: HW
LayerCount: 2
Fore
SplineSet
336 48 m 0
 336 74 358 96 384 96 c 2
 608 96 l 1
 608 432 l 1
 112 432 l 2
 105.281269963 432 93.9128913433 434.59579328 86.1579276867 439.550187905 c 0
 71.9039559909 448.656587866 64.194519858 464.401044016 64.194519858 480.294280608 c 0
 64.194519858 490.32623295 67.2661494193 500.417463091 73.7023684517 508.935988281 c 2
 617.702368452 1228.93598828 l 2
 624.640639678 1238.11899432 638.247321339 1246.75128779 652.234059899 1247.85203961 c 0
 653.466576431 1247.94903826 654.692574927 1247.99666379 655.910164836 1247.99666379 c 0
 681.865582229 1247.99666379 704 1226.35484791 704 1200 c 2
 704 528 l 1
 944 528 l 2
 970.144471708 528 992 506.146366075 992 480 c 0
 992 453.853633925 970.144471708 432 944 432 c 2
 704 432 l 1
 704 96 l 1
 928 96 l 2
 954 96 976 74 976 48 c 0
 976 22 954 0 928 0 c 2
 384 0 l 2
 358 0 336 22 336 48 c 0
608 528 m 1
 608 1056.8465582 l 1
 208.427044916 528 l 1
 608 528 l 1
EndSplineSet
Validated: 1
EndChar

StartChar: seven
Encoding: 55 55 57
Width: 1024
VWidth: 0
Flags: HW
LayerCount: 2
Fore
SplineSet
384 0 m 0
 357.855528292 0 336 21.8536339246 336 48 c 0
 336 583.071979196 583.896669955 693.590499617 733.379118753 849.247474817 c 0
 777.431639687 895.119743441 813.899763403 985.038461571 833.176317243 1074.1700202 c 1
 791.004515274 1046.57858205 736.725115409 1024 672 1024 c 0
 493.491095441 1024 475.506810978 1168 384 1168 c 0
 295.065486939 1168 192 1035.37256043 192 816 c 0
 192 789.853515625 170.14453125 768 144 768 c 0
 117.85546875 768 96 789.853515625 96 816 c 2
 96 1200 l 2
 96 1226.14453125 117.853515625 1248 144 1248 c 0
 170.146484375 1248 192 1226.14453125 192 1200 c 2
 192 1156.73202099 l 1
 240.057816787 1222.58584304 304.967134402 1264 384 1264 c 0
 562.493189022 1264 580.508904559 1120 672 1120 c 0
 774.400988398 1120 852.83779658 1222.12519083 857.238712889 1228.31649123 c 0
 862.197513371 1234.95488024 868.481646049 1239.9522898 875.418366158 1243.23847843 c 0
 881.684298768 1246.28400039 888.673626703 1247.99999851 896 1248 c 0
 899.908801664 1248 903.721663622 1247.51154349 907.379911881 1246.5933221 c 0
 913.016928665 1245.24254396 918.472580588 1242.84662835 923.452220222 1239.37480927 c 0
 932.441033156 1233.10778533 938.699689783 1224.20985244 941.757730726 1214.30481748 c 0
 943.212537801 1209.77119468 944.000000038 1204.9628701 944 1200 c 0
 944 1065.00562281 896.859857628 880.884381155 802.620881247 782.752525183 c 0
 633.927548795 607.091141008 432 547.65161446 432 48 c 0
 432 21.8536339246 410.144471708 0 384 0 c 0
EndSplineSet
Validated: 1
EndChar

StartChar: B
Encoding: 66 66 58
Width: 1024
VWidth: 0
Flags: HW
AnchorPoint: "top" 512 1272 basechar 0
LayerCount: 2
Fore
SplineSet
48 1200 m 0
 48 1226.14447171 69.8536339246 1248 96 1248 c 2
 568 1248 l 2
 740.041992188 1248 880 1108.04296875 880 936 c 0
 880 827.616839411 824.454431151 731.967038105 740.333677326 676.021712447 c 1
 852.074556278 614.854729079 928 496.144155433 928 360 c 0
 928 161.462890625 766.537109375 0 568 0 c 2
 96 0 l 2
 69.853515625 0 48 21.85546875 48 48 c 0
 48 74.14453125 69.853515625 96 96 96 c 2
 256 96 l 1
 256 1152 l 1
 96 1152 l 2
 69.8536339246 1152 48 1173.85552829 48 1200 c 0
352 1152 m 1
 352 720 l 1
 568 720 l 2
 686.95703125 720 784 817.041992188 784 936 c 0
 784 1054.95703125 686.958007812 1152 568 1152 c 2
 352 1152 l 1
352 96 m 1
 568 96 l 2
 713.462890625 96 832 214.537109375 832 360 c 0
 832 505.462890625 713.462890625 624 568 624 c 2
 352 624 l 1
 352 96 l 1
EndSplineSet
Validated: 1
EndChar

StartChar: o
Encoding: 111 111 59
Width: 1024
VWidth: 0
Flags: HW
AnchorPoint: "top" 512 912 basechar 0
LayerCount: 2
Fore
SplineSet
192 432 m 4
 192 234.104941184 338.897683122 80 512 80 c 4
 685.102339826 80 832 234.104927161 832 432 c 4
 832 629.895058816 685.102316878 784 512 784 c 4
 338.897660174 784 192 629.895072839 192 432 c 4
96 432 m 4
 96 676.104927161 279.102339826 880 512 880 c 4
 744.897683122 880 928 676.104941184 928 432 c 4
 928 187.895072839 744.897660174 -16 512 -16 c 4
 279.102316878 -16 96 187.895058816 96 432 c 4
EndSplineSet
Validated: 1
EndChar

StartChar: v
Encoding: 118 118 60
Width: 1024
VWidth: 0
Flags: HW
AnchorPoint: "top" 512 912 basechar 0
LayerCount: 2
Fore
SplineSet
16 816 m 0
 16 842.14453125 37.853515625 864 64 864 c 2
 384 864 l 2
 410.14453125 864 432 842.146484375 432 816 c 0
 432 789.853515625 410.14453125 768 384 768 c 2
 270.617868254 768 l 1
 512 100.649400466 l 1
 753.382131746 768 l 1
 640 768 l 2
 613.85546875 768 592 789.853515625 592 816 c 0
 592 842.146484375 613.85546875 864 640 864 c 2
 960 864 l 2
 986.146484375 864 1008 842.14453125 1008 816 c 0
 1008 789.85546875 986.146484375 768 960 768 c 2
 855.468932083 768 l 1
 589.138058836 31.6734680806 l 2
 583.419084181 15.8621852115 565.226278461 0 544 0 c 2
 512 0 l 1
 480 0 l 2
 463.186215861 0 442.081764348 11.7127804551 434.861941164 31.6734680806 c 2
 168.531067917 768 l 1
 64 768 l 2
 37.853515625 768 16 789.85546875 16 816 c 0
EndSplineSet
Validated: 1
EndChar

StartChar: z
Encoding: 122 122 61
Width: 1024
VWidth: 0
Flags: HW
AnchorPoint: "top" 512 912 basechar 0
LayerCount: 2
Fore
SplineSet
896 352 m 0
 922.144471708 352 944 330.146366075 944 304 c 2
 944 48 l 2
 944 18.9455273174 916.601416319 0 896 0 c 2
 128 0 l 2
 101.645152092 0 80.0033362114 22.1344177732 80.0033362114 48.0898351674 c 0
 80.0033362114 61.5011613277 86.1030031246 73.655043839 93.3445661545 81.2114574353 c 2
 751.516919446 768 l 1
 208 768 l 1
 208 592 l 2
 208 565.855528292 186.146366075 544 160 544 c 0
 133.853633925 544 112 565.855528292 112 592 c 2
 112 816 l 2
 112 836.601416319 130.945527317 864 160 864 c 2
 864 864 l 2
 874.978028995 864 885.863206709 860.128817823 894.390118516 853.154282345 c 0
 905.894097964 843.744672557 911.781390332 829.835503416 911.781390332 815.891003198 c 0
 911.781390332 803.947849233 907.462742814 791.97877801 898.655433846 782.788542565 c 2
 240.483080554 96 l 1
 848 96 l 1
 848 304 l 2
 848 330.146366075 869.855528292 352 896 352 c 0
EndSplineSet
Validated: 1
EndChar

StartChar: x
Encoding: 120 120 62
Width: 1024
VWidth: 0
Flags: HW
AnchorPoint: "top" 512 912 basechar 0
LayerCount: 2
Fore
SplineSet
31 48 m 0
 31 74.14453125 52.853515625 96 79 96 c 2
 172.138551055 96 l 1
 450.39942062 441.945945946 l 1
 188.138551055 768 l 1
 94 768 l 2
 67.853515625 768 46 789.85546875 46 816 c 0
 46 842.14453125 67.853515625 864 94 864 c 2
 414 864 l 2
 440.14453125 864 462 842.146484375 462 816 c 0
 462 789.853515625 440.14453125 768 414 768 c 2
 311.339709815 768 l 1
 512 518.53045004 l 1
 712.660290185 768 l 1
 606 768 l 2
 579.853515625 768 558 789.85546875 558 816 c 0
 558 842.14453125 579.853515625 864 606 864 c 2
 926 864 l 2
 952.14453125 864 974 842.146484375 974 816 c 0
 974 789.853515625 952.14453125 768 926 768 c 2
 835.861448945 768 l 1
 573.60057938 441.945945946 l 1
 851.861448945 96 l 1
 942 96 l 2
 968.14453125 96 990 74.146484375 990 48 c 0
 990 21.853515625 968.14453125 0 942 0 c 2
 622 0 l 2
 595.853515625 0 574 21.85546875 574 48 c 0
 574 74.14453125 595.853515625 96 622 96 c 2
 728.660290185 96 l 1
 512 365.361441852 l 1
 295.339709815 96 l 1
 398 96 l 2
 424.14453125 96 446 74.146484375 446 48 c 0
 446 21.853515625 424.14453125 0 398 0 c 2
 79 0 l 2
 52.853515625 0 31 21.85546875 31 48 c 0
EndSplineSet
Validated: 1
EndChar

StartChar: w
Encoding: 119 119 63
Width: 1024
VWidth: 0
Flags: HW
AnchorPoint: "top" 512 912 basechar 0
LayerCount: 2
Fore
SplineSet
31 816 m 0
 31 842.14453125 52.853515625 864 79 864 c 2
 366 864 l 2
 392.14453125 864 414 842.146484375 414 816 c 0
 414 789.853515625 392.14453125 768 366 768 c 2
 242.89692493 768 l 1
 297.618599399 125.020324988 l 1
 467.056199477 576.853925196 l 2
 474.259216475 596.061970523 493.01655577 607.887424513 512.43806183 607.887424513 c 0
 519.138078626 607.887424513 525.917138368 606.480069073 532.328132434 603.482951047 c 0
 543.74109405 598.147430122 552.838439445 587.801554738 556.943800523 576.853925196 c 2
 726.381400601 125.020324988 l 1
 781.10307507 768 l 1
 655 768 l 2
 628.853515625 768 607 789.85546875 607 816 c 0
 607 842.14453125 628.853515625 864 655 864 c 2
 942 864 l 2
 968.14453125 864 990 842.146484375 990 816 c 0
 990 789.853515625 968.14453125 768 942 768 c 2
 877.450116419 768 l 1
 815.827104346 43.9296081408 l 2
 813.795187509 20.0545853083 792.933318667 0 768 0 c 2
 742 0 l 1
 704 0 l 2
 684.594583957 0 666.058417469 12.4734934906 659.056199477 31.1460748038 c 2
 512 423.295940075 l 1
 364.943800523 31.1460748038 l 2
 358.130104057 12.9762175601 339.942325584 0 320 0 c 2
 281 0 l 1
 256 0 l 2
 232.038668625 0 210.287236848 19.0860991081 208.172895654 43.9296081408 c 2
 146.549883581 768 l 1
 79 768 l 2
 52.853515625 768 31 789.85546875 31 816 c 0
EndSplineSet
Validated: 1
EndChar

StartChar: l
Encoding: 108 108 64
Width: 1024
VWidth: 0
Flags: HW
AnchorPoint: "top" 512 1272 basechar 0
LayerCount: 2
Fore
SplineSet
160 48 m 0
 160 74.14453125 181.853515625 96 208 96 c 2
 464 96 l 1
 464 1152 l 1
 208 1152 l 2
 181.853633925 1152 160 1173.85552829 160 1200 c 0
 160 1226.14447171 181.853633925 1248 208 1248 c 2
 512 1248 l 2
 541.054472683 1248 560 1220.60141632 560 1200 c 2
 560 96 l 1
 816 96 l 2
 842.14453125 96 864 74.146484375 864 48 c 0
 864 21.853515625 842.14453125 -3.20167590865e-15 816 0 c 2
 208 0 l 2
 181.853515625 0 160 21.85546875 160 48 c 0
EndSplineSet
Validated: 1
EndChar

StartChar: h
Encoding: 104 104 65
Width: 1024
VWidth: 0
Flags: HW
AnchorPoint: "top" 512 1272 basechar 0
LayerCount: 2
Fore
SplineSet
47 48 m 0
 47 74.1444717079 68.8536339246 96 95 96 c 2
 208 96 l 1
 208 511.99999944 l 1
 208 512 l 1
 208 1152 l 1
 96 1152 l 2
 69.8536339246 1152 48 1173.85552829 48 1200 c 0
 48 1226.14447171 69.8536339246 1248 96 1248 c 2
 256 1248 l 2
 285.054472683 1248 304 1220.60141632 304 1200 c 2
 304 760.056801334 l 1
 371.264282466 833.787653087 468.162218733 880 576 880 c 0
 708.509612655 880 816 772.509840284 816 640 c 2
 816 96 l 1
 926 96 l 2
 952.144471708 96 974 74.1463660754 974 48 c 0
 974 21.8536339246 952.144471708 0 926 0 c 2
 606 0 l 2
 579.853633925 0 558 21.8555282921 558 48 c 0
 558 74.1444717079 579.853633925 96 606 96 c 2
 720 96 l 1
 720 640 l 2
 720 719.490159716 655.490387345 784 576 784 c 0
 425.474108993 784 304 662.525965507 304 512 c 2
 304 96 l 1
 414 96 l 2
 440.144471708 96 462 74.1463660754 462 48 c 0
 462 21.8536339246 440.144471708 0 414 0 c 2
 95 0 l 2
 68.8536339246 0 47 21.8555282921 47 48 c 0
EndSplineSet
Validated: 1
EndChar

StartChar: e
Encoding: 101 101 66
Width: 1024
VWidth: 0
Flags: HW
AnchorPoint: "top" 512 912 basechar 0
LayerCount: 2
Fore
SplineSet
880 304 m 0
 906.144471708 304 928 282.146366075 928 256 c 0
 928 85.9653828239 721.311337432 -16 512 -16 c 0
 279.102316878 -16 96 187.895058816 96 432 c 0
 96 676.104927161 279.102339826 880 512 880 c 0
 739.71875 880 928 702.342773438 928 480 c 0
 928 453.853515625 906.14453125 432 880 432 c 2
 192 432 l 1
 192 234.104941184 338.897683122 80 512 80 c 0
 708.688662568 80 832 178.034617176 832 256 c 0
 832 282.146366075 853.855528292 304 880 304 c 0
203.99168124 528 m 1
 827.984062122 528 l 1
 803.757440078 671.542105551 672.739423145 784 512 784 c 0
 368.136480189 784 242.372783954 677.558248724 203.99168124 528 c 1
EndSplineSet
Validated: 1
EndChar

StartChar: grave
Encoding: 96 96 67
Width: 1024
VWidth: 0
Flags: HW
LayerCount: 2
Fore
SplineSet
286.058874503 1233.9411255 m 4
 295.302508554 1243.18475955 307.651283037 1247.80682775 320.000168722 1247.80682775 c 0
 332.348607046 1247.80682775 344.697156566 1243.18509443 353.941125497 1233.9411255 c 6
 737.941125497 849.941125497 l 6
 747.184759548 840.697491446 751.806827748 828.348716963 751.806827748 815.999831278 c 0
 751.806827748 803.651392954 747.185094428 791.302843434 737.941125497 782.058874503 c 4
 728.697156566 772.814905572 716.348607046 768.193172252 704.000168722 768.193172252 c 0
 691.651283037 768.193172252 679.302508554 772.815240452 670.058874503 782.058874503 c 6
 286.058874503 1166.0588745 l 6
 276.814905572 1175.30284343 272.193172252 1187.65139295 272.193172252 1199.99983128 c 0
 272.193172252 1212.34871696 276.815240452 1224.69749145 286.058874503 1233.9411255 c 4
EndSplineSet
Validated: 1
EndChar

StartChar: n
Encoding: 110 110 68
Width: 1024
VWidth: 0
Flags: HW
AnchorPoint: "top" 512 912 basechar 0
LayerCount: 2
Fore
SplineSet
47 48 m 0
 47 74.1444717079 68.8536339246 96 95 96 c 2
 208 96 l 1
 208 512 l 1
 208 768 l 1
 96 768 l 2
 69.853515625 768 48 789.85546875 48 816 c 0
 48 842.14453125 69.853515625 864 96 864 c 2
 256 864 l 2
 285.0546875 864 304 836.6015625 304 816 c 2
 304 760.056801334 l 1
 371.264282466 833.787653087 468.162218733 880 576 880 c 0
 708.509612655 880 816 772.509840284 816 640 c 2
 816 96 l 1
 926 96 l 2
 952.144471708 96 974 74.1463660754 974 48 c 0
 974 21.8536339246 952.144471708 0 926 0 c 2
 606 0 l 2
 579.853633925 0 558 21.8555282921 558 48 c 0
 558 74.1444717079 579.853633925 96 606 96 c 2
 720 96 l 1
 720 640 l 2
 720 719.490159716 655.490387345 784 576 784 c 0
 425.47411009 784 304.000001771 662.525967278 304 512.000003291 c 2
 304 512 l 1
 304 96 l 1
 414 96 l 2
 440.144471708 96 462 74.1463660754 462 48 c 0
 462 21.8536339246 440.144471708 0 414 0 c 2
 95 0 l 2
 68.8536339246 0 47 21.8555282921 47 48 c 0
EndSplineSet
Validated: 1
EndChar

StartChar: u
Encoding: 117 117 69
Width: 1024
VWidth: 0
Flags: HW
AnchorPoint: "top" 512 912 basechar 0
LayerCount: 2
Fore
SplineSet
560 816 m 0
 560 842.144471708 581.853633925 864 608 864 c 2
 768 864 l 2
 797.054472683 864 816 836.601416319 816 816 c 2
 816 352 l 1
 816 96 l 1
 928 96 l 2
 954.144471708 96 976 74.1463660754 976 48 c 0
 976 21.8536339246 954.144471708 0 928 0 c 2
 768 0 l 2
 747.398583681 0 720 18.9455273174 720 48 c 2
 720 103.943541091 l 1
 652.735640928 30.2125363439 555.837618281 -16 448 -16 c 0
 315.490234375 -16 208 91.490234375 208 224 c 2
 208 768 l 1
 96 768 l 2
 69.8555282921 768 48 789.853633925 48 816 c 0
 48 842.146366075 69.8555282921 864 96 864 c 2
 256 864 l 2
 276.601416319 864 304 845.054472683 304 816 c 2
 304 224 l 2
 304 144.509765625 368.509765625 80 448 80 c 0
 598.526367188 80 720 201.473632812 720 352 c 2
 720 768 l 1
 608 768 l 2
 581.853633925 768 560 789.855528292 560 816 c 0
EndSplineSet
Validated: 1
EndChar

StartChar: k
Encoding: 107 107 71
Width: 1024
VWidth: 0
Flags: HW
AnchorPoint: "top" 512 1272 basechar 0
LayerCount: 2
Fore
SplineSet
47 48 m 0
 47 74.1444717079 68.8536339246 96 95 96 c 2
 208 96 l 1
 208 1152 l 1
 96 1152 l 2
 69.8536339246 1152 48 1173.85552829 48 1200 c 0
 48 1226.14447171 69.8536339246 1248 96 1248 c 2
 256 1248 l 2
 285.054472683 1248 304 1220.60141632 304 1200 c 2
 304 456.200743579 l 1
 685.08798007 768 l 1
 590 768 l 2
 563.853515625 768 542 789.85546875 542 816 c 0
 542 842.14453125 563.853515625 864 590 864 c 2
 910 864 l 2
 936.14453125 864 958 842.146484375 958 816 c 0
 958 789.853515625 936.14453125 768 910 768 c 2
 835.756444556 768 l 2
 834.12969494 766.166655014 832.341952665 764.442672237 830.395413932 762.850049638 c 2
 499.600160074 492.19938739 l 1
 851.777393309 96 l 1
 942 96 l 2
 968.14453125 96 990 74.146484375 990 48 c 0
 990 21.853515625 968.14453125 0 942 0 c 2
 622 0 l 2
 595.853515625 0 574 21.85546875 574 48 c 0
 574 74.14453125 595.853515625 96 622 96 c 2
 723.333717802 96 l 1
 425.238032148 431.35764636 l 1
 304 332.162892785 l 1
 304 96 l 1
 414 96 l 2
 440.144471708 96 462 74.1463660754 462 48 c 0
 462 21.8536339246 440.144471708 0 414 0 c 2
 95 0 l 2
 68.8536339246 0 47 21.8555282921 47 48 c 0
EndSplineSet
Validated: 1
EndChar

StartChar: m
Encoding: 109 109 72
Width: 1024
VWidth: 0
Flags: HW
AnchorPoint: "top" 512 912 basechar 0
LayerCount: 2
Fore
SplineSet
31 48 m 0
 31 74.14453125 52.853515625 96 79 96 c 2
 128 96 l 1
 128 640 l 1
 128 768 l 1
 80 768 l 2
 53.8536339246 768 32 789.855528292 32 816 c 0
 32 842.144471708 53.8536339246 864 80 864 c 2
 176 864 l 2
 198.749326585 864 215.301147329 847.202710447 221.413654763 830.023052063 c 1
 261.964078467 861.355070971 312.812123486 880 368 880 c 0
 432.300671407 880 489.465486135 847.993194963 524.354325736 799.1195703 c 1
 568.328176293 848.725569705 632.524354776 880 704 880 c 0
 809.627929688 880 896 793.627929688 896 688 c 2
 896 96 l 1
 942 96 l 2
 968.14453125 96 990 74.146484375 990 48 c 0
 990 21.853515625 968.14453125 0 942 0 c 2
 751 0 l 2
 724.853515625 0 703 21.85546875 703 48 c 0
 703 74.14453125 724.853515625 96 751 96 c 2
 800 96 l 1
 800 688 l 2
 800 740.372070312 756.372070312 784 704 784 c 0
 624.509765625 784 560 719.490234375 560 640 c 2
 560 96 l 1
 606 96 l 2
 632.14453125 96 654 74.146484375 654 48 c 0
 654 21.853515625 632.14453125 0 606 0 c 2
 415 0 l 2
 388.853515625 0 367 21.85546875 367 48 c 0
 367 74.14453125 388.853515625 96 415 96 c 2
 464 96 l 1
 464 640 l 1
 464 688 l 2
 464 740.371609847 420.371806429 784 368 784 c 0
 288.509840284 784 224 719.490387345 224 640 c 2
 224 96 l 1
 270 96 l 2
 296.14453125 96 318 74.146484375 318 48 c 0
 318 21.853515625 296.14453125 0 270 0 c 2
 79 0 l 2
 52.853515625 0 31 21.85546875 31 48 c 0
EndSplineSet
Validated: 1
EndChar

StartChar: f
Encoding: 102 102 73
Width: 1024
VWidth: 0
Flags: HW
LayerCount: 2
Fore
SplineSet
671 1168.01066557 m 0
 556.732421875 1168.01066557 464 1074.69824219 464 960 c 0
 464 959.833075513 463.997334734 959.666325999 463.997334734 959.499756054 c 0
 463.997334734 959.333348231 464 959.166761351 464 959 c 2
 464 864 l 1
 688 864 l 2
 714.146484375 864 736 842.14453125 736 816 c 0
 736 789.85546875 714.146484375 768 688 768 c 2
 464 768 l 1
 464 96 l 1
 688 96 l 2
 714.146484375 96 736 74.14453125 736 48 c 0
 736 21.85546875 714.146484375 0 688 0 c 2
 144 0 l 2
 117.85546875 0 96 21.853515625 96 48 c 0
 96 74.146484375 117.85546875 96 144 96 c 2
 368 96 l 1
 368 768 l 1
 144 768 l 2
 117.85546875 768 96 789.853515625 96 816 c 0
 96 842.146484375 117.85546875 864 144 864 c 2
 368 864 l 1
 368 959 l 2
 368 959.16676136 368.002665265 959.333348222 368.002665265 959.499756054 c 0
 368.002665265 959.666326008 368 959.833075504 368 960 c 0
 368 993.142601723 373.308427643 1025.08420206 383.126069179 1054.99999451 c 0
 422.867261321 1176.0972307 536.495494717 1264 671 1264 c 0
 671.332608232 1263.9964326 671.665953772 1264 672 1264 c 0
 824.206656455 1264 976 1178.52328006 976 1040 c 2
 976 1009 l 1
 976 1008 l 1
 975.994893362 1008 l 1
 975.458075158 955.460176619 932.666267418 913 880 913 c 0
 827 913 784 956 784 1009 c 0
 784 1023.27347553 787.11871857 1036.82166768 792.711577625 1048.99999835 c 0
 804.09694649 1073.79139493 825.735312045 1092.9059978 852.188974488 1100.90610715 c 1
 818.672831814 1137.48759277 756.188338231 1168 672 1168 c 0
 671.665953772 1168 671.332608232 1168.01066557 671 1168.01066557 c 0
EndSplineSet
Validated: 1
EndChar

StartChar: g
Encoding: 103 103 74
Width: 1024
VWidth: 0
Flags: HW
AnchorPoint: "top" 512 912 basechar 0
LayerCount: 2
Fore
SplineSet
160 -144 m 0
 160 -207.442301911 291.337077362 -304 512 -304 c 0
 732.666476258 -304 864 -207.442610831 864 -144 c 0
 864 -80.557698089 732.662922638 16 512 16 c 0
 291.333523742 16 160 -80.5573891688 160 -144 c 0
96 560 m 0
 96 736.530537185 239.469499345 880 416 880 c 0
 506.834968198 880 588.916402578 842.013783934 647.202436015 781.083233857 c 1
 666.130048846 838.521992442 720.234989017 880 784 880 c 0
 863.509765625 880 928 815.509765625 928 736 c 0
 928 709.85546875 906.146484375 688 880 688 c 0
 853.853515625 688 832 709.85546875 832 736 c 0
 832 762.490234375 810.490234375 784 784 784 c 0
 757.509765625 784 736 762.490234375 736 736 c 2
 736 560 l 2
 736 383.469462815 592.530500655 240 416 240 c 2
 368 240 l 2
 291.830078125 240 256 197.131835938 256 176 c 0
 256 154.870117188 291.83203125 112 368 112 c 2
 512 112 l 2
 733.337077362 112 960 22.557698089 960 -144 c 0
 960 -310.557389169 733.333523742 -400 512 -400 c 0
 290.662922638 -400 64 -310.557698089 64 -144 c 0
 64 -53.6294715949 130.728771188 14.039091862 227.128851995 57.036555441 c 1
 187.300344989 84.1839589635 160 124.319826261 160 176 c 0
 160 229.790160345 189.576734044 271.074707396 232.072009541 298.224347996 c 1
 149.811082668 356.175201827 96 451.887507041 96 560 c 0
416 336 m 0
 539.469499345 336 640 436.530537185 640 560 c 0
 640 683.469499345 539.469462815 784 416 784 c 0
 292.530500655 784 192 683.469462815 192 560 c 0
 192 436.530500655 292.530537185 336 416 336 c 0
EndSplineSet
Validated: 1
EndChar

StartChar: D
Encoding: 68 68 75
Width: 1024
VWidth: 0
Flags: HW
AnchorPoint: "top" 512 1272 basechar 0
LayerCount: 2
Fore
SplineSet
48 1200 m 0
 48 1226.14447171 69.8536339246 1248 96 1248 c 2
 512 1248 l 2
 759.22921543 1248 928 950.286715753 928 624 c 0
 928 297.713659606 759.229090682 0 512 0 c 2
 96 0 l 2
 69.853515625 0 48 21.85546875 48 48 c 0
 48 74.14453125 69.853515625 96 96 96 c 2
 256 96 l 1
 256 1152 l 1
 96 1152 l 2
 69.8536339246 1152 48 1173.85552829 48 1200 c 0
352 1152 m 1
 352 96 l 1
 512 96 l 2
 670.770909318 96 832 314.286340394 832 624 c 0
 832 933.713284247 670.77078457 1152 512 1152 c 2
 352 1152 l 1
EndSplineSet
Validated: 1
EndChar

StartChar: P
Encoding: 80 80 76
Width: 1024
VWidth: 0
Flags: HW
AnchorPoint: "top" 512 1272 basechar 0
LayerCount: 2
Fore
SplineSet
48 1200 m 0
 48 1226.14447171 69.8536339246 1248 96 1248 c 2
 592 1248 l 2
 777.509765625 1248 928 1097.51074219 928 912 c 0
 928 726.490234375 777.510742188 576 592 576 c 2
 352 576 l 1
 352 96 l 1
 568 96 l 2
 594.14453125 96 616 74.146484375 616 48 c 0
 616 21.853515625 594.14453125 0 568 0 c 2
 96 0 l 2
 69.853515625 0 48 21.85546875 48 48 c 0
 48 74.14453125 69.853515625 96 96 96 c 2
 256 96 l 1
 256 1152 l 1
 96 1152 l 2
 69.8536339246 1152 48 1173.85552829 48 1200 c 0
352 1152 m 1
 352 672 l 1
 592 672 l 2
 724.489257812 672 832 779.509765625 832 912 c 0
 832 1044.48925781 724.490234375 1152 592 1152 c 2
 352 1152 l 1
EndSplineSet
Validated: 1
EndChar

StartChar: R
Encoding: 82 82 77
Width: 1024
VWidth: 0
Flags: HW
AnchorPoint: "top" 512 1272 basechar 0
LayerCount: 2
Fore
SplineSet
32 1200 m 0
 32 1226.14453125 53.853515625 1248 80 1248 c 2
 544 1248 l 2
 729.509765625 1248 880 1097.51074219 880 912 c 0
 880 781.427741316 805.445514004 668.204648878 696.600198432 612.595400693 c 1
 792.27367741 529.730097766 848 371.167532858 848 208 c 2
 848 96 l 1
 944 96 l 2
 970.146484375 96 992 74.14453125 992 48 c 0
 992 21.85546875 970.146484375 0 944 0 c 2
 800 0 l 2
 770.9453125 0 752 27.3984375 752 48 c 2
 752 208 l 2
 752 431.1484375 639.420898438 576 544 576 c 2
 304 576 l 1
 304 96 l 1
 440 96 l 2
 466.14453125 96 488 74.146484375 488 48 c 0
 488 21.853515625 466.14453125 0 440 0 c 2
 80 0 l 2
 53.853515625 0 32 21.85546875 32 48 c 0
 32 74.14453125 53.853515625 96 80 96 c 2
 208 96 l 1
 208 1152 l 1
 80 1152 l 2
 53.853515625 1152 32 1173.85546875 32 1200 c 0
304 1152 m 1
 304 672 l 1
 544 672 l 2
 676.489257812 672 784 779.509765625 784 912 c 0
 784 1044.48925781 676.490234375 1152 544 1152 c 2
 304 1152 l 1
EndSplineSet
Validated: 1
EndChar

StartChar: d
Encoding: 100 100 78
Width: 1024
VWidth: 0
Flags: HW
AnchorPoint: "top" 512 1272 basechar 0
LayerCount: 2
Fore
SplineSet
976 48 m 0
 976 21.8555282921 954.146366075 0 928 0 c 2
 768 0 l 2
 738.945527317 0 720 27.3985836813 720 48 c 2
 720 109.664774302 l 1
 655.041829213 32.9593444105 565.886215107 -16 464 -16 c 0
 251.46484375 -16 96 193.696289062 96 432 c 0
 96 670.303710938 251.46484375 880 464 880 c 0
 565.885777251 880 655.041618139 831.040513937 720 754.334892803 c 1
 720 1152 l 1
 608 1152 l 2
 581.855528292 1152 560 1173.85363392 560 1200 c 0
 560 1226.14636608 581.855528292 1248 608 1248 c 2
 768 1248 l 2
 788.601416319 1248 816 1229.05447268 816 1200 c 2
 816 96 l 1
 928 96 l 2
 954.146366075 96 976 74.1444717079 976 48 c 0
720 550.992865593 m 1
 680.548676932 692.668382075 576.300194443 784 464 784 c 0
 322.53515625 784 192 635.696289062 192 432 c 0
 192 228.303710938 322.53515625 80 464 80 c 0
 576.300194443 80 680.548676932 171.331617925 720 313.007134407 c 1
 720 550.992865593 l 1
EndSplineSet
Validated: 1
EndChar

StartChar: p
Encoding: 112 112 79
Width: 1024
VWidth: 0
Flags: HW
AnchorPoint: "top" 512 912 basechar 0
LayerCount: 2
Fore
SplineSet
48 816 m 0
 48 842.144471708 69.8536339246 864 96 864 c 2
 256 864 l 2
 285.054472683 864 304 836.601416319 304 816 c 2
 304 754.335225698 l 1
 368.958170787 831.040655589 458.113784893 880 560 880 c 0
 772.53515625 880 928 670.303710938 928 432 c 0
 928 193.696289062 772.53515625 -16 560 -16 c 0
 458.114222749 -16 368.958381861 32.9594860632 304 109.665107197 c 1
 304 -288 l 1
 416 -288 l 2
 442.146366075 -288 464 -309.855528292 464 -336 c 0
 464 -362.144471708 442.146366075 -384 416 -384 c 2
 96 -384 l 2
 69.8555282921 -384 48 -362.146366075 48 -336 c 0
 48 -309.853633925 69.8555282921 -288 96 -288 c 2
 208 -288 l 1
 208 768 l 1
 96 768 l 2
 69.8536339246 768 48 789.855528292 48 816 c 0
304 313.007134407 m 1
 343.451323068 171.331617925 447.699805557 80 560 80 c 0
 701.46484375 80 832 228.303710938 832 432 c 0
 832 635.696289062 701.46484375 784 560 784 c 0
 447.699805557 784 343.451323068 692.668382075 304 550.992865593 c 1
 304 313.007134407 l 1
EndSplineSet
Validated: 1
EndChar

StartChar: q
Encoding: 113 113 80
Width: 1024
VWidth: 0
Flags: HW
AnchorPoint: "top" 512 912 basechar 0
LayerCount: 2
Fore
SplineSet
560 -336 m 0
 560 -309.85546875 581.853515625 -288 608 -288 c 2
 720 -288 l 1
 720 109.665107197 l 1
 655.041618139 32.9594860632 565.885777251 -16 464 -16 c 0
 251.46484375 -16 96 193.696289062 96 432 c 0
 96 670.303710938 251.46484375 880 464 880 c 0
 565.886215107 880 655.041829213 831.040655589 720 754.335225698 c 1
 720 816 l 2
 720 842.144471708 741.853633925 864 768 864 c 0
 794.146366075 864 816 842.144471708 816 816 c 2
 816 -288 l 1
 928 -288 l 2
 954.14453125 -288 976 -309.853515625 976 -336 c 0
 976 -362.146484375 954.14453125 -384 928 -384 c 2
 608 -384 l 2
 581.853515625 -384 560 -362.14453125 560 -336 c 0
720 550.992865593 m 1
 680.548676932 692.668382075 576.300194443 784 464 784 c 0
 322.53515625 784 192 635.696289062 192 432 c 0
 192 228.303710938 322.53515625 80 464 80 c 0
 576.300194443 80 680.548676932 171.331617925 720 313.007134407 c 1
 720 550.992865593 l 1
EndSplineSet
Validated: 1
EndChar

StartChar: braceleft
Encoding: 123 123 81
Width: 1024
VWidth: 0
Flags: HW
LayerCount: 2
Fore
SplineSet
464 1136 m 2
 464 1303.55371094 600.446289062 1440 768 1440 c 0
 794.14453125 1440 816 1418.14648438 816 1392 c 0
 816 1365.85351562 794.14453125 1344 768 1344 c 0
 653.553710938 1344 560 1250.44628906 560 1136 c 2
 560 880 l 2
 560 772.67601972 504.018160037 678.114942154 419.737712806 624 c 1
 504.018160037 569.885057846 560 475.32398028 560 368 c 2
 560 112 l 2
 560 -2.4462890625 653.553710938 -96 768 -96 c 0
 794.14453125 -96 816 -117.853515625 816 -144 c 0
 816 -170.146484375 794.14453125 -192 768 -192 c 0
 600.446289062 -192 464 -55.5537109375 464 112 c 2
 464 368 l 2
 464 482.446289062 370.446289062 576 256 576 c 0
 229.85546875 576 208 597.853515625 208 624 c 0
 208 650.146484375 229.85546875 672 256 672 c 0
 370.446289062 672 464 765.553710938 464 880 c 2
 464 1136 l 2
EndSplineSet
Validated: 1
EndChar

StartChar: braceright
Encoding: 125 125 82
Width: 1024
VWidth: 0
Flags: HW
LayerCount: 2
Fore
SplineSet
560 1136 m 2
 560 880 l 2
 560 765.553710938 653.553710938 672 768 672 c 0
 794.14453125 672 816 650.146484375 816 624 c 0
 816 597.853515625 794.14453125 576 768 576 c 0
 653.553710938 576 560 482.446289062 560 368 c 2
 560 112 l 2
 560 -55.5537109375 423.553710938 -192 256 -192 c 0
 229.85546875 -192 208 -170.146484375 208 -144 c 0
 208 -117.853515625 229.85546875 -96 256 -96 c 0
 370.446289062 -96 464 -2.4462890625 464 112 c 2
 464 368 l 2
 464 475.32398028 519.981839963 569.885057846 604.262287194 624 c 1
 519.981839963 678.114942154 464 772.67601972 464 880 c 2
 464 1136 l 2
 464 1250.44628906 370.446289062 1344 256 1344 c 0
 229.85546875 1344 208 1365.85351562 208 1392 c 0
 208 1418.14648438 229.85546875 1440 256 1440 c 0
 423.553710938 1440 560 1303.55371094 560 1136 c 2
EndSplineSet
Validated: 1
EndChar

StartChar: Q
Encoding: 81 81 83
Width: 1024
VWidth: 0
Flags: HW
AnchorPoint: "top" 512 1272 basechar 0
LayerCount: 2
Fore
SplineSet
97 624 m 0
 97 963.044921875 241.385438205 1264 512 1264 c 0
 782.613898845 1264 927 963.043945312 927 624 c 0
 927 368.073340537 844.730290606 133.849980347 688 34.3896649504 c 1
 688 -112 l 2
 688 -156.576171875 723.420898438 -192 768 -192 c 0
 812.576171875 -192 848 -156.579101562 848 -112 c 0
 848 -85.853515625 869.85546875 -64 896 -64 c 0
 922.14453125 -64 944 -85.853515625 944 -112 c 0
 944 -209.420898438 865.423828125 -288 768 -288 c 0
 670.579101562 -288 592 -209.423828125 592 -112 c 2
 592 -6.60732669935 l 1
 566.700793982 -12.7717653862 540.02740372 -16 512 -16 c 0
 241.386101155 -16 97 284.956054688 97 624 c 0
369.444418306 129.858156258 m 1
 411.413233188 97.6390299908 459.4435473 80 512 80 c 0
 540.05388305 80 566.796223437 85.0258956296 592 94.6124390887 c 1
 592 112 l 2
 592 173.418945312 541.418945312 224 480 224 c 0
 424.652476428 224 378.106042463 182.924812019 369.444418306 129.858156258 c 1
683.410026156 155.512795933 m 1
 775.232942253 247.78188015 831 417.409387623 831 624 c 0
 831 938.956054688 701.386101155 1168 512 1168 c 0
 322.614561795 1168 192 938.955078125 192 624 c 0
 192 452.736463846 230.620623771 306.875884673 296.3108226 209.431677935 c 1
 331.337408088 275.125062083 400.585964449 320 480 320 c 0
 579.665030541 320 663.319043588 249.320260983 683.410026156 155.512795933 c 1
EndSplineSet
Validated: 1
EndChar

StartChar: c
Encoding: 99 99 84
Width: 1024
VWidth: 0
Flags: HW
AnchorPoint: "cedilla" 512 32 basechar 0
AnchorPoint: "top" 512 912 basechar 0
LayerCount: 2
Fore
SplineSet
880 304 m 0
 906.144471708 304 928 282.146366075 928 256 c 0
 928 85.9653828239 721.311523438 -16 512 -16 c 0
 279.102539062 -16 96 187.895058816 96 432 c 0
 96 676.104927161 279.102339826 880 512 880 c 0
 624.460109621 880 725.652038809 832.061196071 800 755.197713473 c 1
 800 816 l 2
 800 842.144471708 821.853633925 864 848 864 c 0
 874.146366075 864 896 842.144471708 896 816 c 2
 896 576 l 2
 896 549.853515625 874.14453125 528 848 528 c 0
 821.85546875 528 800 549.853515625 800 576 c 2
 800 585.526354994 l 1
 747.364314486 704.662378261 636.895751814 784 512 784 c 0
 338.897660174 784 192 629.895072839 192 432 c 0
 192 234.104941184 338.897460938 80 512 80 c 0
 708.688476562 80 832 178.034617176 832 256 c 0
 832 282.146366075 853.855528292 304 880 304 c 0
EndSplineSet
Validated: 1
EndChar

StartChar: b
Encoding: 98 98 85
Width: 1024
VWidth: 0
Flags: HW
AnchorPoint: "top" 512 1272 basechar 0
LayerCount: 2
Fore
SplineSet
48 48 m 0
 48 74.1444717079 69.8536339246 96 96 96 c 2
 208 96 l 1
 208 1152 l 1
 96 1152 l 2
 69.8555282921 1152 48 1173.85363392 48 1200 c 0
 48 1226.14636608 69.8555282921 1248 96 1248 c 2
 256 1248 l 2
 276.601416319 1248 304 1229.05447268 304 1200 c 2
 304 754.334892803 l 1
 368.958381861 831.040513937 458.114222749 880 560 880 c 0
 772.53515625 880 928 670.303710938 928 432 c 0
 928 193.696289062 772.53515625 -16 560 -16 c 0
 458.113784893 -16 368.958170787 32.9593444102 304 109.664774302 c 1
 304 48 l 2
 304 27.3985836813 285.054472683 0 256 0 c 2
 96 0 l 2
 69.8536339246 0 48 21.8555282921 48 48 c 0
304 550.992865593 m 1
 304 313.007134407 l 1
 343.451323068 171.331617925 447.699805557 80 560 80 c 0
 701.46484375 80 832 228.303710938 832 432 c 0
 832 635.696289062 701.46484375 784 560 784 c 0
 447.699805557 784 343.451323068 692.668382075 304 550.992865593 c 1
EndSplineSet
Validated: 1
EndChar

StartChar: t
Encoding: 116 116 86
Width: 1024
VWidth: 0
Flags: HW
AnchorPoint: "top" 512 1272 basechar 0
LayerCount: 2
Fore
SplineSet
704 816 m 0
 704 789.85546875 682.146484375 768 656 768 c 2
 432 768 l 1
 432 289 l 2
 432 288.833238639 431.997334719 288.666651777 431.997334719 288.500243945 c 0
 431.997334719 288.333673984 432 288.166924488 432 288 c 2
 432 208 l 2
 432 128.509765625 496.509765625 64 576 64 c 0
 726.526367188 64 848 185.473632812 848 336 c 0
 848 362.146484375 869.85546875 384 896 384 c 0
 922.14453125 384 944 362.146484375 944 336 c 0
 944 132.526367188 779.473632812 -32 576 -32 c 0
 443.490234375 -32 336 75.490234375 336 208 c 2
 336 288 l 2
 336 288.166924479 336.002665281 288.333673993 336.002665281 288.500243945 c 0
 336.002665281 288.666651768 336 288.833238648 336 289 c 2
 336 325 l 1
 336 768 l 1
 112 768 l 2
 85.85546875 768 64 789.853515625 64 816 c 0
 64 842.146484375 85.85546875 864 112 864 c 2
 336 864 l 1
 336 1184 l 2
 336 1210.14648438 357.85546875 1232 384 1232 c 0
 410.14453125 1232 432 1210.14648438 432 1184 c 2
 432 864 l 1
 656 864 l 2
 682.146484375 864 704 842.14453125 704 816 c 0
EndSplineSet
Validated: 1
EndChar

StartChar: C
Encoding: 67 67 87
Width: 1024
VWidth: 0
Flags: HW
AnchorPoint: "cedilla" 512 32 basechar 0
AnchorPoint: "top" 512 1272 basechar 0
LayerCount: 2
Fore
SplineSet
848 768 m 0
 821.855528292 768 800 789.853633925 800 816 c 2
 800 859.038652322 l 1
 744.035990321 1053.51907321 626.742633836 1168 512 1168 c 0
 354.231846068 1168 192 943.78929021 192 624 c 0
 192 304.211217529 354.232033333 80 512 80 c 0
 685.102339826 80 832 234.104927161 832 432 c 0
 832 458.146366075 853.855528292 480 880 480 c 0
 906.144471708 480 928 458.146366075 928 432 c 0
 928 187.895072839 744.897660174 -16 512 -16 c 0
 263.767966667 -16 96 289.788782471 96 624 c 0
 96 958.21070979 263.768153932 1264 512 1264 c 0
 628.989922465 1264 728.08493428 1194.33427317 800 1088.04055121 c 1
 800 1200 l 2
 800 1226.14447171 821.853633925 1248 848 1248 c 0
 874.146366075 1248 896 1226.14447171 896 1200 c 2
 896 816 l 2
 896 789.853633925 874.144471708 768 848 768 c 0
EndSplineSet
Validated: 1
EndChar

StartChar: G
Encoding: 71 71 88
Width: 1024
VWidth: 0
Flags: HW
AnchorPoint: "top" 512 1272 basechar 0
LayerCount: 2
Fore
SplineSet
832 176 m 1053
1024 576 m 0
 1024 549.85546875 1002.14648438 528 976 528 c 2
 896 528 l 1
 896 48 l 2
 896 21.853515625 874.14453125 0 848 0 c 0
 821.85546875 0 800 21.853515625 800 48 c 2
 800 144.314175528 l 1
 730.930926962 45.5401515348 634.371308836 -16 512 -16 c 0
 241.386101155 -16 97 284.956054688 97 624 c 0
 97 963.044921875 241.385438205 1264 512 1264 c 0
 634.371168438 1264 730.930850052 1202.45948846 800 1103.68511034 c 1
 800 1200 l 2
 800 1226.14636608 821.855528292 1248 848 1248 c 0
 874.144471708 1248 896 1226.14636608 896 1200 c 2
 896 816 l 2
 896 789.855528292 874.146366075 768 848 768 c 0
 821.853633925 768 800 789.855528292 800 816 c 2
 800 872.851809391 l 1
 750.794576818 1052.54173553 646.462508171 1168 512 1168 c 0
 322.614561795 1168 192 938.955078125 192 624 c 0
 192 309.043945312 322.613898845 80 512 80 c 0
 646.46214566 80 750.794471687 195.458942526 800 375.149052597 c 1
 800 528 l 1
 656 528 l 2
 629.85546875 528 608 549.853515625 608 576 c 0
 608 602.146484375 629.85546875 624 656 624 c 2
 976 624 l 2
 1002.14648438 624 1024 602.14453125 1024 576 c 0
EndSplineSet
Validated: 1
EndChar

StartChar: r
Encoding: 114 114 90
Width: 1024
VWidth: 0
Flags: HW
AnchorPoint: "top" 512 912 basechar 0
LayerCount: 2
Fore
SplineSet
736 48 m 0
 736 21.85546875 714.146484375 0 688 0 c 2
 144 0 l 2
 117.85546875 0 96 21.853515625 96 48 c 0
 96 74.146484375 117.85546875 96 144 96 c 2
 368 96 l 1
 368 576 l 1
 368 768 l 1
 144 768 l 2
 117.855528292 768 96 789.853633925 96 816 c 0
 96 842.146366075 117.855528292 864 144 864 c 2
 416 864 l 2
 436.601416319 864 464 845.054472683 464 816 c 2
 464 797.932137936 l 1
 518.108070406 848.785149809 590.847245734 880 671 880 c 1
 671 879.989334557 l 2
 671.3326082 879.996432642 671.66595374 880 672 880 c 0
 824.20703125 880 976 794.5234375 976 656 c 2
 976 625 l 1
 976 624 l 1
 975.994893362 624 l 1
 975.458075158 571.460176619 932.666267418 529 880 529 c 0
 827 529 784 572 784 625 c 0
 784 639.2734375 787.119140625 652.821289062 792.711914062 665 c 0
 804.096812684 689.791353126 825.735165131 708.905950892 852.188845481 716.906079859 c 1
 818.672612545 753.487550186 756.1880625 784 672 784 c 0
 671.66595374 784 671.3326082 784.003567358 671 784.010665443 c 2
 671 784 l 1
 556.732421875 784 464 690.698242188 464 576 c 2
 464 96 l 1
 688 96 l 2
 714.146484375 96 736 74.14453125 736 48 c 0
EndSplineSet
Validated: 1
EndChar

StartChar: nine
Encoding: 57 57 91
Width: 1024
VWidth: 0
Flags: HW
LayerCount: 2
Fore
SplineSet
267.811154519 147.093920141 m 1
 301.327387455 110.512449814 363.8119375 80 448 80 c 0
 637.626540871 80 814.793535967 289.741311608 830.821934383 580.941749662 c 1
 754.474097527 489.923962891 639.923406396 432 512 432 c 0
 282.474609375 432 96 618.474609375 96 848 c 0
 96 1077.52539062 282.474609375 1264 512 1264 c 0
 741.525390625 1264 928 1077.52539062 928 848 c 2
 928 624 l 2
 928 283.357421875 725.149414062 -16 448 -16 c 0
 295.79296875 -16 144 69.4765625 144 208 c 2
 144 239 l 1
 144 240 l 1
 144.005106638 240 l 1
 144.541924842 292.539823381 187.333732582 335 240 335 c 0
 293 335 336 292 336 239 c 0
 336 224.7265625 332.880859375 211.178710938 327.288085938 199 c 0
 315.903187316 174.208646874 294.264834869 155.094049108 267.811154519 147.093920141 c 1
832 848 m 0
 832 1024.47460938 688.474609375 1168 512 1168 c 0
 335.525390625 1168 192 1024.47460938 192 848 c 0
 192 671.525390625 335.525390625 528 512 528 c 0
 688.474609375 528 832 671.525390625 832 848 c 0
EndSplineSet
Validated: 1
EndChar

StartChar: six
Encoding: 54 54 92
Width: 1024
VWidth: 0
Flags: HW
LayerCount: 2
Fore
SplineSet
192 400 m 0
 192 223.525098093 335.525073758 80 512 80 c 0
 688.474901907 80 832 223.525073758 832 400 c 0
 832 576.474901907 688.474926242 720 512 720 c 0
 335.525098093 720 192 576.474926242 192 400 c 0
879.994893362 1008 m 1
 879.458075158 955.460176619 836.666267418 913 784 913 c 0
 731 913 688 956 688 1009 c 0
 688 1023.2734375 691.119140625 1036.82128906 696.711914062 1049 c 0
 708.096812684 1073.79135313 729.735165131 1092.90595089 756.188845481 1100.90607986 c 1
 722.672612545 1137.48755019 660.1880625 1168 576 1168 c 0
 386.373606667 1168 209.206374228 958.258613285 193.178052169 667.057989338 c 1
 269.525937497 758.075883404 384.076695602 816 512 816 c 0
 741.525073758 816 928 629.525098093 928 400 c 0
 928 170.474926242 741.525098093 -16 512 -16 c 0
 282.474926242 -16 96 170.474901907 96 400 c 2
 96 624 l 2
 96 964.642518948 298.85037011 1264 576 1264 c 0
 728.20703125 1264 880 1178.5234375 880 1040 c 2
 880 1009 l 1
 880 1008 l 1
 879.994893362 1008 l 1
EndSplineSet
Validated: 1
EndChar

StartChar: five
Encoding: 53 53 93
Width: 1024
VWidth: 0
Flags: HW
LayerCount: 2
Fore
SplineSet
816 928 m 0
 789.85546875 928 768 949.853515625 768 976 c 2
 768 1152 l 1
 256 1152 l 1
 256 752.280201355 l 1
 327.449636092 792.953067892 416.524994849 816 512 816 c 0
 741.525073758 816 928 629.525098093 928 400 c 0
 928 170.474926242 741.525098093 -16 512 -16 c 0
 297.286411788 -16 96 105.969921739 96 288 c 0
 96 292.517092717 96.6523519012 296.906156366 97.8664833072 301.076591182 c 0
 96.6422413927 307.194879041 96.0000024279 313.522760814 96 320 c 0
 96 373 139 416 192 416 c 0
 245 416 288 373 288 320 c 0
 288 272.534579795 253.511732661 233.089686878 208.239016914 225.369140181 c 1
 248.490620831 147.61943197 360.662158875 80 512 80 c 0
 688.474901907 80 832 223.525073758 832 400 c 0
 832 576.474901907 688.474926242 720 512 720 c 0
 396.597850085 720 297.390119439 678.562823892 242.237513565 622.434145446 c 0
 238.675383951 618.808974441 234.637909209 615.878279586 230.307514483 613.643631329 c 0
 223.610364102 610.049339388 216.006453138 608.000000127 208 608 c 0
 200.130305671 608 192.649519318 609.979927322 186.036460185 613.460802546 c 0
 181.81927955 615.594490872 177.871060019 618.38666626 174.357873657 621.838758225 c 0
 170.196487655 625.927778105 166.95015 630.64331953 164.621325638 635.709384062 c 0
 161.663359795 641.900547814 160.000000548 648.787045112 160 656 c 2
 160 1200 l 2
 160 1220.6015625 178.9453125 1248 208 1248 c 2
 816 1248 l 2
 836.6015625 1248 864 1229.0546875 864 1200 c 2
 864 976 l 2
 864 949.853515625 842.14453125 928 816 928 c 0
EndSplineSet
Validated: 1
EndChar

StartChar: two
Encoding: 50 50 94
Width: 1024
VWidth: 0
Flags: HW
LayerCount: 2
Fore
SplineSet
880 384 m 0
 906.14453125 384 928 362.146484375 928 336 c 0
 928 105.373046875 827.006239149 -16 656 -16 c 0
 477.506835938 -16 459.491210938 128 368 128 c 0
 265.598632812 128 187.162109375 25.875 182.76171875 19.68359375 c 0
 177.799093177 13.0402662301 171.509326684 8.04033896641 164.566569373 4.75420282942 c 0
 158.304499617 1.7132506007 151.32050251 1.51433226714e-06 144 0 c 0
 140.096860967 0 136.289383869 0.487042294497 132.635988062 1.40268994662 c 0
 126.993391024 2.75278068486 121.532198668 5.14993405518 116.547851562 8.625 c 0
 107.561130127 14.8907558429 101.303332732 23.786025946 98.2445051614 33.6882209397 c 0
 96.7882698425 38.2238830584 96.0000012049 43.034589837 96 48 c 0
 96 401.840142033 283.550912186 612.480775772 499.576739442 670.364454026 c 1
 692.953664725 727.698982742 800 820.973835714 800 944 c 0
 800 1055.31365487 681.982644958 1168 512 1168 c 0
 374.576492497 1168 271.117860221 1094.34850858 236.525822889 1007.31447806 c 1
 284.096199259 1001.61674803 321 961.099513634 321 912 c 1
 321 859 278 816 225 816 c 0
 172 816 129 859 129 912 c 0
 129 917.779989895 129.511411953 923.441046777 130.491433468 928.940368285 c 0
 128.877593385 933.693673316 128.000000046 938.760650848 128 944 c 0
 128 1132.6860915 311.572277297 1264 512 1264 c 0
 712.428056453 1264 896 1132.68634513 896 944 c 0
 896 747.026164286 725.837230313 636.252189133 524.423260558 577.635545974 c 0
 377.297442349 538.213484121 236.338708528 409.135281557 200.644644571 169.694028661 c 1
 243.642394196 199.128629153 300.067936003 224 368 224 c 0
 546.508789062 224 564.493164062 80 656 80 c 0
 737.52335612 80 832 116.626953125 832 336 c 0
 832 362.146484375 853.85546875 384 880 384 c 0
EndSplineSet
Validated: 1
EndChar

StartChar: y
Encoding: 121 121 95
Width: 1024
VWidth: 0
Flags: HW
LayerCount: 2
Fore
SplineSet
16 816 m 0
 16 842.14453125 37.853515625 864 64 864 c 2
 384 864 l 2
 410.14453125 864 432 842.146484375 432 816 c 0
 432 789.853515625 410.14453125 768 384 768 c 2
 270.796100439 768 l 1
 512.108196016 107.566896317 l 1
 753.218694186 768 l 1
 640 768 l 2
 613.85546875 768 592 789.853515625 592 816 c 0
 592 842.146484375 613.85546875 864 640 864 c 2
 960 864 l 2
 986.146484375 864 1008 842.14453125 1008 816 c 0
 1008 789.85546875 986.146484375 768 960 768 c 2
 855.416226449 768 l 1
 493.191080913 -224.181920383 l 1
 493.191080913 -224.181920383 443.858231694 -400 304 -400 c 0
 300.50365402 -400 297.084012282 -399.609165651 293.783088485 -398.86949706 c 0
 147.871006611 -395.110818586 64 -310.393969244 64 -175 c 0
 64 -170.629761809 64.6106182909 -166.379366122 65.7498372664 -162.330858472 c 0
 64.6014756791 -156.396845065 63.9999993029 -150.268359662 64 -144 c 0
 64 -91 107 -48 160 -48 c 0
 213 -48 256 -91 256 -144 c 0
 256 -158.2734375 252.880859375 -171.821289062 247.288085938 -184 c 0
 233.586593968 -213.835884977 205.034380097 -235.449768219 171.110505753 -239.363307277 c 1
 186.555289082 -274.389964418 222.478685345 -303 304 -303 c 0
 306.109173132 -303 308.190410819 -303.142219118 310.234495103 -303.417436319 c 0
 354.390665996 -295.286954233 398.284841904 -204.587579989 402.849070873 -191.708098639 c 2
 461.025758803 -32.3545621361 l 1
 168.588514945 768 l 1
 64 768 l 2
 37.853515625 768 16 789.85546875 16 816 c 0
EndSplineSet
Validated: 1
EndChar

StartChar: S
Encoding: 83 83 96
Width: 1024
VWidth: 0
Flags: HW
AnchorPoint: "top" 512 1272 basechar 0
LayerCount: 2
Fore
SplineSet
144 0 m 0
 117.855528292 0 96 21.8536339246 96 48 c 2
 96 432 l 2
 96 458.144471708 117.853633925 480 144 480 c 0
 170.146366075 480 192 458.144471708 192 432 c 0
 192 234.104941184 338.897683122 80 512 80 c 0
 698.567382812 80 832 197.44140625 832 320 c 0
 832 448.871282809 725.525390625 584.154296875 503.665039062 623.274414062 c 0
 249.870117188 668.025390625 128 803.735278993 128 960 c 0
 128 1138.54101562 311.622070312 1264 512 1264 c 0
 627.173596603 1264 729.859469908 1211.19828708 800 1128.22552556 c 1
 800 1200 l 2
 800 1226.14636608 821.855528292 1248 848 1248 c 0
 874.144471708 1248 896 1226.14636608 896 1200 c 2
 896 864 l 2
 896 837.855528292 874.146366075 816 848 816 c 0
 821.853633925 816 800 837.855528292 800 864 c 0
 800 1033.34786575 668.555411908 1168 512 1168 c 0
 342.377929688 1168 224 1063.45898438 224 960 c 0
 224 860.264721007 301.422851562 756.416015625 520.334960938 717.81640625 c 0
 771.182617188 673.584960938 928 511.128717191 928 320 c 0
 928 124.55859375 731.432617188 -16 512 -16 c 0
 382.155286425 -16 267.788298347 47.3760124375 192 145.762784121 c 1
 192 48 l 2
 192 21.8536339246 170.144471708 0 144 0 c 0
EndSplineSet
Validated: 1
EndChar

StartChar: s
Encoding: 115 115 97
Width: 1024
VWidth: 0
Flags: HW
AnchorPoint: "top" 512 912 basechar 0
LayerCount: 2
Fore
SplineSet
144 0 m 0
 117.855528292 0 96 21.8536339246 96 48 c 2
 96 304 l 2
 96 330.144471708 117.853633925 352 144 352 c 0
 170.146366075 352 192 330.144471708 192 304 c 0
 192 192.68634513 323.130394491 80 512 80 c 0
 711.530245989 80 832 173.704828177 832 240 c 0
 832 308.929029122 706.606634272 398.974125654 512 416 c 0
 322.33449143 432.593581862 128 510.546618999 128 656 c 0
 128 804.396837857 326.3756653 880 512 880 c 0
 621.387416192 880 727.235360977 844.538442517 800 783.732216771 c 1
 800 816 l 2
 800 842.144471708 821.853633925 864 848 864 c 0
 874.146366075 864 896 842.144471708 896 816 c 2
 896 592 l 2
 896 565.853633925 874.144471708 544 848 544 c 0
 821.855528292 544 800 565.853633925 800 592 c 0
 800 683.934668472 684.214193152 784 512 784 c 0
 327.6243347 784 224 701.603162143 224 656 c 0
 224 607.453381001 333.073470276 527.654042955 512 512 c 0
 721.848413153 493.64064279 928 401.070970878 928 240 c 0
 928 76.2951718233 718.469754011 -16 512 -16 c 0
 388.260228052 -16 270.451032676 26.6468804786 192 98.2554404009 c 1
 192 48 l 2
 192 21.8536339246 170.144471708 0 144 0 c 0
EndSplineSet
Validated: 1
EndChar

StartChar: a
Encoding: 97 97 98
Width: 1024
VWidth: 0
Flags: HW
AnchorPoint: "top" 512 912 basechar 0
LayerCount: 2
Fore
SplineSet
720 656 m 0
 720 707.128729701 632.447064355 784 480 784 c 0
 399.067813375 784 336.424815971 762.333755947 295.462381902 734.355849534 c 1
 319.987909273 716.960077775 336 688.341909902 336 656 c 0
 336 603 293 560 240 560 c 0
 187 560 144 603 144 656 c 0
 144 798.871936523 314.445064991 880 480 880 c 0
 645.552935645 880 816 798.871270299 816 656 c 2
 816 208 l 1
 816 128 l 2
 816 110.581054688 830.581054688 96 848 96 c 0
 892.579101562 96 928 131.423828125 928 176 c 0
 928 202.14453125 949.853515625 224 976 224 c 0
 1002.14648438 224 1024 202.14453125 1024 176 c 0
 1024 78.576171875 945.420898438 0 848 0 c 0
 798.571381523 0 755.597910278 28.1602086218 734.279857828 69.2803543024 c 1
 656.877776795 13.4539353985 537.167293737 -16 432 -16 c 0
 243.125 -16 96 75.271484375 96 240 c 0
 96 404.729492188 275.124023438 512 464 512 c 0
 627.551757812 512 720 606.8046875 720 656 c 0
720 491.964338566 m 1
 652.139003901 443.707513055 557.035728613 416 464 416 c 0
 298.875976562 416 192 323.270507812 192 240 c 0
 192 156.728515625 266.875 80 432 80 c 0
 595.551757812 80 720 158.8046875 720 208 c 2
 720 491.964338566 l 1
EndSplineSet
Validated: 1
EndChar

StartChar: dollar
Encoding: 36 36 99
Width: 1024
VWidth: 0
Flags: HW
LayerCount: 2
Fore
SplineSet
416 1440 m 0
 442.14453125 1440 464 1418.14648438 464 1392 c 2
 464 1261.59657888 l 1
 479.833208778 1263.18625711 495.862264074 1264 512 1264 c 0
 528.267981587 1264 544.286822431 1262.94656074 560 1260.90345563 c 1
 560 1392 l 2
 560 1418.14648438 581.85546875 1440 608 1440 c 0
 634.14453125 1440 656 1418.14648438 656 1392 c 2
 656 1234.86786556 l 1
 711.784015434 1211.28335585 760.938767722 1174.43302223 800 1128.22552556 c 1
 800 1200 l 2
 800 1226.14636608 821.855528292 1248 848 1248 c 0
 874.144471708 1248 896 1226.14636608 896 1200 c 2
 896 864 l 2
 896 837.855528292 874.146366075 816 848 816 c 0
 821.853633925 816 800 837.855528292 800 864 c 0
 800 977.007407311 741.467499605 1074.56474591 656 1126.96957297 c 1
 656 679.072868932 l 1
 826.422611099 609.077914844 928 473.825156865 928 320 c 0
 928 168.96705267 810.61254349 50.7093993563 656 4.76583504704 c 1
 656 -146 l 2
 656 -172.14453125 634.146484375 -194 608 -194 c 0
 581.853515625 -194 560 -172.14453125 560 -146 c 2
 560 -13.7508867246 l 1
 544.169948337 -15.2389167086 528.146878415 -16 512 -16 c 0
 495.742234636 -16 479.727119272 -15.00643092 464 -13.0749723977 c 1
 464 -146 l 2
 464 -172.14453125 442.146484375 -194 416 -194 c 0
 389.853515625 -194 368 -172.14453125 368 -146 c 2
 368 11.4394624199 l 1
 298.518687688 38.989820509 238.117068969 85.8945770973 192 145.762784121 c 1
 192 48 l 2
 192 21.8536339246 170.144471708 0 144 0 c 0
 117.855528292 0 96 21.8536339246 96 48 c 2
 96 432 l 2
 96 458.144471708 117.853633925 480 144 480 c 0
 170.146366075 480 192 458.144471708 192 432 c 0
 192 292.817905705 264.662741471 175.296534226 368 117.813601527 c 1
 368 660.142694601 l 1
 206.274819304 722.733330654 128 834.76567959 128 960 c 0
 128 1094.08088011 231.557744275 1198.22496991 368 1241.77829078 c 1
 368 1392 l 2
 368 1418.14648438 389.85546875 1440 416 1440 c 0
464 83.9900421834 m 1
 479.701906576 81.3605171489 495.735279341 80 512 80 c 0
 528.430381806 80 544.448663586 80.9108463359 560 82.6558188978 c 1
 560 610.662227327 l 1
 542.125863115 615.575534818 523.349617482 619.803478362 503.665039062 623.274414062 c 0
 490.065050941 625.672463421 476.843886974 628.331702727 464 631.241298584 c 1
 464 83.9900421834 l 1
560 1163.7272513 m 1
 544.35282938 1166.53805705 528.312731103 1168 512 1168 c 0
 495.494141004 1168 479.473521073 1167.0100842 464 1165.12757795 c 1
 464 729.93278329 l 1
 481.63718872 725.387795015 500.399380814 721.331541195 520.334960938 717.81640625 c 0
 533.83212892 715.436478702 547.057068828 712.714277246 560 709.663751898 c 1
 560 1163.7272513 l 1
368 1139.73081334 m 1
 279.107763591 1101.68242808 224 1030.5893583 224 960 c 0
 224 888.264321251 264.053638404 814.400618412 368 764.218659026 c 1
 368 1139.73081334 l 1
656 105.74458145 m 1
 763.484843377 146.982459452 832 232.177439626 832 320 c 0
 832 414.694018172 774.511782472 512.849885167 656 573.7727809 c 1
 656 105.74458145 l 1
EndSplineSet
Validated: 1
EndChar

StartChar: at
Encoding: 64 64 100
Width: 1024
VWidth: 0
Flags: HW
LayerCount: 2
Fore
SplineSet
803.281868825 170.813728872 m 4
 811.667945806 161.722480043 815.808185511 150.020616686 815.808185511 138.335874549 c 4
 815.808185511 125.32125088 810.671884709 112.327867463 800.545195225 102.986664822 c 4
 720.615864552 29.2571329816 620.729716381 -16 512 -16 c 4
 227.269827587 -16 16 281.897002065 16 624 c 4
 16 966.103249802 227.269636937 1264 512 1264 c 4
 796.730172413 1264 1008 1062.10253906 1008 720 c 4
 1008 482.358398438 901.310546875 384 752 384 c 4
 751.891601562 384 751.783203125 384.000976562 751.674804688 384.000976562 c 4
 751.540039062 384.000976562 751.40625 383.999023438 751.272460938 383.999023438 c 6
 751.272460938 383.999023438 751.165225079 383.997817018 750.956215512 383.997817018 c 0
 744.866343602 383.997817018 652.375309443 385.022011293 608.59375 446.75390625 c 5
 561.4375 398.958984375 502.465820312 368 440.266601562 368 c 4
 426.197265625 368 412.416992188 369.729492188 399.255859375 373.192382812 c 4
 317.573779302 394.683062723 278.886684106 471.061018272 278.886684106 556.607740161 c 4
 278.886684106 582.791133063 282.51087632 609.833452473 289.635742188 636.423828125 c 4
 324.13671875 765.182617188 431.951171875 880 551.733398438 880 c 4
 565.802734375 880 579.583007812 878.270507812 592.744140625 874.807617188 c 4
 621.361328125 867.278320312 644.701171875 853.01171875 662.94921875 833.974609375 c 5
 670.344290258 852.109102762 688.495480212 863.956875342 707.766990465 863.956875342 c 4
 711.781459671 863.956875342 715.844543504 863.442758927 719.869140625 862.364257812 c 4
 741.098407339 856.676029311 755.403196704 836.855214441 755.403196704 815.679580262 c 4
 755.403196704 811.665108369 754.889075567 807.601943606 753.810546875 803.577148438 c 6
 685.215820312 547.577148438 l 6
 682.952651046 539.129151639 681.995471401 533.396728505 681.995471401 526.915375302 c 4
 681.995471401 491.308428217 732.992489328 481.301445528 753.278320312 480.002929688 c 4
 867.262695312 480.547851562 912 553.903320312 912 720 c 4
 912 1031.89746094 721.269827587 1168 512 1168 c 4
 302.730363063 1168 112 935.896750198 112 624 c 4
 112 312.102997935 302.730172413 80 512 80 c 4
 593.473709009 80 670.152360947 113.313208304 735.454804775 173.550402472 c 4
 744.546366236 181.936767834 756.248007695 186.076732683 767.932327783 186.076732683 c 4
 780.947421595 186.076732683 793.941023746 180.940030727 803.281868825 170.813728872 c 4
382.364257812 611.576171875 m 4
 376.66099885 590.291013343 374.211726482 571.393241313 374.211726482 554.835226779 c 4
 374.211726482 501.406085804 399.713885389 472.338819903 423.681640625 466.033203125 c 4
 428.551757812 464.751953125 434.0078125 464 440.266601562 464 c 4
 496.484375 464 582.5078125 535.182617188 609.635742188 636.423828125 c 4
 615.33900115 657.708986657 617.788273518 676.606758687 617.788273518 693.164773221 c 4
 617.788273518 746.593914196 592.286114611 775.661180097 568.318359375 781.966796875 c 4
 563.448242188 783.248046875 557.9921875 784 551.733398438 784 c 4
 495.515625 784 409.4921875 712.817382812 382.364257812 611.576171875 c 4
EndSplineSet
Validated: 1
EndChar

StartChar: ampersand
Encoding: 38 38 101
Width: 1024
VWidth: 0
Flags: HW
LayerCount: 2
Fore
SplineSet
1024 720 m 0
 1024 693.85546875 1002.14648438 672 976 672 c 2
 893.803567622 672 l 1
 880.774366498 565.514636213 810.67971654 366.908930454 707.671875 213.69921875 c 1
 766.0703125 134.405273438 819.830078125 85.15625 833.768554688 80.0087890625 c 1
 885.448242188 80.740234375 912 110.470064766 912 304 c 0
 912 330.144471708 933.853633925 352 960 352 c 0
 986.146366075 352 1008 330.144471708 1008 304 c 0
 1008 115.195679341 970.836914062 -16 832 -16 c 0
 761.799804688 -16 706.534179688 56.732421875 647.452148438 133.99609375 c 1
 576.682617188 51.455078125 488.22265625 -16 384 -16 c 0
 227.921875 -16 96 109.766866543 96 368 c 0
 96 544.358119428 195.619585234 674.150889568 286.945684549 778.018637497 c 1
 240.321024538 885.227139547 208 975.225746708 208 1040 c 0
 208 1174.95873975 278.934578487 1264 384 1264 c 0
 486.650822421 1264 560 1183.6649047 560 1040 c 0
 560 930.527566451 476.225610204 844.894515146 400.106880872 760.523425458 c 1
 467.568050929 615.349315287 561.249023438 430.911132812 648.450195312 298.915039062 c 1
 727.727887155 427.09912411 781.919077566 593.924116738 796.229921629 672 c 1
 656 672 l 2
 629.85546875 672 608 693.853515625 608 720 c 0
 608 746.146484375 629.85546875 768 656 768 c 2
 976 768 l 2
 1002.14648438 768 1024 746.14453125 1024 720 c 0
357.745296641 857.072154991 m 1
 423.75227182 931.563737043 464 990.969339286 464 1040 c 0
 464 1152.3350953 425.349177579 1168 384 1168 c 0
 345.065421513 1168 304 1145.04126025 304 1040 c 0
 304 1011.80568288 323.217928399 941.402049427 357.745296641 857.072154991 c 1
589.4765625 214.548828125 m 1
 500.513671875 344.927734375 404.405336916 529.780349798 331.037206224 682.051846371 c 1
 253.76767006 589.627270574 192 490.955520518 192 368 c 0
 192 146.233133457 284.078125 80 384 80 c 0
 449.088867188 80 521.780273438 129.784179688 589.4765625 214.548828125 c 1
EndSplineSet
Validated: 1
EndChar

StartChar: exclamdown
Encoding: 161 161 102
Width: 1024
VWidth: 0
Flags: HW
LayerCount: 2
Fore
SplineSet
704 735 m 0
 704 656 618 591 512 591 c 0
 406 591 320 656 320 735 c 0
 320 759.123046875 328.018554688 781.940429688 342.176757812 802 c 0
 374.384765625 847.634765625 438.3671875 879 512 879 c 0
 618 879 704 814 704 735 c 0
320.024486152 -258.307709528 m 0
 320.008178344 -257.870501456 320.000000016 -257.437071809 320 -257.0078125 c 0
 320 -256.768970934 320.000387609 -256.530140299 320.000387609 -256.291320773 c 0
 320.000387609 -256.194235076 320 -256.097128122 320 -256 c 0
 320 -255.772112727 320.002145224 -255.544341975 320.002145224 -255.31668897 c 0
 320.6535539 1.60100440339 469.441529292 245.363486321 470.833007812 247.682617188 c 0
 472.827015946 251.00852613 475.179575499 254.000478966 477.812913179 256.642229569 c 0
 479.739440689 258.630792621 481.85843541 260.46293134 484.163085938 262.103515625 c 0
 492.553644163 268.076461558 502.318306372 270.878136612 512 270.812958981 c 0
 521.681693628 270.878136612 531.446355837 268.076461558 539.836914062 262.103515625 c 0
 542.105032343 260.48892963 544.192293455 258.688697771 546.092710208 256.736632671 c 0
 548.764236845 254.071824361 551.149193396 251.048206803 553.166992188 247.682617188 c 0
 554.558466672 245.363493048 703.345582961 1.60241850121 703.997844878 -255.314453358 c 0
 703.997844878 -255.542850817 704 -255.771366773 704 -256 c 2
 703.999612391 -256.291320769 l 1
 704 -257.0078125 l 2
 704 -257.61575687 703.987664304 -258.223041861 703.963184752 -258.829324748 c 0
 701.939361523 -336.545992045 616.731835832 -400 512 -400 c 0
 407.033948577 -400 321.679630781 -336.261865714 320.024486152 -258.307709528 c 0
EndSplineSet
Validated: 1
EndChar

StartChar: questiondown
Encoding: 191 191 103
Width: 1024
VWidth: 0
Flags: HW
LayerCount: 2
Fore
SplineSet
814.925107254 -190.484493941 m 1
 770.064443014 -182.423773982 736 -143.172868736 736 -96 c 1
 736 -43 779 0 832 0 c 0
 885 0 928 -43 928 -96 c 2
 928 -144 l 2
 928 -307.701171875 718.442382812 -400 512 -400 c 0
 305.530273438 -400 96 -307.705078125 96 -144 c 0
 96 14.3828125 224.00390625 41.6318359375 296.896484375 81.658203125 c 0
 388.842773438 132.146484375 464 155.35546875 464 384 c 0
 464 410.14453125 485.853515625 432 512 432 c 0
 538.146484375 432 560 410.14453125 560 384 c 0
 560 118.728515625 440.333007812 50.8984375 343.103515625 -2.490234375 c 0
 237.48046875 -60.4873046875 192 -53.705078125 192 -144 c 0
 192 -210.294921875 312.469726562 -304 512 -304 c 0
 667.620112744 -304 775.128054856 -247.017715801 814.925107254 -190.484493941 c 1
704 736 m 0
 704 657 618 592 512 592 c 0
 406 592 320 657 320 736 c 0
 320 760.123046875 328.018554688 782.940429688 342.176757812 803 c 0
 374.384765625 848.634765625 438.3671875 880 512 880 c 0
 618 880 704 815 704 736 c 0
EndSplineSet
Validated: 1
EndChar

StartChar: periodcentered
Encoding: 183 183 104
Width: 1024
VWidth: 0
Flags: HW
LayerCount: 2
Fore
SplineSet
320 624 m 4
 320 703 406 768 512 768 c 4
 618 768 704 703 704 624 c 4
 704 599.876953125 695.981445312 577.059570312 681.823242188 557 c 4
 649.615234375 511.365234375 585.6328125 480 512 480 c 4
 406 480 320 545 320 624 c 4
EndSplineSet
Validated: 1
EndChar

StartChar: acute
Encoding: 180 180 105
Width: 1024
VWidth: 0
Flags: HW
LayerCount: 2
Fore
SplineSet
737.94140625 1233.94140625 m 4
 747.18481444 1224.69750976 751.806884775 1212.34846879 751.806884775 1199.99938775 c 0
 751.806884775 1187.65095902 747.185302721 1175.30249022 737.94140625 1166.05859375 c 6
 353.94140625 782.05859375 l 6
 344.697509765 772.81518556 332.348468794 768.193115225 319.999387756 768.193115225 c 0
 307.65095902 768.193115225 295.302490221 772.814697279 286.05859375 782.05859375 c 4
 276.814697279 791.302490221 272.193115225 803.65095902 272.193115225 815.999387756 c 0
 272.193115225 828.348468794 276.81518556 840.697509765 286.05859375 849.94140625 c 6
 670.05859375 1233.94140625 l 6
 679.302490222 1243.18530272 691.650959022 1247.80688478 703.999387758 1247.80688478 c 0
 716.348468796 1247.80688478 728.697509766 1243.18481444 737.94140625 1233.94140625 c 4
EndSplineSet
Validated: 1
EndChar

StartChar: degree
Encoding: 176 176 106
Width: 1024
VWidth: 0
Flags: HW
LayerCount: 2
Fore
SplineSet
416 1072 m 4
 416 1019.62792969 459.627929688 976 512 976 c 4
 564.372070312 976 608 1019.62792969 608 1072 c 4
 608 1124.37207031 564.372070312 1168 512 1168 c 4
 459.627929688 1168 416 1124.37207031 416 1072 c 4
320 1072 m 4
 320 1177.62792969 406.372070312 1264 512 1264 c 4
 617.627929688 1264 704 1177.62792969 704 1072 c 4
 704 966.372070312 617.627929688 880 512 880 c 4
 406.372070312 880 320 966.372070312 320 1072 c 4
EndSplineSet
Validated: 1
EndChar

StartChar: plusminus
Encoding: 177 177 107
Width: 1024
VWidth: 0
Flags: HW
LayerCount: 2
Fore
SplineSet
96 720 m 0
 96 746.14453125 117.853515625 768 144 768 c 2
 464 768 l 1
 464 1088 l 2
 464 1114.14453125 485.853515625 1136 512 1136 c 0
 538.146484375 1136 560 1114.14453125 560 1088 c 2
 560 768 l 1
 880 768 l 2
 906.14453125 768 928 746.146484375 928 720 c 0
 928 693.853515625 906.14453125 672 880 672 c 2
 560 672 l 1
 560 352 l 2
 560 325.853515625 538.14453125 304 512 304 c 0
 485.85546875 304 464 325.853515625 464 352 c 2
 464 672 l 1
 144 672 l 2
 117.853515625 672 96 693.85546875 96 720 c 0
96 160 m 0
 96 186.14453125 117.853515625 208 144 208 c 2
 880 208 l 2
 906.14453125 208 928 186.146484375 928 160 c 0
 928 133.853515625 906.14453125 112 880 112 c 2
 144 112 l 2
 117.853515625 112 96 133.85546875 96 160 c 0
EndSplineSet
Validated: 1
EndChar

StartChar: cent
Encoding: 162 162 108
Width: 1024
VWidth: 0
Flags: HW
LayerCount: 2
Fore
SplineSet
880 496 m 0
 906.14453125 496 928 474.146484375 928 448 c 0
 928 277.965820312 721.311523438 176 512 176 c 0
 457.17628246 176 405.11182419 187.298352295 357.545491317 207.759927947 c 1
 170.932617188 -165.465820312 l 2
 162.600793528 -182.129467631 145.319385747 -191.881245677 127.613065897 -191.881245677 c 0
 120.469320541 -191.881245677 113.25640891 -190.293872167 106.534179688 -186.932617188 c 0
 89.8715935161 -178.601324102 80.1186717512 -161.320091851 80.1186717512 -143.613039909 c 0
 80.1186717512 -136.469492112 81.7060123633 -129.256639864 85.0673828125 -122.534179688 c 2
 274.382251624 256.095557935 l 1
 165.95403094 337.599495128 96 473.118858617 96 624 c 0
 96 868.104492188 279.102539062 1072 512 1072 c 0
 566.733464465 1072 618.797896615 1060.64479263 666.397634483 1040.12632365 c 1
 853.067382812 1413.46582031 l 2
 861.398675898 1430.12840649 878.67990815 1439.88132825 896.386960093 1439.88132825 c 0
 903.530507889 1439.88132825 910.743360137 1438.29398764 917.465820312 1434.93261719 c 0
 934.129467631 1426.60079353 943.881245677 1409.31938575 943.881245677 1391.6130659 c 0
 943.881245677 1384.46932054 942.293872167 1377.25640891 938.932617188 1370.53417969 c 2
 749.55112932 991.771203954 l 1
 767.46295153 978.31742204 784.327872903 963.400292283 800 947.19790528 c 1
 800 1008 l 2
 800 1034.14453125 821.853515625 1056 848 1056 c 0
 874.146484375 1056 896 1034.14453125 896 1008 c 2
 896 768 l 2
 896 741.853515625 874.14453125 720 848 720 c 0
 821.85546875 720 800 741.853515625 800 768 c 2
 800 777.52585695 l 1
 777.787335982 827.80225196 745.27518018 870.990966436 705.725706634 904.120358582 c 1
 400.700553125 294.070051562 l 1
 435.567018581 279.773254537 473.122598179 272 512 272 c 0
 708.688476562 272 832 370.034179688 832 448 c 0
 832 474.146484375 853.85546875 496 880 496 c 0
512 976 m 0
 338.897460938 976 192 821.895507812 192 624 c 0
 192 508.391559066 242.13274747 407.727991336 318.335745717 344.00254612 c 1
 623.353803725 954.038662135 l 1
 588.518241932 968.279458841 550.961095543 976 512 976 c 0
EndSplineSet
Validated: 1
EndChar

StartChar: brokenbar
Encoding: 166 166 109
Width: 1024
VWidth: 0
Flags: HW
LayerCount: 2
Fore
SplineSet
512 1440 m 0
 538.14453125 1440 560 1418.14648438 560 1392 c 2
 560 816 l 2
 560 789.85546875 538.146484375 768 512 768 c 0
 485.853515625 768 464 789.85546875 464 816 c 2
 464 1392 l 2
 464 1418.14648438 485.85546875 1440 512 1440 c 0
512 480 m 0
 538.14453125 480 560 458.146484375 560 432 c 2
 560 -144 l 2
 560 -170.14453125 538.146484375 -192 512 -192 c 0
 485.853515625 -192 464 -170.14453125 464 -144 c 2
 464 432 l 2
 464 458.146484375 485.85546875 480 512 480 c 0
EndSplineSet
Validated: 1
EndChar

StartChar: dieresis
Encoding: 168 168 110
Width: 1024
VWidth: 0
Flags: HW
LayerCount: 2
Fore
SplineSet
608 1168 m 4
 608 1221 651 1264 704 1264 c 4
 757 1264 800 1221 800 1168 c 4
 800 1115 757 1072 704 1072 c 4
 651 1072 608 1115 608 1168 c 4
224 1168 m 4
 224 1221 267 1264 320 1264 c 4
 373 1264 416 1221 416 1168 c 4
 416 1115 373 1072 320 1072 c 4
 267 1072 224 1115 224 1168 c 4
EndSplineSet
Validated: 1
EndChar

StartChar: copyright
Encoding: 169 169 111
Width: 1024
VWidth: 0
Flags: HW
LayerCount: 2
Fore
SplineSet
16 624 m 0
 16 897.535007696 238.464968923 1120 512 1120 c 0
 785.535007696 1120 1008 897.535031077 1008 624 c 0
 1008 350.464992304 785.535031077 128 512 128 c 0
 238.464992304 128 16 350.464968923 16 624 c 0
112 624 m 0
 112 403.535031077 291.535007696 224 512 224 c 0
 732.464968923 224 912 403.535007696 912 624 c 0
 912 844.464968923 732.464992304 1024 512 1024 c 0
 291.535031077 1024 112 844.464992304 112 624 c 0
696 608 m 0
 722.14453125 608 744 586.146484375 744 560 c 0
 744 446.874023438 626.788085938 378.666992188 512 378.666992188 c 0
 381.143554688 378.666992188 280 491.34375 280 624 c 0
 280 756.65625 381.143554688 869.333007812 512 869.333007812 c 0
 557.443267391 869.333007812 599.455172639 855.570458718 634.862668477 832.112052473 c 1
 641.607219327 850.54097425 659.48176254 863.999999996 680 864 c 0
 706.146484375 864 728 842.14453125 728 816 c 2
 728 688 l 2
 728 661.853515625 706.14453125 640 680 640 c 0
 653.85546875 640 632 661.853515625 632 688 c 2
 632 694.273000538 l 1
 608.484365261 742.555603409 562.606270801 773.333007812 512 773.333007812 c 0
 439.856445312 773.333007812 376 709.34375 376 624 c 0
 376 538.65625 439.856445312 474.666992188 512 474.666992188 c 0
 600.211914062 474.666992188 648 525.791992188 648 560 c 0
 648 586.146484375 669.85546875 608 696 608 c 0
EndSplineSet
Validated: 1
EndChar

StartChar: registered
Encoding: 174 174 112
Width: 1024
VWidth: 0
Flags: HW
LayerCount: 2
Fore
SplineSet
16 624 m 0
 16 897.535007696 238.464968923 1120 512 1120 c 0
 785.535007696 1120 1008 897.535031077 1008 624 c 0
 1008 350.464992304 785.535031077 128 512 128 c 0
 238.464992304 128 16 350.464968923 16 624 c 0
112 624 m 0
 112 403.535031077 291.535007696 224 512 224 c 0
 732.464968923 224 912 403.535007696 912 624 c 0
 912 844.464968923 732.464992304 1024 512 1024 c 0
 291.535031077 1024 112 844.464992304 112 624 c 0
248 816 m 0
 248 842.144471708 269.853633925 864 296 864 c 2
 528 864 l 2
 617.46008629 864 720 815.633241924 720 720 c 0
 720 672.079538749 694.252804342 636.026890966 657.306120634 611.980768532 c 1
 686.544925966 578.227623272 704 533.301098784 704 485.333007812 c 2
 704 480 l 1
 728 480 l 2
 754.146366075 480 776 458.144471708 776 432 c 0
 776 405.855528292 754.146366075 384 728 384 c 2
 656 384 l 2
 626.945527317 384 608 411.398583681 608 432 c 2
 608 485.333007812 l 2
 608 538.732783827 568.760909303 576 528 576 c 2
 432 576 l 1
 432 480 l 1
 480 480 l 2
 506.144471708 480 528 458.146366075 528 432 c 0
 528 405.853633925 506.144471708 384 480 384 c 2
 296 384 l 2
 269.853633925 384 248 405.855528292 248 432 c 0
 248 458.144471708 269.853633925 480 296 480 c 2
 336 480 l 1
 336 768 l 1
 296 768 l 2
 269.853633925 768 248 789.855528292 248 816 c 0
432 768 m 1
 432 672 l 1
 528 672 l 2
 597.541356595 672 624 709.632509515 624 720 c 0
 624 730.366758076 597.53991371 768 528 768 c 2
 432 768 l 1
EndSplineSet
Validated: 1
EndChar

StartChar: multiply
Encoding: 215 215 113
Width: 1024
VWidth: 0
Flags: HW
LayerCount: 2
Fore
SplineSet
217.84375 329.84375 m 0
 208.599975589 339.087036123 203.977905271 351.435628868 203.977905271 363.784424757 c 0
 203.977905271 376.132894505 208.599731449 388.481567386 217.84375 397.725585938 c 2
 444.118164062 624 l 1
 217.84375 850.274414062 l 2
 208.599975589 859.517700186 203.977905271 871.866292931 203.977905271 884.215088819 c 0
 203.977905271 896.563558568 208.599731449 908.912231449 217.84375 918.15625 c 0
 227.087768551 927.400268551 239.436441432 932.022094729 251.784911181 932.022094729 c 0
 264.133707069 932.022094729 276.482299814 927.400024411 285.725585938 918.15625 c 2
 512 691.881835938 l 1
 738.274414062 918.15625 l 2
 747.517700186 927.400024411 759.866292931 932.022094729 772.215088819 932.022094729 c 0
 784.563558568 932.022094729 796.912231449 927.400268551 806.15625 918.15625 c 0
 815.400268551 908.912231449 820.022094729 896.563558568 820.022094729 884.215088819 c 0
 820.022094729 871.866292931 815.400024411 859.517700186 806.15625 850.274414062 c 2
 579.881835938 624 l 1
 806.15625 397.725585938 l 2
 815.400268551 388.481567386 820.022094729 376.132894505 820.022094729 363.784424757 c 0
 820.022094729 351.435628868 815.400024411 339.087036123 806.15625 329.84375 c 0
 796.912963877 320.599975589 784.564371132 315.977905271 772.215575243 315.977905271 c 0
 759.867105495 315.977905271 747.518432614 320.599731449 738.274414062 329.84375 c 2
 512 556.118164062 l 1
 285.725585938 329.84375 l 2
 276.481567386 320.599731449 264.132894505 315.977905271 251.784424757 315.977905271 c 0
 239.435628868 315.977905271 227.087036123 320.599975589 217.84375 329.84375 c 0
EndSplineSet
Validated: 1
EndChar

StartChar: divide
Encoding: 247 247 114
Width: 1024
VWidth: 0
Flags: HW
LayerCount: 2
Fore
SplineSet
416 336 m 4
 416 389 459 432 512 432 c 4
 565 432 608 389 608 336 c 4
 608 283 565 240 512 240 c 4
 459 240 416 283 416 336 c 4
416 912 m 0
 416 965 459 1008 512 1008 c 0
 565 1008 608 965 608 912 c 0
 608 859 565 816 512 816 c 0
 459 816 416 859 416 912 c 0
96 624 m 0
 96 650.14453125 117.853515625 672 144 672 c 2
 880 672 l 2
 906.14453125 672 928 650.146484375 928 624 c 0
 928 597.853515625 906.14453125 576 880 576 c 2
 144 576 l 2
 117.853515625 576 96 597.85546875 96 624 c 0
EndSplineSet
Validated: 1
EndChar

StartChar: dotlessi
Encoding: 305 305 115
Width: 1024
VWidth: 0
Flags: HW
AnchorPoint: "top" 464 912 basechar 0
LayerCount: 2
Fore
SplineSet
160 48 m 0
 160 74.14453125 181.853515625 96 208 96 c 2
 464 96 l 1
 464 768 l 1
 208 768 l 2
 181.853515625 768 160 789.85546875 160 816 c 0
 160 842.14453125 181.853515625 864 208 864 c 2
 512 864 l 2
 541.0546875 864 560 836.6015625 560 816 c 2
 560 96 l 1
 816 96 l 2
 842.14453125 96 864 74.146484375 864 48 c 0
 864 21.853515625 842.14453125 -3.20167590865e-15 816 0 c 2
 208 0 l 2
 181.853515625 0 160 21.85546875 160 48 c 0
EndSplineSet
Validated: 1
EndChar

StartChar: gravecomb
Encoding: 768 768 116
Width: 1024
VWidth: 0
Flags: HW
AnchorPoint: "top" 512 1272 mark 0
LayerCount: 2
Fore
SplineSet
310.840339566 1608.69579626 m 0
 319.752520401 1623.54943099 335.92222148 1631.85289697 352.34107293 1631.85289697 c 0
 360.703314068 1631.85289697 369.130183303 1629.69902821 376.695796261 1625.15966043 c 2
 696.695796261 1433.15966043 l 2
 711.549430987 1424.2474796 719.852896967 1408.07777851 719.852896967 1391.65892706 c 0
 719.852896967 1383.29668593 717.699028208 1374.8698167 713.159660434 1367.30420374 c 0
 704.247029196 1352.44981834 688.077338463 1344.14716849 671.659064197 1344.14716849 c 0
 663.296573875 1344.14716849 654.869594114 1346.30110534 647.304203739 1350.84033957 c 2
 327.304203739 1542.84033957 l 2
 312.449818342 1551.7529708 304.14716849 1567.92266154 304.14716849 1584.3409358 c 0
 304.14716849 1592.70342612 306.301105341 1601.13040588 310.840339566 1608.69579626 c 0
EndSplineSet
Validated: 1
EndChar

StartChar: acutecomb
Encoding: 769 769 117
Width: 1024
VWidth: 0
Flags: HW
AnchorPoint: "top" 512 1272 mark 0
LayerCount: 2
Fore
SplineSet
310.840339566 1367.30420374 m 0
 306.301105341 1374.86959412 304.14716849 1383.29657388 304.14716849 1391.6590642 c 0
 304.14716849 1408.07733846 312.449818342 1424.2470292 327.304203739 1433.15966043 c 2
 647.304203739 1625.15966043 l 2
 654.869594114 1629.69889466 663.296573875 1631.85283151 671.659064197 1631.85283151 c 0
 688.077338463 1631.85283151 704.247029196 1623.55018166 713.159660434 1608.69579626 c 0
 717.699028208 1601.1301833 719.852896967 1592.70331407 719.852896967 1584.34107294 c 0
 719.852896967 1567.92222149 711.549430987 1551.7525204 696.695796261 1542.84033957 c 2
 376.695796261 1350.84033957 l 2
 369.130183303 1346.30097179 360.703314068 1344.14710303 352.34107293 1344.14710303 c 0
 335.92222148 1344.14710303 319.752520401 1352.45056901 310.840339566 1367.30420374 c 0
EndSplineSet
Validated: 1
EndChar

StartChar: uni0302
Encoding: 770 770 118
Width: 1024
VWidth: 0
Flags: HW
AnchorPoint: "top" 512 1272 mark 0
LayerCount: 2
Fore
SplineSet
234.518297147 1362.01463772 m 0
 227.557470876 1370.71567056 224.183080943 1381.28815708 224.183080943 1391.82086245 c 0
 224.183080943 1406.00124845 230.299419264 1420.10952809 242.014637717 1429.48170285 c 2
 482.014637717 1621.48170285 l 2
 490.708718413 1628.43696741 501.350235482 1631.72892895 511.874397108 1631.72892895 c 0
 522.810366158 1631.72892895 533.619615908 1628.17429995 541.985362283 1621.48170285 c 2
 781.985362283 1429.48170285 l 2
 793.700085797 1420.10992404 799.816954715 1406.00146199 799.816954715 1391.82057017 c 0
 799.816954715 1381.28823561 796.442750384 1370.71594713 789.481702853 1362.01463772 c 0
 780.109528091 1350.29941927 766.001248454 1344.18308094 751.820862456 1344.18308094 c 0
 741.288157082 1344.18308094 730.715670556 1347.55747088 722.014637717 1354.51829715 c 2
 512 1522.53000732 l 1
 301.985362283 1354.51829715 l 2
 293.284052869 1347.55724962 282.711764397 1344.18304529 272.179429831 1344.18304529 c 0
 257.998538015 1344.18304529 243.890075958 1350.2999142 234.518297147 1362.01463772 c 0
EndSplineSet
Validated: 1
EndChar

StartChar: tildecomb
Encoding: 771 771 119
Width: 1024
VWidth: 0
Flags: HW
AnchorPoint: "top" 512 1272 mark 0
LayerCount: 2
Fore
SplineSet
256 1344 m 0
 229.855528292 1344 208 1365.85363392 208 1392 c 0
 208 1485.15363982 247.75542832 1632 384 1632 c 0
 512 1632 569.853518558 1440 640 1440 c 0
 683.755634649 1440 720 1497.15348061 720 1584 c 0
 720 1610.14447171 741.853633925 1632 768 1632 c 0
 794.146366075 1632 816 1610.14447171 816 1584 c 0
 816 1490.84651939 776.244365351 1344 640 1344 c 0
 512 1344 454.196232238 1536 384 1536 c 0
 340.24457168 1536 304 1478.84636018 304 1392 c 0
 304 1365.85363392 282.144471708 1344 256 1344 c 0
EndSplineSet
Validated: 1
EndChar

StartChar: uni0306
Encoding: 774 774 120
Width: 1024
VWidth: 0
Flags: HW
AnchorPoint: "top" 512 1272 mark 0
LayerCount: 2
Fore
SplineSet
704 1632 m 0
 730.144471708 1632 752 1610.14636608 752 1584 c 0
 752 1451.49038735 644.509840284 1344 512 1344 c 0
 379.490387345 1344 272 1451.49015972 272 1584 c 0
 272 1610.14447171 293.853633925 1632 320 1632 c 0
 346.146366075 1632 368 1610.14447171 368 1584 c 0
 368 1504.50984028 432.509612655 1440 512 1440 c 0
 591.490159716 1440 656 1504.50961265 656 1584 c 0
 656 1610.14636608 677.855528292 1632 704 1632 c 0
EndSplineSet
Validated: 1
EndChar

StartChar: uni0307
Encoding: 775 775 121
Width: 1024
VWidth: 0
Flags: HW
AnchorPoint: "top" 512 1272 mark 0
LayerCount: 2
Fore
SplineSet
416 1464 m 0
 416 1517 459 1560 512 1560 c 0
 565 1560 608 1517 608 1464 c 0
 608 1411 565 1368 512 1368 c 0
 459 1368 416 1411 416 1464 c 0
EndSplineSet
Validated: 1
EndChar

StartChar: uni0308
Encoding: 776 776 122
Width: 1024
VWidth: 0
Flags: HW
AnchorPoint: "top" 512 1272 mark 0
LayerCount: 2
Fore
SplineSet
608 1464 m 0
 608 1517 651 1560 704 1560 c 0
 757 1560 800 1517 800 1464 c 0
 800 1411 757 1368 704 1368 c 0
 651 1368 608 1411 608 1464 c 0
224 1464 m 0
 224 1517 267 1560 320 1560 c 0
 373 1560 416 1517 416 1464 c 0
 416 1411 373 1368 320 1368 c 0
 267 1368 224 1411 224 1464 c 0
EndSplineSet
Validated: 1
EndChar

StartChar: uni0305
Encoding: 773 773 123
Width: 1024
VWidth: 0
Flags: HW
AnchorPoint: "top" 512 1272 mark 0
LayerCount: 2
Fore
SplineSet
96 1488 m 4
 96 1514.14453125 117.853515625 1536 144 1536 c 6
 880 1536 l 6
 906.14453125 1536 928 1514.14648438 928 1488 c 4
 928 1461.85351562 906.14453125 1440 880 1440 c 6
 144 1440 l 6
 117.853515625 1440 96 1461.85546875 96 1488 c 4
EndSplineSet
Validated: 1
EndChar

StartChar: uni0304
Encoding: 772 772 124
Width: 1024
VWidth: 0
Flags: HW
AnchorPoint: "top" 512 1272 mark 0
LayerCount: 2
Fore
SplineSet
304 1488 m 4
 304 1514.14453125 325.853515625 1536 352 1536 c 6
 672 1536 l 6
 698.14453125 1536 720 1514.14648438 720 1488 c 4
 720 1461.85351562 698.14453125 1440 672 1440 c 6
 352 1440 l 6
 325.853515625 1440 304 1461.85546875 304 1488 c 4
EndSplineSet
Validated: 1
EndChar

StartChar: uni030A
Encoding: 778 778 125
Width: 1024
VWidth: 0
Flags: HW
AnchorPoint: "top" 512 1272 mark 0
LayerCount: 2
Fore
SplineSet
448 1488 m 0
 448 1452.45827559 476.458443045 1424 512 1424 c 0
 547.541724413 1424 576 1452.45844304 576 1488 c 0
 576 1523.54172441 547.541556955 1552 512 1552 c 0
 476.458275587 1552 448 1523.54155696 448 1488 c 0
352 1488 m 0
 352 1576.45844304 423.541724413 1648 512 1648 c 0
 600.458443045 1648 672 1576.45827559 672 1488 c 0
 672 1399.54155696 600.458275587 1328 512 1328 c 0
 423.541556955 1328 352 1399.54172441 352 1488 c 0
EndSplineSet
Validated: 1
EndChar

StartChar: uni030B
Encoding: 779 779 126
Width: 1024
VWidth: 0
Flags: HW
AnchorPoint: "top" 512 1272 mark 0
LayerCount: 2
Fore
SplineSet
510.058874503 1358.0588745 m 0
 500.815240452 1367.30250855 496.193172252 1379.65128304 496.193172252 1392.00016872 c 0
 496.193172252 1404.34860705 500.814905572 1416.69715657 510.058874503 1425.9411255 c 2
 702.058874503 1617.9411255 l 2
 711.302508554 1627.18475955 723.651283037 1631.80682775 736.000168722 1631.80682775 c 0
 748.348607046 1631.80682775 760.697156566 1627.18509443 769.941125497 1617.9411255 c 0
 779.185094428 1608.69715657 783.806827748 1596.34860705 783.806827748 1584.00016872 c 0
 783.806827748 1571.65128304 779.184759548 1559.30250855 769.941125497 1550.0588745 c 2
 577.941125497 1358.0588745 l 2
 568.697156566 1348.81490557 556.348607046 1344.19317225 544.000168722 1344.19317225 c 0
 531.651283037 1344.19317225 519.302508554 1348.81524045 510.058874503 1358.0588745 c 0
254.058874503 1358.0588745 m 0
 244.815240452 1367.30250855 240.193172252 1379.65128304 240.193172252 1392.00016872 c 0
 240.193172252 1404.34860705 244.814905572 1416.69715657 254.058874503 1425.9411255 c 2
 446.058874503 1617.9411255 l 2
 455.302508554 1627.18475955 467.651283037 1631.80682775 480.000168722 1631.80682775 c 0
 492.348607046 1631.80682775 504.697156566 1627.18509443 513.941125497 1617.9411255 c 0
 523.185094428 1608.69715657 527.806827748 1596.34860705 527.806827748 1584.00016872 c 0
 527.806827748 1571.65128304 523.184759548 1559.30250855 513.941125497 1550.0588745 c 2
 321.941125497 1358.0588745 l 2
 312.697156566 1348.81490557 300.348607046 1344.19317225 288.000168722 1344.19317225 c 0
 275.651283037 1344.19317225 263.302508554 1348.81524045 254.058874503 1358.0588745 c 0
EndSplineSet
Validated: 1
EndChar

StartChar: uni030C
Encoding: 780 780 127
Width: 1024
VWidth: 0
Flags: HW
AnchorPoint: "top" 512 1272 mark 0
LayerCount: 2
Fore
SplineSet
234.518297147 1362.01463772 m 0
 227.557470876 1370.71567056 224.183080943 1381.28815708 224.183080943 1391.82086245 c 0
 224.183080943 1406.00124845 230.299419264 1420.10952809 242.014637717 1429.48170285 c 2
 482.014637717 1621.48170285 l 2
 490.708718413 1628.43696741 501.350235482 1631.72892895 511.874397108 1631.72892895 c 0
 522.810366158 1631.72892895 533.619615908 1628.17429995 541.985362283 1621.48170285 c 2
 781.985362283 1429.48170285 l 2
 793.700085797 1420.10992404 799.816954715 1406.00146199 799.816954715 1391.82057017 c 0
 799.816954715 1381.28823561 796.442750384 1370.71594713 789.481702853 1362.01463772 c 0
 780.109528091 1350.29941927 766.001248454 1344.18308094 751.820862456 1344.18308094 c 0
 741.288157082 1344.18308094 730.715670556 1347.55747088 722.014637717 1354.51829715 c 2
 512 1522.53000732 l 1
 301.985362283 1354.51829715 l 2
 293.284052869 1347.55724962 282.711764397 1344.18304529 272.179429831 1344.18304529 c 0
 257.998538015 1344.18304529 243.890075958 1350.2999142 234.518297147 1362.01463772 c 0
EndSplineSet
Validated: 1
EndChar

StartChar: uni030F
Encoding: 783 783 128
Width: 1024
VWidth: 0
Flags: HW
AnchorPoint: "top" 512 1272 mark 0
LayerCount: 2
Fore
SplineSet
510.058874503 1617.9411255 m 0
 519.302508554 1627.18475955 531.651283037 1631.80682775 544.000168722 1631.80682775 c 0
 556.348607046 1631.80682775 568.697156566 1627.18509443 577.941125497 1617.9411255 c 2
 769.941125497 1425.9411255 l 2
 779.184759548 1416.69749145 783.806827748 1404.34871696 783.806827748 1391.99983128 c 0
 783.806827748 1379.65139295 779.185094428 1367.30284343 769.941125497 1358.0588745 c 0
 760.697156566 1348.81490557 748.348607046 1344.19317225 736.000168722 1344.19317225 c 0
 723.651283037 1344.19317225 711.302508554 1348.81524045 702.058874503 1358.0588745 c 2
 510.058874503 1550.0588745 l 2
 500.814905572 1559.30284343 496.193172252 1571.65139295 496.193172252 1583.99983128 c 0
 496.193172252 1596.34871696 500.815240452 1608.69749145 510.058874503 1617.9411255 c 0
254.058874503 1617.9411255 m 0
 263.302508554 1627.18475955 275.651283037 1631.80682775 288.000168722 1631.80682775 c 0
 300.348607046 1631.80682775 312.697156566 1627.18509443 321.941125497 1617.9411255 c 2
 513.941125497 1425.9411255 l 2
 523.184759548 1416.69749145 527.806827748 1404.34871696 527.806827748 1391.99983128 c 0
 527.806827748 1379.65139295 523.185094428 1367.30284343 513.941125497 1358.0588745 c 0
 504.697156566 1348.81490557 492.348607046 1344.19317225 480.000168722 1344.19317225 c 0
 467.651283037 1344.19317225 455.302508554 1348.81524045 446.058874503 1358.0588745 c 2
 254.058874503 1550.0588745 l 2
 244.814905572 1559.30284343 240.193172252 1571.65139295 240.193172252 1583.99983128 c 0
 240.193172252 1596.34871696 244.815240452 1608.69749145 254.058874503 1617.9411255 c 0
EndSplineSet
Validated: 1
EndChar

StartChar: uni0237
Encoding: 567 567 130
Width: 1024
VWidth: 0
Flags: HW
AnchorPoint: "top" 656 912 basechar 0
LayerCount: 2
Fore
SplineSet
96 -49 m 1
 96 -48 l 1
 96.0051066378 -48 l 1
 96.5419248424 4.53982338131 139.333732582 47 192 47 c 0
 245 47 288 4 288 -49 c 0
 288 -100.099579652 248.028414829 -141.903441822 197.661167966 -144.835663032 c 1
 219.601086108 -235.91886767 302.702764192 -304 401 -304 c 0
 515.267578125 -304 608 -210.698242188 608 -96 c 2
 608 768 l 1
 384 768 l 2
 357.855528292 768 336 789.853633925 336 816 c 0
 336 842.146366075 357.855528292 864 384 864 c 2
 656 864 l 2
 676.601416319 864 704 845.054472683 704 816 c 2
 704 -96 l 2
 704 -263.301757812 568.732421875 -400 401 -400 c 0
 233.876953125 -400 96 -264.984375 96 -97 c 0
 96 -96.6659542687 96.0035675613 -96.332608722 96.010666056 -96 c 2
 96 -96 l 1
 96 -49 l 1
EndSplineSet
Validated: 1
EndChar

StartChar: breve
Encoding: 728 728 320
Width: 1024
VWidth: 0
Flags: HW
AnchorPoint: "top" 512 1272 mark 0
LayerCount: 2
Fore
SplineSet
704 1632 m 0
 730.144471708 1632 752 1610.14636608 752 1584 c 0
 752 1451.49038735 644.509840284 1344 512 1344 c 0
 379.490387345 1344 272 1451.49015972 272 1584 c 0
 272 1610.14447171 293.853633925 1632 320 1632 c 0
 346.146366075 1632 368 1610.14447171 368 1584 c 0
 368 1504.50984028 432.509612655 1440 512 1440 c 0
 591.490159716 1440 656 1504.50961265 656 1584 c 0
 656 1610.14636608 677.855528292 1632 704 1632 c 0
EndSplineSet
Validated: 1
EndChar

StartChar: dotaccent
Encoding: 729 729 321
Width: 1024
VWidth: 0
Flags: HW
AnchorPoint: "top" 512 1272 mark 0
LayerCount: 2
Fore
SplineSet
416 1464 m 0
 416 1517 459 1560 512 1560 c 0
 565 1560 608 1517 608 1464 c 0
 608 1411 565 1368 512 1368 c 0
 459 1368 416 1411 416 1464 c 0
EndSplineSet
Validated: 1
EndChar

StartChar: ring
Encoding: 730 730 322
Width: 1024
VWidth: 0
Flags: HW
AnchorPoint: "top" 512 1272 mark 0
LayerCount: 2
Fore
SplineSet
448 1488 m 0
 448 1452.45827559 476.458443045 1424 512 1424 c 0
 547.541724413 1424 576 1452.45844304 576 1488 c 0
 576 1523.54172441 547.541556955 1552 512 1552 c 0
 476.458275587 1552 448 1523.54155696 448 1488 c 0
352 1488 m 0
 352 1576.45844304 423.541724413 1648 512 1648 c 0
 600.458443045 1648 672 1576.45827559 672 1488 c 0
 672 1399.54155696 600.458275587 1328 512 1328 c 0
 423.541556955 1328 352 1399.54172441 352 1488 c 0
EndSplineSet
Validated: 1
EndChar

StartChar: tilde
Encoding: 732 732 323
Width: 1024
VWidth: 0
Flags: HW
AnchorPoint: "top" 512 1272 mark 0
LayerCount: 2
Fore
SplineSet
256 1344 m 0
 229.855528292 1344 208 1365.85363392 208 1392 c 0
 208 1485.15363982 247.75542832 1632 384 1632 c 0
 512 1632 569.853518558 1440 640 1440 c 0
 683.755634649 1440 720 1497.15348061 720 1584 c 0
 720 1610.14447171 741.853633925 1632 768 1632 c 0
 794.146366075 1632 816 1610.14447171 816 1584 c 0
 816 1490.84651939 776.244365351 1344 640 1344 c 0
 512 1344 454.196232238 1536 384 1536 c 0
 340.24457168 1536 304 1478.84636018 304 1392 c 0
 304 1365.85363392 282.144471708 1344 256 1344 c 0
EndSplineSet
Validated: 1
EndChar

StartChar: hungarumlaut
Encoding: 733 733 324
Width: 1024
VWidth: 0
Flags: HW
AnchorPoint: "top" 512 1272 mark 0
LayerCount: 2
Fore
SplineSet
510.058874503 1358.0588745 m 0
 500.815240452 1367.30250855 496.193172252 1379.65128304 496.193172252 1392.00016872 c 0
 496.193172252 1404.34860705 500.814905572 1416.69715657 510.058874503 1425.9411255 c 2
 702.058874503 1617.9411255 l 2
 711.302508554 1627.18475955 723.651283037 1631.80682775 736.000168722 1631.80682775 c 0
 748.348607046 1631.80682775 760.697156566 1627.18509443 769.941125497 1617.9411255 c 0
 779.185094428 1608.69715657 783.806827748 1596.34860705 783.806827748 1584.00016872 c 0
 783.806827748 1571.65128304 779.184759548 1559.30250855 769.941125497 1550.0588745 c 2
 577.941125497 1358.0588745 l 2
 568.697156566 1348.81490557 556.348607046 1344.19317225 544.000168722 1344.19317225 c 0
 531.651283037 1344.19317225 519.302508554 1348.81524045 510.058874503 1358.0588745 c 0
254.058874503 1358.0588745 m 0
 244.815240452 1367.30250855 240.193172252 1379.65128304 240.193172252 1392.00016872 c 0
 240.193172252 1404.34860705 244.814905572 1416.69715657 254.058874503 1425.9411255 c 2
 446.058874503 1617.9411255 l 2
 455.302508554 1627.18475955 467.651283037 1631.80682775 480.000168722 1631.80682775 c 0
 492.348607046 1631.80682775 504.697156566 1627.18509443 513.941125497 1617.9411255 c 0
 523.185094428 1608.69715657 527.806827748 1596.34860705 527.806827748 1584.00016872 c 0
 527.806827748 1571.65128304 523.184759548 1559.30250855 513.941125497 1550.0588745 c 2
 321.941125497 1358.0588745 l 2
 312.697156566 1348.81490557 300.348607046 1344.19317225 288.000168722 1344.19317225 c 0
 275.651283037 1344.19317225 263.302508554 1348.81524045 254.058874503 1358.0588745 c 0
EndSplineSet
Validated: 1
EndChar

StartChar: uni203E
Encoding: 8254 8254 428
Width: 1024
VWidth: 0
Flags: HW
LayerCount: 2
Fore
SplineSet
96 1200 m 4
 96 1226.14453125 117.853515625 1248 144 1248 c 6
 880 1248 l 6
 906.14453125 1248 928 1226.14648438 928 1200 c 4
 928 1173.85351562 906.14453125 1152 880 1152 c 6
 144 1152 l 6
 117.853515625 1152 96 1173.85546875 96 1200 c 4
EndSplineSet
Validated: 1
EndChar

StartChar: currency
Encoding: 164 164 429
Width: 1024
VWidth: 0
Flags: HW
LayerCount: 2
Fore
SplineSet
410.176757812 522.176757812 m 0
 438.280761719 494.072753906 475.140380859 480.020751953 512 480.020751953 c 0
 548.859619141 480.020751953 585.719238282 494.072753906 613.823242188 522.176757812 c 0
 641.927246094 550.280761719 655.979248047 587.140380859 655.979248047 624 c 0
 655.979248047 660.859619141 641.927246094 697.719238282 613.823242188 725.823242188 c 0
 585.719238281 753.927246094 548.859619141 767.979248047 512 767.979248047 c 0
 475.140380859 767.979248047 438.280761719 753.927246094 410.176757812 725.823242188 c 0
 382.072753906 697.719238281 368.020751953 660.859619141 368.020751953 624 c 0
 368.020751953 587.140380859 382.072753906 550.280761718 410.176757812 522.176757812 c 0
712.249791777 756.367130178 m 1
 738.736421478 716.376301758 751.979736328 670.188150879 751.979736328 624 c 0
 751.979736328 577.811849121 738.736421478 531.623698241 712.249791778 491.632869822 c 1
 817.469726562 386.412109375 l 2
 826.713500973 377.168334964 831.335571291 364.819742226 831.335571291 352.471068413 c 0
 831.335571291 340.122720736 826.713745114 327.77429199 817.469726562 318.530273438 c 0
 808.22570801 309.286254886 795.877279264 304.664428709 783.528931587 304.664428709 c 0
 771.180257774 304.664428709 758.831665036 309.286499027 749.587890625 318.530273438 c 2
 644.367130178 423.750208223 l 1
 604.376301758 397.263578522 558.188150879 384.020263672 512 384.020263672 c 0
 465.811849121 384.020263672 419.623698242 397.263578523 379.632869823 423.750208224 c 1
 274.412109375 318.530273438 l 2
 265.168334964 309.286499027 252.819742226 304.664428709 240.471068413 304.664428709 c 0
 228.122720736 304.664428709 215.77429199 309.286254886 206.530273438 318.530273438 c 0
 197.286254886 327.77429199 192.664428709 340.122720736 192.664428709 352.471068413 c 0
 192.664428709 364.819742226 197.286499027 377.168334964 206.530273438 386.412109375 c 2
 311.750208223 491.632869822 l 1
 285.263578522 531.623698242 272.020263672 577.811849121 272.020263672 624 c 0
 272.020263672 670.188150879 285.263578523 716.376301758 311.750208224 756.367130177 c 1
 206.530273438 861.587890625 l 2
 197.286499027 870.831665036 192.664428709 883.180257774 192.664428709 895.528931587 c 0
 192.664428709 907.877279264 197.286254886 920.22570801 206.530273438 929.469726562 c 0
 215.77429199 938.713745114 228.122720736 943.335571291 240.471068413 943.335571291 c 0
 252.819742226 943.335571291 265.168334964 938.713500973 274.412109375 929.469726562 c 2
 379.632869822 824.249791777 l 1
 419.623698242 850.736421478 465.811849121 863.979736328 512 863.979736328 c 0
 558.188150879 863.979736328 604.376301759 850.736421478 644.367130178 824.249791778 c 1
 749.587890625 929.469726562 l 2
 758.831665036 938.713500973 771.180257774 943.335571291 783.528931587 943.335571291 c 0
 795.877279264 943.335571291 808.22570801 938.713745114 817.469726562 929.469726562 c 0
 826.713745114 920.22570801 831.335571291 907.877279264 831.335571291 895.528931587 c 0
 831.335571291 883.180257774 826.713500973 870.831665036 817.469726562 861.587890625 c 2
 712.249791777 756.367130178 l 1
EndSplineSet
Validated: 1
EndChar

StartChar: yen
Encoding: 165 165 430
Width: 1024
VWidth: 0
Flags: HW
AnchorPoint: "top" 512 1272 basechar 0
LayerCount: 2
Fore
SplineSet
14 1200 m 0
 14 1226.14453125 35.853515625 1248 62 1248 c 2
 382 1248 l 2
 408.14453125 1248 430 1226.14648438 430 1200 c 0
 430 1173.85351562 408.14453125 1152 382 1152 c 2
 265.569767416 1152 l 1
 510.92473586 722.628805225 l 1
 744.011955881 1152 l 1
 638 1152 l 2
 611.853515625 1152 590 1173.85546875 590 1200 c 0
 590 1226.14453125 611.853515625 1248 638 1248 c 2
 958 1248 l 2
 984.14453125 1248 1006 1226.14648438 1006 1200 c 0
 1006 1173.85351562 984.14453125 1152 958 1152 c 2
 853.245186977 1152 l 1
 592.673758405 672 l 1
 880 672 l 2
 906.14453125 672 928 650.146484375 928 624 c 0
 928 597.853515625 906.14453125 576 880 576 c 2
 560 576 l 1
 560 480 l 1
 880 480 l 2
 906.14453125 480 928 458.146484375 928 432 c 0
 928 405.853515625 906.14453125 384 880 384 c 2
 560 384 l 1
 560 96 l 1
 816 96 l 2
 842.14453125 96 864 74.146484375 864 48 c 0
 864 21.853515625 842.14453125 -3.20167590865e-15 816 0 c 2
 208 0 l 2
 181.853515625 0 160 21.85546875 160 48 c 0
 160 74.14453125 181.853515625 96 208 96 c 2
 464 96 l 1
 464 384 l 1
 144 384 l 2
 117.853515625 384 96 405.85546875 96 432 c 0
 96 458.14453125 117.853515625 480 144 480 c 2
 464 480 l 1
 464 576 l 1
 144 576 l 2
 117.853515625 576 96 597.85546875 96 624 c 0
 96 650.14453125 117.853515625 672 144 672 c 2
 429.28737544 672 l 1
 155.001661155 1152 l 1
 62 1152 l 2
 35.853515625 1152 14 1173.85546875 14 1200 c 0
EndSplineSet
Validated: 1
EndChar

StartChar: section
Encoding: 167 167 431
Width: 1024
VWidth: 0
Flags: HW
LayerCount: 2
Fore
SplineSet
128 -96 m 2
 128 -80 l 2
 128 -27 171 16 224 16 c 0
 277 16 320 -27 320 -80 c 0
 320 -127.266417026 285.800316954 -166.579419391 240.807876652 -174.532081304 c 1
 281.036368277 -260.200204089 388.734500056 -304 512 -304 c 0
 681.622070312 -304 800 -215.458984375 800 -112 c 0
 800 -14.0839820152 725.376020712 87.7966201798 515.504112805 128.006521405 c 0
 514.336741297 128.00217167 513.168694947 128 512 128 c 0
 505.168037376 128 498.628956036 129.49228082 492.696211785 132.163490115 c 0
 248.254291566 177.320983054 96.0000003391 275.672369166 96 464 c 0
 96 592.40663188 180.850265719 669.496315416 301.288141839 707.272375946 c 1
 184.699143581 772.390808571 128 869.413948401 128 976 c 0
 128 1154.54101562 311.622070312 1264 512 1264 c 0
 725.444588092 1264 896 1146.65234375 896 960 c 2
 896 944 l 2
 896 891 853 848 800 848 c 0
 747 848 704 891 704 944 c 0
 704 991.266408318 738.199670444 1030.57940491 783.192098481 1038.53207691 c 1
 742.963550973 1124.20020259 635.265303516 1168 512 1168 c 0
 342.377929688 1168 224 1079.45898438 224 976 c 0
 224 878.083982016 298.623979288 776.20337982 508.495887195 735.993478595 c 0
 509.663258703 735.99782833 510.831305053 736 512 736 c 0
 518.831962624 736 525.371043964 734.50771918 531.303788215 731.836509885 c 0
 775.745708434 686.679016946 927.999999661 588.327630834 928 400 c 0
 928 271.59336812 843.149734281 194.503684584 722.711858161 156.727624054 c 1
 839.300856419 91.6091914292 896 -5.41394840141 896 -112 c 0
 896 -290.541015625 712.377929688 -400 512 -400 c 0
 298.555664062 -400 128 -282.65234375 128 -96 c 2
832 400 m 0
 832 528.87109375 725.525390625 600.154296875 503.665039062 639.274414062 c 0
 502.446202278 639.489328277 501.230408142 639.706340324 500.017655535 639.925442898 c 0
 319.745719053 637.665452352 192.000000006 583.918432415 192 464 c 0
 192 335.12890625 298.474609375 263.845703125 520.334960938 224.725585938 c 0
 521.553797722 224.510671723 522.769591858 224.293659676 523.982344465 224.074557102 c 0
 704.254280947 226.334547648 832 280.081567585 832 400 c 0
EndSplineSet
Validated: 1
EndChar

StartChar: ordfeminine
Encoding: 170 170 432
Width: 1024
VWidth: 0
Flags: HW
LayerCount: 2
Fore
SplineSet
304 624 m 4
 304 650.14453125 325.853515625 672 352 672 c 6
 672 672 l 6
 698.14453125 672 720 650.146484375 720 624 c 4
 720 597.853515625 698.14453125 576 672 576 c 6
 352 576 l 6
 325.853515625 576 304 597.85546875 304 624 c 4
583.979492188 1120.10058594 m 0
 583.05078125 1125.25976562 562.802734375 1151.99023438 511.678710938 1158.53320312 c 0
 504.311523438 1159.4765625 496.4140625 1160 488 1160 c 0
 479.5859375 1160 471.688476562 1159.4765625 464.321289062 1158.53320312 c 0
 410.62109375 1151.66015625 392.264648438 1122.54882812 392.0546875 1120.49609375 c 0
 390.892578125 1090.56542969 369.89453125 1072 344 1072 c 0
 317.545898438 1072 296 1093.54882812 296 1120 c 0
 296 1201.80371094 378.077148438 1244.31445312 452.7890625 1253.77734375 c 0
 464.435546875 1255.25195312 476.2265625 1256 488 1256 c 0
 499.7734375 1256 511.564453125 1255.25195312 523.209960938 1253.77734375 c 0
 597.921875 1244.31445312 680 1201.80371094 680 1120 c 2
 680 896 l 1
 680 866.041015625 l 2
 681.618164062 866.983398438 682.345703125 867.5703125 683.387695312 868.612304688 c 0
 686.229492188 871.455078125 688 875.30078125 688 880 c 0
 688 906.452148438 709.546875 928 736 928 c 0
 762.454101562 928 784 906.451171875 784 880 c 0
 784 848.515625 770.989257812 819.935546875 750.083007812 799.625 c 0
 729.944335938 780.060546875 702.327148438 768 672 768 c 0
 647.07421875 768 624.267578125 779.133789062 609.056640625 794.541015625 c 1
 566.40625 771.215820312 512.838867188 760 464 760 c 0
 363.61328125 760 272 810.919921875 272 912 c 0
 272 1014.6171875 379.791015625 1072 480 1072 c 0
 550.259765625 1072 582.268554688 1112.07714844 583.979492188 1120.10058594 c 0
584 997.233398438 m 1
 550.434570312 982.82421875 516.142578125 976 480 976 c 0
 403.595703125 976 368 933.076171875 368 912 c 0
 368 888.30859375 388.037109375 856 464 856 c 0
 530.559570312 856 577.8671875 886.8203125 584 897.50390625 c 1
 584 997.233398438 l 1
EndSplineSet
Validated: 1
EndChar

StartChar: ordmasculine
Encoding: 186 186 433
Width: 1024
VWidth: 0
Flags: HW
LayerCount: 2
Fore
SplineSet
304 624 m 0
 304 650.14453125 325.853515625 672 352 672 c 2
 672 672 l 2
 698.14453125 672 720 650.146484375 720 624 c 0
 720 597.853515625 698.14453125 576 672 576 c 2
 352 576 l 2
 325.853515625 576 304 597.85546875 304 624 c 0
376 1008 m 4
 376 920.627929688 440.391601562 856 512 856 c 4
 583.608398438 856 648 920.627929688 648 1008 c 4
 648 1095.37207031 583.608398438 1160 512 1160 c 4
 440.391601562 1160 376 1095.37207031 376 1008 c 4
280 1008 m 4
 280 1141.58691406 380.595703125 1256 512 1256 c 4
 643.403320312 1256 744 1141.58691406 744 1008 c 4
 744 874.413085938 643.404296875 760 512 760 c 4
 380.596679688 760 280 874.413085938 280 1008 c 4
EndSplineSet
Validated: 1
EndChar

StartChar: guillemotleft
Encoding: 171 171 434
Width: 1024
VWidth: 0
Flags: HW
LayerCount: 2
Fore
SplineSet
879.237985926 804.444316914 m 4
 890.180565643 795.06496287 895.811753817 781.491663105 895.811753817 767.872996771 c 4
 895.811753817 756.786751282 892.080112754 745.670442554 884.444316914 736.762014074 c 6
 623.219733421 432 l 5
 884.444316914 127.237985926 l 6
 892.079861269 118.329850844 895.811728477 107.213329958 895.811728477 96.1266878062 c 4
 895.811728477 82.5085105448 890.181006452 68.9354149663 879.237985926 59.5556830865 c 4
 870.329557446 51.9198872468 859.213248718 48.1882461828 848.127003228 48.1882461828 c 4
 834.508336894 48.1882461828 820.93503713 53.819434357 811.555683086 64.7620140741 c 6
 523.555683086 400.762014074 l 6
 516.182654467 409.363880797 512.283182824 420.689722399 512.283182824 432.132435603 c 4
 512.283182824 443.172681316 515.913171069 454.321721906 523.555683086 463.237985926 c 6
 811.555683086 799.237985926 l 6
 820.935414966 810.181006452 834.508510545 815.811728477 848.126687806 815.811728477 c 4
 859.213329958 815.811728477 870.329850844 812.079861269 879.237985926 804.444316914 c 4
495.237985926 804.444316914 m 0
 506.180565643 795.06496287 511.811753817 781.491663105 511.811753817 767.872996771 c 0
 511.811753817 756.786751282 508.080112754 745.670442554 500.444316914 736.762014074 c 2
 239.219733421 432 l 1
 500.444316914 127.237985926 l 2
 508.079861269 118.329850844 511.811728477 107.213329958 511.811728477 96.1266878062 c 0
 511.811728477 82.5085105448 506.181006452 68.9354149663 495.237985926 59.5556830865 c 0
 486.329557446 51.9198872468 475.213248718 48.1882461828 464.127003228 48.1882461828 c 0
 450.508336894 48.1882461828 436.93503713 53.819434357 427.555683086 64.7620140741 c 2
 139.555683086 400.762014074 l 2
 132.182654467 409.363880797 128.283182824 420.689722399 128.283182824 432.132435603 c 0
 128.283182824 443.172681316 131.913171069 454.321721906 139.555683086 463.237985926 c 2
 427.555683086 799.237985926 l 2
 436.935414966 810.181006452 450.508510545 815.811728477 464.126687806 815.811728477 c 0
 475.213329958 815.811728477 486.329850844 812.079861269 495.237985926 804.444316914 c 0
EndSplineSet
Validated: 1
EndChar

StartChar: guillemotright
Encoding: 187 187 435
Width: 1024
VWidth: 0
Flags: HW
LayerCount: 2
Fore
SplineSet
144.76171875 59.5556640625 m 0
 133.819530079 68.9350674477 128.188444726 82.5082749391 128.188444726 96.1269713774 c 0
 128.188444726 107.213186601 131.919980782 118.329545862 139.555664062 127.23828125 c 2
 400.780273438 432 l 1
 139.555664062 736.76171875 l 2
 131.920070378 745.669984424 128.188193777 756.786665591 128.188193777 767.873423015 c 0
 128.188193777 781.491657458 133.818860171 795.06474287 144.76171875 804.444335938 c 0
 153.670454138 812.080019218 164.786813399 815.811555274 175.873028623 815.811555274 c 0
 189.491725061 815.811555274 203.064932553 810.180469921 212.444335938 799.23828125 c 2
 500.444335938 463.23828125 l 2
 507.817192337 454.636284101 511.716630141 443.310394197 511.716630141 431.867581308 c 0
 511.716630141 420.827338349 508.086738452 409.678254632 500.444335938 400.76171875 c 2
 212.444335938 64.76171875 l 2
 203.064742871 53.8188601713 189.491657459 48.1881937772 175.873423015 48.1881937772 c 0
 164.786665591 48.1881937772 153.669984424 51.9200703779 144.76171875 59.5556640625 c 0
528.76171875 59.5556640625 m 0
 517.819530079 68.9350674477 512.188444726 82.5082749391 512.188444726 96.1269713774 c 0
 512.188444726 107.213186601 515.919980782 118.329545862 523.555664062 127.23828125 c 2
 784.780273438 432 l 1
 523.555664062 736.76171875 l 2
 515.920070378 745.669984424 512.188193777 756.786665591 512.188193777 767.873423015 c 0
 512.188193777 781.491657458 517.818860171 795.06474287 528.76171875 804.444335938 c 0
 537.670454138 812.080019218 548.786813399 815.811555274 559.873028623 815.811555274 c 0
 573.491725061 815.811555274 587.064932553 810.180469921 596.444335938 799.23828125 c 2
 884.444335938 463.23828125 l 2
 891.817192337 454.636284101 895.716630141 443.310394197 895.716630141 431.867581308 c 0
 895.716630141 420.827338349 892.086738452 409.678254632 884.444335938 400.76171875 c 2
 596.444335938 64.76171875 l 2
 587.064742871 53.8188601713 573.491657459 48.1881937772 559.873423015 48.1881937772 c 0
 548.786665591 48.1881937772 537.669984424 51.9200703779 528.76171875 59.5556640625 c 0
EndSplineSet
Validated: 1
EndChar

StartChar: logicalnot
Encoding: 172 172 436
Width: 1024
VWidth: 0
Flags: HW
LayerCount: 2
Fore
SplineSet
96 768 m 4
 96 794.14453125 117.853515625 816 144 816 c 6
 880 816 l 6
 906.14453125 816 928 794.146484375 928 768 c 6
 928 400 l 6
 928 373.85546875 906.146484375 352 880 352 c 4
 853.853515625 352 832 373.85546875 832 400 c 6
 832 720 l 5
 144 720 l 6
 117.853515625 720 96 741.85546875 96 768 c 4
EndSplineSet
Validated: 1
EndChar

StartChar: uni00AD
Encoding: 173 173 437
Width: 1024
VWidth: 0
Flags: HW
LayerCount: 2
Fore
SplineSet
96 624 m 4
 96 650.14453125 117.853515625 672 144 672 c 6
 880 672 l 6
 906.14453125 672 928 650.146484375 928 624 c 4
 928 597.853515625 906.14453125 576 880 576 c 6
 144 576 l 6
 117.853515625 576 96 597.85546875 96 624 c 4
EndSplineSet
Validated: 1
EndChar

StartChar: macron
Encoding: 175 175 438
Width: 1024
VWidth: 0
Flags: HW
LayerCount: 2
Fore
SplineSet
304 1200 m 4
 304 1226.14453125 325.853515625 1248 352 1248 c 6
 672 1248 l 6
 698.14453125 1248 720 1226.14648438 720 1200 c 4
 720 1173.85351562 698.14453125 1152 672 1152 c 6
 352 1152 l 6
 325.853515625 1152 304 1173.85546875 304 1200 c 4
EndSplineSet
Validated: 1
EndChar

StartChar: uni00B2
Encoding: 178 178 439
Width: 1024
VWidth: 0
Flags: HW
LayerCount: 2
Fore
SplineSet
512 1432 m 1
 513 1432 512.540954571 1431.98800582 514.696468668 1431.98800582 c 1
 513.289500561 1431.98800582 513.410866783 1432 512 1432 c 1
512 1432 m 1
 510.589133217 1432 509.988983007 1432.00210576 508.5820149 1431.97316402 c 1
 509.825751051 1431.99479824 510.747624369 1432 512 1432 c 1
696 1040 m 0
 722.452324695 1040 744 1018.45342109 744 992 c 0
 744 959.064642189 740.145627819 929.636259756 732.265882118 903.819919153 c 0
 712.30871082 838.434416722 664.942286362 798.174056278 600.369363082 792.681694688 c 0
 595.002329911 792.225192406 589.544074594 792 584 792 c 0
 480.357199649 792 455.995352044 864 440 864 c 0
 404.301505928 864 370.613572779 824.869873403 365.670531666 818.223301594 c 0
 362.816605025 814.403465111 354.729312306 807.609196012 348.660437862 804.736083301 c 0
 342.636961043 801.810770323 335.365872284 800 328 800 c 0
 324.113278357 800 320.045223634 800.527969244 316.607513828 801.390154216 c 0
 311.209354468 802.681302752 305.495000658 805.176070839 300.546835783 808.625438124 c 0
 291.601916533 814.862191211 285.207325003 823.995456274 282.229134006 833.63749226 c 0
 280.849750049 837.938578075 280 843.034198008 280 848 c 0
 280 949.705814455 309.733270641 1030.9490814 356.911115991 1088.87596689 c 0
 395.732121691 1136.54198332 446.179418716 1167.8791399 499.307522137 1182.29322934 c 0
 594.261285883 1210.69864499 632 1251.53543764 632 1296 c 0
 632 1328.98533345 599.651605118 1370.24515657 541.541388288 1381.27611294 c 0
 532.259962533 1383.03798905 522.394127026 1384 512 1384 c 0
 501.605872974 1384 491.740037467 1383.03798905 482.458611712 1381.27611294 c 0
 424.367492301 1370.2487818 392 1328.98050996 392 1296 c 0
 392 1269.54567172 370.451414237 1248 344 1248 c 0
 317.547675305 1248 296 1269.54657891 296 1296 c 0
 296 1391.27850987 374.548679002 1458.06359893 463.817249735 1475.37755818 c 0
 479.489138038 1478.41717709 495.639116543 1480 512 1480 c 0
 528.012780452 1480 543.823548901 1478.48375177 559.181745237 1475.56959962 c 0
 648.88853916 1458.54811866 728 1391.64209513 728 1296 c 0
 728 1180.36958515 627.921537967 1119.75027124 524.671653967 1089.70163544 c 0
 490.980204309 1080.67419289 458.735764037 1061.58173658 432.463724378 1030.21379815 c 0
 415.400103717 1009.84040463 400.628844713 983.216833343 390.79742507 952.352397294 c 1
 407.038054093 957.424635833 422.08506672 960 440 960 c 0
 543.651405728 960 567.997423143 888 584 888 c 0
 612.562971197 888 648 891.872752255 648 992 c 0
 648 1018.45432828 669.548585763 1040 696 1040 c 0
EndSplineSet
Validated: 5
EndChar

StartChar: uni00B3
Encoding: 179 179 440
Width: 1024
VWidth: 0
Flags: HW
LayerCount: 2
Fore
SplineSet
356 1296 m 4
 329.547675305 1296 308 1317.54657891 308 1344 c 4
 308 1430.47598425 398.997130253 1470.62017116 479.636119222 1478.43937349 c 4
 490.359567525 1479.47917834 501.184620061 1480 512 1480 c 4
 535.544395247 1480 558.428334511 1476.32923646 579.851761309 1469.50454513 c 4
 656.145768555 1445.20016773 716 1379.54991059 716 1296 c 4
 716 1242.8617411 690.898860367 1196.26560173 654.498377715 1164.24849351 c 5
 708.890746312 1126.10420578 744 1068.44175615 744 1000 c 4
 744 907.475220781 678.680015274 834.014279167 593.883564221 805.367734414 c 4
 568.195427677 796.689584044 540.54197419 792 512 792 c 4
 500.456330618 792 488.906982716 792.539076971 477.458171747 793.605503262 c 4
 383.75265374 802.333923035 280 849.136530799 280 944 c 4
 280 970.452324695 301.546578914 992 328 992 c 4
 354.454328279 992 376 970.451414237 376 944 c 4
 376 937.143766616 405.802150561 896.419184717 486.991213885 889.103264795 c 4
 494.955589673 888.3855975 503.297032125 888 512 888 c 4
 530.269379264 888 547.351332824 890.909256725 562.82654862 896.073353586 c 4
 615.512907482 913.654850606 648 956.427688456 648 1000 c 4
 648 1035.41587711 626.819783359 1070.00475223 590.412290947 1091.42508042 c 4
 568.725125397 1104.18471237 541.941794422 1112 512 1112 c 6
 464 1112 l 6
 437.547675305 1112 416 1133.54657891 416 1160 c 4
 416 1186.45432828 437.548585763 1208 464 1208 c 6
 512 1208 l 6
 537.536049685 1208 560.028946482 1215.10659399 577.761321574 1226.40556858 c 4
 604.842298732 1243.66142243 620 1269.98944771 620 1296 c 4
 620 1329.58625778 594.218044629 1364.18435985 551.196969179 1377.99816723 c 4
 539.249205805 1381.83452185 526.095864207 1384 512 1384 c 4
 503.331355581 1384 495.170543123 1383.57276264 487.522469082 1382.79410022 c 4
 426.458236855 1376.57705484 404.751481793 1347.64945786 404.037237454 1344.03868612 c 4
 402.907957944 1314.95276828 381.886958116 1296 356 1296 c 4
EndSplineSet
Validated: 1
EndChar

StartChar: uni00B9
Encoding: 185 185 441
Width: 1024
VWidth: 0
Flags: HW
LayerCount: 2
Fore
SplineSet
312 848 m 0
 312 874.452324695 333.546578914 896 360 896 c 2
 464 896 l 1
 464 1305.91610525 l 1
 430.70786802 1283.74161264 395.468694649 1272 360 1272 c 0
 333.545671721 1272 312 1293.54858576 312 1320 c 0
 312 1346.4523247 333.546578914 1368 360 1368 c 0
 385.957205324 1368 429.427699628 1386.67424888 472.061154512 1450.62397198 c 0
 476.582673711 1457.40723158 482.940776147 1462.88043641 489.379549127 1466.26208293 c 0
 495.763397531 1469.74334437 503.845076406 1472 512 1472 c 0
 516.783462991 1472 521.810964859 1471.18595049 525.899095859 1469.91553528 c 0
 530.002993514 1468.70606059 534.651672925 1466.58833603 538.623971978 1463.93884549 c 0
 545.407231582 1459.41732629 550.880436406 1453.05922385 554.262082925 1446.62045087 c 0
 557.743344367 1440.23660247 560 1432.15492359 560 1424 c 2
 560 896 l 1
 664 896 l 2
 690.452324695 896 712 874.453421086 712 848 c 0
 712 821.545671721 690.451414237 800 664 800 c 2
 360 800 l 2
 333.545671721 800 312 821.548585763 312 848 c 0
EndSplineSet
Validated: 1
EndChar

StartChar: onequarter
Encoding: 188 188 442
Width: 1024
VWidth: 0
Flags: HW
LayerCount: 2
Fore
SplineSet
144 624 m 0
 144 650.144471708 165.853633925 672 192 672 c 2
 832 672 l 2
 858.144471708 672 880 650.146366075 880 624 c 0
 880 597.853633925 858.144471708 576 832 576 c 2
 192 576 l 2
 165.853633925 576 144 597.855528292 144 624 c 0
312 848 m 0
 312 874.452324695 333.546578914 896 360 896 c 2
 464 896 l 1
 464 1305.91610525 l 1
 430.70786802 1283.74161264 395.468694649 1272 360 1272 c 0
 333.545671721 1272 312 1293.54858576 312 1320 c 0
 312 1346.4523247 333.546578914 1368 360 1368 c 0
 385.957205324 1368 429.427699628 1386.67424888 472.061154512 1450.62397198 c 0
 476.582673711 1457.40723158 482.940776147 1462.88043641 489.379549127 1466.26208293 c 0
 495.763397531 1469.74334437 503.845076406 1472 512 1472 c 0
 516.783462991 1472 521.810964859 1471.18595049 525.899095859 1469.91553528 c 0
 530.002993514 1468.70606059 534.651672925 1466.58833603 538.623971978 1463.93884549 c 0
 545.407231582 1459.41732629 550.880436406 1453.05922385 554.262082925 1446.62045087 c 0
 557.743344367 1440.23660247 560 1432.15492359 560 1424 c 2
 560 896 l 1
 664 896 l 2
 690.452324695 896 712 874.453421086 712 848 c 0
 712 821.545671721 690.451414237 800 664 800 c 2
 360 800 l 2
 333.545671721 800 312 821.548585763 312 848 c 0
594.42578125 -152.037109375 m 1
 594.42578125 -162.337817534 584.953017591 -176.037109375 570.42578125 -176.037109375 c 2
 618.42578125 -176.037109375 l 2
 608.125073091 -176.037109375 594.42578125 -166.564345716 594.42578125 -152.037109375 c 1
410.42578125 -176.037109375 m 0
 410.42578125 -149.604183323 431.994339944 -128.037109375 458.42578125 -128.037109375 c 2
 546.42578125 -128.037109375 l 1
 546.42578125 -8.037109375 l 1
 322.42578125 -8.037109375 l 2
 313.894790323 -8.037109375 305.781983475 -6.36462792214 296.584713126 -0.487178331328 c 0
 286.605612099 5.88754349269 279.867821086 15.4539694642 276.694846336 25.7250897857 c 0
 272.377860754 39.699445659 274.324307974 55.9239803249 284.127551413 68.898658203 c 2
 556.128291396 428.899637539 l 2
 563.77532469 439.01963488 575.532830613 446.625555049 590.658863315 447.8146023 c 0
 601.207678441 448.645294338 611.269877109 445.873013238 619.493687496 440.786020375 c 0
 632.921311195 432.480110743 642.42578125 417.484484143 642.42578125 399.962890625 c 2
 642.42578125 87.962890625 l 1
 738.42578125 87.962890625 l 2
 764.878105945 87.962890625 786.42578125 66.4163117113 786.42578125 39.962890625 c 0
 786.42578125 13.5085623465 764.877195487 -8.037109375 738.42578125 -8.037109375 c 2
 642.42578125 -8.037109375 l 1
 642.42578125 -128.037109375 l 1
 730.42578125 -128.037109375 l 2
 756.858707302 -128.037109375 778.42578125 -149.605668069 778.42578125 -176.037109375 c 0
 778.42578125 -202.470035427 756.857222556 -224.037109375 730.42578125 -224.037109375 c 2
 458.42578125 -224.037109375 l 2
 431.992855198 -224.037109375 410.42578125 -202.468550681 410.42578125 -176.037109375 c 0
546.42578125 87.962890625 m 1
 546.42578125 256.810059883 l 1
 418.852225904 87.962890625 l 1
 546.42578125 87.962890625 l 1
EndSplineSet
Validated: 1
EndChar

StartChar: onehalf
Encoding: 189 189 443
Width: 1024
VWidth: 0
Flags: HW
LayerCount: 2
Fore
SplineSet
512 408 m 1
 513 408 512.541015625 407.98828125 514.696289062 407.98828125 c 1
 513.2890625 407.98828125 513.411132812 408 512 408 c 1
512 408 m 1
 510.588867188 408 509.989257812 408.001953125 508.58203125 407.973632812 c 1
 509.826171875 407.995117188 510.748046875 408 512 408 c 1
696 16 m 0
 722.452148438 16 744 -5.546875 744 -32 c 0
 744 -64.935546875 740.145507812 -94.36328125 732.265625 -120.1796875 c 0
 712.30859375 -185.565429688 664.942382812 -225.826171875 600.369140625 -231.318359375 c 0
 595.001953125 -231.774414062 589.543945312 -232 584 -232 c 0
 480.357421875 -232 455.995117188 -160 440 -160 c 0
 404.301757812 -160 370.61328125 -199.129882812 365.670898438 -205.776367188 c 0
 362.81640625 -209.596679688 354.729492188 -216.390625 348.66015625 -219.263671875 c 0
 342.63671875 -222.189453125 335.366210938 -224 328 -224 c 0
 324.11328125 -224 320.044921875 -223.471679688 316.607421875 -222.609375 c 0
 311.208984375 -221.318359375 305.495117188 -218.82421875 300.546875 -215.375 c 0
 291.6015625 -209.137695312 285.20703125 -200.004882812 282.229492188 -190.362304688 c 0
 280.849609375 -186.061523438 280 -180.965820312 280 -176 c 0
 280 -74.2939453125 309.733398438 6.94921875 356.911132812 64.8759765625 c 0
 395.732421875 112.541992188 446.1796875 143.87890625 499.307617188 158.29296875 c 0
 594.26171875 186.698242188 632 227.53515625 632 272 c 0
 632 304.985351562 599.651367188 346.245117188 541.541015625 357.276367188 c 0
 532.259765625 359.038085938 522.39453125 360 512 360 c 0
 501.60546875 360 491.740234375 359.038085938 482.458984375 357.276367188 c 0
 424.3671875 346.249023438 392 304.98046875 392 272 c 0
 392 245.545898438 370.451171875 224 344 224 c 0
 317.547851562 224 296 245.546875 296 272 c 0
 296 367.278320312 374.548828125 434.063476562 463.817382812 451.377929688 c 0
 479.489257812 454.416992188 495.638671875 456 512 456 c 0
 528.012695312 456 543.823242188 454.483398438 559.181640625 451.569335938 c 0
 648.888671875 434.547851562 728 367.642578125 728 272 c 0
 728 156.369140625 627.921875 95.75 524.671875 65.701171875 c 0
 490.98046875 56.673828125 458.735351562 37.58203125 432.463867188 6.2138671875 c 0
 415.400390625 -14.1591796875 400.62890625 -40.783203125 390.797851562 -71.6474609375 c 1
 407.038085938 -66.5751953125 422.084960938 -64 440 -64 c 0
 543.651367188 -64 567.997070312 -136 584 -136 c 0
 612.5625 -136 648 -132.126953125 648 -32 c 0
 648 -5.5458984375 669.548828125 16 696 16 c 0
144 624 m 0
 144 650.144471708 165.853633925 672 192 672 c 2
 832 672 l 2
 858.144471708 672 880 650.146366075 880 624 c 0
 880 597.853633925 858.144471708 576 832 576 c 2
 192 576 l 2
 165.853633925 576 144 597.855528292 144 624 c 0
312 848 m 0
 312 874.452324695 333.546578914 896 360 896 c 2
 464 896 l 1
 464 1305.91610525 l 1
 430.70786802 1283.74161264 395.468694649 1272 360 1272 c 0
 333.545671721 1272 312 1293.54858576 312 1320 c 0
 312 1346.4523247 333.546578914 1368 360 1368 c 0
 385.957205324 1368 429.427699628 1386.67424888 472.061154512 1450.62397198 c 0
 476.582673711 1457.40723158 482.940776147 1462.88043641 489.379549127 1466.26208293 c 0
 495.763397531 1469.74334437 503.845076406 1472 512 1472 c 0
 516.783462991 1472 521.810964859 1471.18595049 525.899095859 1469.91553528 c 0
 530.002993514 1468.70606059 534.651672925 1466.58833603 538.623971978 1463.93884549 c 0
 545.407231582 1459.41732629 550.880436406 1453.05922385 554.262082925 1446.62045087 c 0
 557.743344367 1440.23660247 560 1432.15492359 560 1424 c 2
 560 896 l 1
 664 896 l 2
 690.452324695 896 712 874.453421086 712 848 c 0
 712 821.545671721 690.451414237 800 664 800 c 2
 360 800 l 2
 333.545671721 800 312 821.548585763 312 848 c 0
EndSplineSet
Validated: 5
EndChar

StartChar: threequarters
Encoding: 190 190 444
Width: 1024
VWidth: 0
Flags: HW
LayerCount: 2
Fore
SplineSet
356 1296 m 4
 329.547675305 1296 308 1317.54657891 308 1344 c 4
 308 1430.47598425 398.997130253 1470.62017116 479.636119222 1478.43937349 c 4
 490.359567525 1479.47917834 501.184620061 1480 512 1480 c 4
 535.544395247 1480 558.428334511 1476.32923646 579.851761309 1469.50454513 c 4
 656.145768555 1445.20016773 716 1379.54991059 716 1296 c 4
 716 1242.8617411 690.898860367 1196.26560173 654.498377715 1164.24849351 c 5
 708.890746312 1126.10420578 744 1068.44175615 744 1000 c 4
 744 907.475220781 678.680015274 834.014279167 593.883564221 805.367734414 c 4
 568.195427677 796.689584044 540.54197419 792 512 792 c 4
 500.456330618 792 488.906982716 792.539076971 477.458171747 793.605503262 c 4
 383.75265374 802.333923035 280 849.136530799 280 944 c 4
 280 970.452324695 301.546578914 992 328 992 c 4
 354.454328279 992 376 970.451414237 376 944 c 4
 376 937.143766616 405.802150561 896.419184717 486.991213885 889.103264795 c 4
 494.955589673 888.3855975 503.297032125 888 512 888 c 4
 530.269379264 888 547.351332824 890.909256725 562.82654862 896.073353586 c 4
 615.512907482 913.654850606 648 956.427688456 648 1000 c 4
 648 1035.41587711 626.819783359 1070.00475223 590.412290947 1091.42508042 c 4
 568.725125397 1104.18471237 541.941794422 1112 512 1112 c 6
 464 1112 l 6
 437.547675305 1112 416 1133.54657891 416 1160 c 4
 416 1186.45432828 437.548585763 1208 464 1208 c 6
 512 1208 l 6
 537.536049685 1208 560.028946482 1215.10659399 577.761321574 1226.40556858 c 4
 604.842298732 1243.66142243 620 1269.98944771 620 1296 c 4
 620 1329.58625778 594.218044629 1364.18435985 551.196969179 1377.99816723 c 4
 539.249205805 1381.83452185 526.095864207 1384 512 1384 c 4
 503.331355581 1384 495.170543123 1383.57276264 487.522469082 1382.79410022 c 4
 426.458236855 1376.57705484 404.751481793 1347.64945786 404.037237454 1344.03868612 c 4
 402.907957944 1314.95276828 381.886958116 1296 356 1296 c 4
144 624 m 0
 144 650.144471708 165.853633925 672 192 672 c 2
 832 672 l 2
 858.144471708 672 880 650.146366075 880 624 c 0
 880 597.853633925 858.144471708 576 832 576 c 2
 192 576 l 2
 165.853633925 576 144 597.855528292 144 624 c 0
594.42578125 -152.037109375 m 1
 594.42578125 -162.337817534 584.953017591 -176.037109375 570.42578125 -176.037109375 c 2
 618.42578125 -176.037109375 l 2
 608.125073091 -176.037109375 594.42578125 -166.564345716 594.42578125 -152.037109375 c 1
410.42578125 -176.037109375 m 0
 410.42578125 -149.604183323 431.994339944 -128.037109375 458.42578125 -128.037109375 c 2
 546.42578125 -128.037109375 l 1
 546.42578125 -8.037109375 l 1
 322.42578125 -8.037109375 l 2
 313.894790323 -8.037109375 305.781983475 -6.36462792214 296.584713126 -0.487178331328 c 0
 286.605612099 5.88754349269 279.867821086 15.4539694642 276.694846336 25.7250897857 c 0
 272.377860754 39.699445659 274.324307974 55.9239803249 284.127551413 68.898658203 c 2
 556.128291396 428.899637539 l 2
 563.77532469 439.01963488 575.532830613 446.625555049 590.658863315 447.8146023 c 0
 601.207678441 448.645294338 611.269877109 445.873013238 619.493687496 440.786020375 c 0
 632.921311195 432.480110743 642.42578125 417.484484143 642.42578125 399.962890625 c 2
 642.42578125 87.962890625 l 1
 738.42578125 87.962890625 l 2
 764.878105945 87.962890625 786.42578125 66.4163117113 786.42578125 39.962890625 c 0
 786.42578125 13.5085623465 764.877195487 -8.037109375 738.42578125 -8.037109375 c 2
 642.42578125 -8.037109375 l 1
 642.42578125 -128.037109375 l 1
 730.42578125 -128.037109375 l 2
 756.858707302 -128.037109375 778.42578125 -149.605668069 778.42578125 -176.037109375 c 0
 778.42578125 -202.470035427 756.857222556 -224.037109375 730.42578125 -224.037109375 c 2
 458.42578125 -224.037109375 l 2
 431.992855198 -224.037109375 410.42578125 -202.468550681 410.42578125 -176.037109375 c 0
546.42578125 87.962890625 m 1
 546.42578125 256.810059883 l 1
 418.852225904 87.962890625 l 1
 546.42578125 87.962890625 l 1
EndSplineSet
Validated: 1
EndChar

StartChar: paragraph
Encoding: 182 182 445
Width: 1024
VWidth: 0
Flags: HW
AnchorPoint: "top" 512 1272 basechar 0
LayerCount: 2
Fore
SplineSet
976 1200 m 4
 976 1173.85546875 954.146484375 1152 928 1152 c 6
 832 1152 l 5
 832 96 l 5
 928 96 l 6
 954.144471708 96 976 74.1463660754 976 48 c 4
 976 21.8536339246 954.144471708 0 928 0 c 6
 784 0 l 6
 757.853515625 0 736 21.85546875 736 48 c 6
 736 1152 l 5
 640 1152 l 5
 640 48 l 6
 640 21.853515625 618.14453125 0 592 0 c 6
 448 0 l 6
 421.853515625 0 400 21.85546875 400 48 c 4
 400 74.14453125 421.853515625 96 448 96 c 6
 544 96 l 5
 544 576 l 5
 432 576 l 6
 246.489257812 576 96 726.490234375 96 912 c 4
 96 1097.51074219 246.490234375 1248 432 1248 c 6
 928 1248 l 6
 954.146484375 1248 976 1226.14453125 976 1200 c 4
432 672 m 6
 544 672 l 5
 544 1152 l 5
 432 1152 l 6
 299.509765625 1152 192 1044.48925781 192 912 c 4
 192 779.509765625 299.510742188 672 432 672 c 6
EndSplineSet
Validated: 1
EndChar

StartChar: Oslash
Encoding: 216 216 446
Width: 1024
VWidth: 0
Flags: HW
AnchorPoint: "top" 512 1272 basechar 0
LayerCount: 2
Fore
SplineSet
97 624 m 0
 97 963.044921875 241.385438205 1264 512 1264 c 0
 599.92843156 1264 674.530444204 1232.22675723 735.183145646 1177.69755421 c 1
 853.067494832 1413.46625258 l 2
 861.398617704 1430.12849832 878.679894409 1439.88109491 896.387079888 1439.88109491 c 0
 903.530722507 1439.88109491 910.743684871 1438.29378903 917.466252584 1434.93250517 c 0
 934.12941889 1426.60092202 943.881023279 1409.31949306 943.881023279 1391.6129427 c 0
 943.881023279 1384.46912868 942.293688853 1377.25611479 938.932505168 1370.53374742 c 2
 803.195597801 1099.05993269 l 1
 884.774613723 979.560607454 927 807.349662139 927 624 c 0
 927 284.955078125 782.614561795 -16 512 -16 c 0
 424.071568441 -16 349.469555797 15.7732427653 288.816854355 70.3024457909 c 1
 170.932505168 -165.466252584 l 2
 162.600922015 -182.12941889 145.319493053 -191.881023279 127.612942696 -191.881023279 c 0
 120.46912868 -191.881023279 113.256114787 -190.293688853 106.533747416 -186.932505168 c 0
 89.8715016746 -178.601382297 80.1189050886 -161.320105594 80.1189050886 -143.612920117 c 0
 80.1189050886 -136.469277496 81.7062109746 -129.256315131 85.067494832 -122.533747416 c 2
 220.804402198 148.940067316 l 1
 139.225386276 268.439392547 97 440.650337862 97 624 c 0
334.441809038 161.552355158 m 1
 383.890378092 109.375480973 444.176345237 80 512 80 c 0
 701.385438205 80 831 309.044921875 831 624 c 0
 831 772.304074138 802.261915646 901.559655266 752.077368848 996.823474778 c 1
 334.441809038 161.552355158 l 1
271.658733407 250.648729733 m 1
 689.45675476 1086.24477244 l 1
 640.137203738 1138.54836829 579.911508274 1168 512 1168 c 0
 322.614561795 1168 192 938.955078125 192 624 c 0
 192 475.421859297 221.066939643 345.962680051 271.658733407 250.648729733 c 1
EndSplineSet
Validated: 1
EndChar

StartChar: AE
Encoding: 198 198 447
Width: 1024
VWidth: 0
Flags: HW
LayerCount: 2
Fore
SplineSet
288 1200 m 0
 288 1226.14453125 309.853515625 1248 336 1248 c 2
 880 1248 l 2
 909.0546875 1248 928 1220.6015625 928 1200 c 2
 928 864 l 2
 928 837.85546875 906.146484375 816 880 816 c 0
 853.853515625 816 832 837.85546875 832 864 c 2
 832 1152 l 1
 576 1152 l 1
 576 720 l 1
 672 720 l 1
 672 864 l 2
 672 890.146484375 693.85546875 912 720 912 c 0
 746.14453125 912 768 890.146484375 768 864 c 2
 768 480 l 2
 768 453.85546875 746.146484375 432 720 432 c 0
 693.853515625 432 672 453.85546875 672 480 c 2
 672 624 l 1
 576 624 l 1
 576 96 l 1
 832 96 l 1
 832 384 l 2
 832 410.144471708 853.853633925 432 880 432 c 0
 906.146366075 432 928 410.144471708 928 384 c 2
 928 48 l 2
 928 27.3985836813 909.054472683 -3.55802918541e-15 880 0 c 2
 384 0 l 2
 357.853515625 0 336 21.85546875 336 48 c 0
 336 74.14453125 357.853515625 96 384 96 c 2
 480 96 l 1
 480 480 l 1
 311.051133132 480 l 1
 202.882119047 96 l 1
 256 96 l 2
 282.14453125 96 304 74.146484375 304 48 c 0
 304 21.853515625 282.14453125 0 256 0 c 2
 64 0 l 2
 37.853515625 0 16 21.85546875 16 48 c 0
 16 74.14453125 37.853515625 96 64 96 c 2
 103.146049967 96 l 1
 400.610838698 1152 l 1
 336 1152 l 2
 309.853515625 1152 288 1173.85546875 288 1200 c 0
480 1079.76847738 m 1
 338.093386654 576 l 1
 480 576 l 1
 480 1079.76847738 l 1
EndSplineSet
Validated: 1
EndChar

StartChar: Eth
Encoding: 208 208 448
Width: 1024
VWidth: 0
Flags: HW
AnchorPoint: "top" 512 1272 basechar 0
LayerCount: 2
Fore
SplineSet
48 1200 m 0
 48 1226.14447171 69.8536339246 1248 96 1248 c 2
 512 1248 l 2
 759.22921543 1248 928 950.286715753 928 624 c 0
 928 297.713659606 759.229090682 0 512 0 c 2
 96 0 l 2
 69.853515625 0 48 21.85546875 48 48 c 0
 48 74.14453125 69.853515625 96 96 96 c 2
 256 96 l 1
 256 576 l 1
 96 576 l 2
 69.8536339246 576 48 597.855528292 48 624 c 0
 48 650.144471708 69.8536339246 672 96 672 c 2
 256 672 l 1
 256 1152 l 1
 96 1152 l 2
 69.8536339246 1152 48 1173.85552829 48 1200 c 0
352 1152 m 1
 352 672 l 1
 512 672 l 2
 538.144471708 672 560 650.146366075 560 624 c 0
 560 597.853633925 538.144471708 576 512 576 c 2
 352 576 l 1
 352 96 l 1
 512 96 l 2
 670.770909318 96 832 314.286340394 832 624 c 0
 832 673.508987288 827.880047971 720.681716378 820.308778029 764.999986756 c 0
 780.516467983 997.923442027 645.390598589 1152 512 1152 c 2
 352 1152 l 1
EndSplineSet
Validated: 1
EndChar

StartChar: Thorn
Encoding: 222 222 449
Width: 1024
VWidth: 0
Flags: HW
AnchorPoint: "top" 512 1272 basechar 0
LayerCount: 2
Fore
SplineSet
48 48 m 0
 48 74.14453125 69.853515625 96 96 96 c 2
 256 96 l 1
 256 1152 l 1
 96 1152 l 2
 69.853515625 1152 48 1173.85546875 48 1200 c 0
 48 1226.14453125 69.853515625 1248 96 1248 c 2
 568 1248 l 2
 594.14453125 1248 616 1226.14648438 616 1200 c 0
 616 1173.85351562 594.14453125 1152 568 1152 c 2
 352 1152 l 1
 352 864 l 1
 688 864 l 2
 820.509612655 864 928 756.509840284 928 624 c 0
 928 491.490387345 820.509840284 384 688 384 c 2
 352 384 l 1
 352 96 l 1
 568 96 l 2
 594.14453125 96 616 74.146484375 616 48 c 0
 616 21.853515625 594.14453125 0 568 0 c 2
 96 0 l 2
 69.853515625 0 48 21.85546875 48 48 c 0
352 768 m 1
 352 480 l 1
 688 480 l 2
 767.490159716 480 832 544.509612655 832 624 c 0
 832 703.490159716 767.490387345 768 688 768 c 2
 352 768 l 1
EndSplineSet
Validated: 1
EndChar

StartChar: thorn
Encoding: 254 254 450
Width: 1024
VWidth: 0
Flags: HW
AnchorPoint: "top" 512 1272 basechar 0
LayerCount: 2
Fore
SplineSet
48 1200 m 0
 48 1226.14453125 69.853515625 1248 96 1248 c 2
 256 1248 l 2
 285.0546875 1248 304 1220.6015625 304 1200 c 2
 304 754.335225698 l 1
 368.958170787 831.040655589 458.113784893 880 560 880 c 0
 772.53515625 880 928 670.303710938 928 432 c 0
 928 193.696289062 772.53515625 -16 560 -16 c 0
 458.114222749 -16 368.958381861 32.9594860632 304 109.665107197 c 1
 304 -288 l 1
 416 -288 l 2
 442.146366075 -288 464 -309.855528292 464 -336 c 0
 464 -362.144471708 442.146366075 -384 416 -384 c 2
 96 -384 l 2
 69.8555282921 -384 48 -362.146366075 48 -336 c 0
 48 -309.853633925 69.8555282921 -288 96 -288 c 2
 208 -288 l 1
 208 1152 l 1
 96 1152 l 2
 69.853515625 1152 48 1173.85546875 48 1200 c 0
304 313.007134407 m 1
 343.451323068 171.331617925 447.699805557 80 560 80 c 0
 701.46484375 80 832 228.303710938 832 432 c 0
 832 635.696289062 701.46484375 784 560 784 c 0
 447.699805557 784 343.451323068 692.668382075 304 550.992865593 c 1
 304 313.007134407 l 1
EndSplineSet
Validated: 1
EndChar

StartChar: oslash
Encoding: 248 248 451
Width: 1024
VWidth: 0
Flags: HW
AnchorPoint: "top" 512 912 basechar 0
LayerCount: 2
Fore
SplineSet
96 432 m 0
 96 676.104927161 279.102339826 880 512 880 c 0
 586.196730795 880 655.339544246 859.305930413 715.118099646 823.210380081 c 1
 856.061585872 1034.62560942 l 2
 865.216641889 1048.35819345 880.669940424 1055.83773189 896.29417216 1055.83773189 c 0
 905.419977613 1055.83773189 914.604096887 1053.28608915 922.625609419 1047.93841413 c 0
 936.358846576 1038.78292269 943.837674517 1023.3297117 943.837674517 1007.70602935 c 0
 943.837674517 998.579928639 941.285929615 989.39566381 935.938414128 981.374390581 c 2
 791.166700684 764.216820415 l 1
 875.582738362 681.70321094 928 562.607108624 928 432 c 0
 928 187.895072839 744.897660174 -16 512 -16 c 0
 437.803269205 -16 368.660455753 4.69406958664 308.881900354 40.7896199195 c 1
 167.938414128 -170.625609419 l 2
 158.782922691 -184.358846576 143.329711695 -191.837674517 127.706029354 -191.837674517 c 0
 118.579928639 -191.837674517 109.395663811 -189.285929615 101.374390581 -183.938414128 c 0
 87.6418065548 -174.783358111 80.1622681137 -159.330059576 80.1622681137 -143.705827841 c 0
 80.1622681137 -134.580022387 82.7139108507 -125.395903113 88.0615858718 -117.374390581 c 2
 232.833299316 99.7831795855 l 1
 148.417261638 182.29678906 96 301.392891376 96 432 c 0
362.370307725 121.022230976 m 1
 407.350100663 94.7645589686 458.419737369 80 512 80 c 0
 685.102339826 80 832 234.104927161 832 432 c 0
 832 531.084469072 795.173858442 619.191085828 736.670931217 682.473166215 c 1
 362.370307725 121.022230976 l 1
287.329068783 181.526833786 m 1
 661.629692275 742.977769024 l 1
 616.649899337 769.235441031 565.580262631 784 512 784 c 0
 338.897660174 784 192 629.895072839 192 432 c 0
 192 332.915530929 228.826141558 244.808914172 287.329068783 181.526833786 c 1
EndSplineSet
Validated: 1
EndChar

StartChar: eth
Encoding: 240 240 452
Width: 1024
VWidth: 0
Flags: HW
AnchorPoint: "top" 512 1272 basechar 0
LayerCount: 2
Fore
SplineSet
304 -336 m 1028
96 432 m 0
 96 676.104927161 279.102339826 880 512 880 c 0
 613.053280759 880 704.731817239 841.613616277 776.146094305 778.211886107 c 1
 738.25908729 886.974310126 683.463123716 977.110495734 619.189203756 1041.60241691 c 1
 403.085157006 947.957329985 l 2
 397.034203996 945.335250347 390.680792312 944.097459903 384.395653024 944.097459903 c 0
 365.763353578 944.097459903 347.731049976 954.975489168 339.957329985 972.914842994 c 0
 337.335169382 978.965982847 336.097389286 985.319382978 336.097389286 991.604405975 c 0
 336.097389286 1010.23739668 346.97653734 1028.26940423 364.914842994 1036.04267001 c 2
 533.319099306 1109.01784775 l 1
 485.657267714 1136.96343736 435.1333246 1152 384 1152 c 0
 357.853633925 1152 336 1173.85552829 336 1200 c 0
 336 1226.14447171 357.853633925 1248 384 1248 c 0
 478.506368044 1248 564.908995281 1214.10797108 639.671104779 1155.10371678 c 1
 844.914842994 1244.04267001 l 2
 850.965982847 1246.66483061 857.31938298 1247.90261071 863.604405978 1247.90261071 c 0
 882.23739668 1247.90261071 900.269404232 1237.02346266 908.042670015 1219.08515701 c 0
 910.664749653 1213.034204 911.902540097 1206.68079231 911.902540097 1200.39565303 c 0
 911.902540097 1181.76335358 901.024510832 1163.73104997 883.085157006 1155.95732999 c 2
 714.833348178 1083.04821283 l 1
 847.406426362 930.980234987 928 690.28668313 928 432 c 0
 928 187.895072839 744.897660174 -16 512 -16 c 0
 279.102316878 -16 96 187.895058816 96 432 c 0
192 432 m 0
 192 234.104941184 338.897683122 80 512 80 c 0
 685.102339826 80 832 234.104927161 832 432 c 0
 832 629.895058816 685.102316878 784 512 784 c 0
 338.897660174 784 192 629.895072839 192 432 c 0
EndSplineSet
Validated: 1
EndChar

StartChar: sterling
Encoding: 163 163 453
Width: 1024
VWidth: 0
Flags: HW
LayerCount: 2
Fore
SplineSet
928 320 m 0
 954.144471708 320 976 298.146366075 976 272 c 0
 976 129.996178453 898.740974155 -16 768 -16 c 0
 614.209327684 -16 540.657826486 94.1999498193 447.930928186 169.995249567 c 1
 447.976779484 166.654307469 448 163.322448405 448 160 c 0
 448 62.5791015625 369.423828125 -16 272 -16 c 0
 174.579101562 -16 96 62.576171875 96 160 c 0
 96 257.420898438 174.576171875 336 272 336 c 0
 293.325861177 336 313.108800823 333.881005761 331.613902111 330.028588564 c 1
 315.922345264 407.683019407 293.335461432 491.1360128 271.75072975 576 c 1
 144 576 l 2
 117.853633925 576 96 597.855528292 96 624 c 0
 96 650.144471708 117.853633925 672 144 672 c 2
 248.269216881 672 l 1
 225.484910429 770.573289364 208 868.829907425 208 960 c 0
 208 1127.55371094 344.446289062 1264 512 1264 c 0
 679.553710938 1264 816 1127.55371094 816 960 c 0
 816 953.066169286 814.462886056 946.434018992 811.716235804 940.431236533 c 1
 814.500442456 931.446165448 816.000000692 921.897450068 816 912 c 0
 816 859 773 816 720 816 c 0
 667 816 624 859 624 912 c 0
 624 963.126055754 664.013016664 1004.9467588 714.417130384 1007.84018952 c 1
 692.673845345 1099.40790397 609.995976015 1168 512 1168 c 0
 397.553710938 1168 304 1074.44628906 304 960 c 0
 304 876.003593066 325.307497965 776.96798484 351.529909318 672 c 1
 512 672 l 2
 538.144471708 672 560 650.146366075 560 624 c 0
 560 597.853633925 538.144471708 576 512 576 c 2
 376.058979689 576 l 1
 401.089819516 478.653796807 426.111154886 378.697543687 439.021974923 282.853901347 c 1
 548.802357766 207.855833079 617.047710804 80.0000000024 768 80 c 0
 813.259025845 80 880 150.003821547 880 272 c 0
 880 298.146366075 901.855528292 320 928 320 c 0
352 160 m 0
 352 181.725794476 350.574503169 204.45775832 348.007169531 228.038299742 c 1
 324.973716013 235.632449671 299.899457833 240 272 240 c 0
 227.423828125 240 192 204.579101562 192 160 c 0
 192 115.423828125 227.420898438 80 272 80 c 0
 316.576171875 80 352 115.420898438 352 160 c 0
EndSplineSet
Validated: 1
EndChar

StartChar: lira
Encoding: 8356 8356 454
Width: 1024
VWidth: 0
Flags: HW
LayerCount: 2
Fore
SplineSet
928 320 m 0
 954.144471708 320 976 298.146366075 976 272 c 0
 976 129.996178453 898.740974155 -16 768 -16 c 0
 614.209327684 -16 540.657826486 94.1999498193 447.930928186 169.995249567 c 1
 447.976779484 166.654307469 448 163.322448405 448 160 c 0
 448 62.5791015625 369.423828125 -16 272 -16 c 0
 174.579101562 -16 96 62.576171875 96 160 c 0
 96 257.420898438 174.576171875 336 272 336 c 0
 293.325861177 336 313.108800823 333.881005761 331.613902111 330.028588564 c 1
 321.891870371 378.141012893 309.522942702 428.479320294 296.385404092 480 c 1
 144 480 l 2
 117.853515625 480 96 501.85546875 96 528 c 0
 96 554.14453125 117.853515625 576 144 576 c 2
 271.75072975 576 l 1
 263.642612351 607.87842134 255.675905047 639.955942953 248.269216881 672 c 1
 144 672 l 2
 117.853515625 672 96 693.85546875 96 720 c 0
 96 746.14453125 117.853515625 768 144 768 c 2
 228.110715329 768 l 1
 215.948541028 833.838169762 208 898.52983201 208 960 c 0
 208 1127.55371094 344.446289062 1264 512 1264 c 0
 679.553710938 1264 816 1127.55371094 816 960 c 0
 816 953.066169286 814.462886056 946.434018992 811.716235804 940.431236533 c 1
 814.500442456 931.446165448 816.000000692 921.897450068 816 912 c 0
 816 859 773 816 720 816 c 0
 667 816 624 859 624 912 c 0
 624 963.126055754 664.013016664 1004.9467588 714.417130384 1007.84018952 c 1
 692.673845345 1099.40790397 609.995976015 1168 512 1168 c 0
 397.553710938 1168 304 1074.44628906 304 960 c 0
 304 902.143253833 314.109252611 837.151221994 328.970687812 768 c 1
 512 768 l 2
 538.14453125 768 560 746.146484375 560 720 c 0
 560 693.853515625 538.14453125 672 512 672 c 2
 351.529909318 672 l 1
 359.410668406 640.453419888 367.735349547 608.37101898 376.058979689 576 c 1
 512 576 l 2
 538.14453125 576 560 554.146484375 560 528 c 0
 560 501.853515625 538.14453125 480 512 480 c 2
 400.164211111 480 l 1
 416.144694272 413.788239064 430.328667636 347.388782362 439.021974923 282.853901347 c 1
 548.802357766 207.855833079 617.047710804 80.0000000024 768 80 c 0
 813.259025845 80 880 150.003821547 880 272 c 0
 880 298.146366075 901.855528292 320 928 320 c 0
352 160 m 0
 352 181.725794476 350.574503169 204.45775832 348.007169531 228.038299742 c 1
 324.973716013 235.632449671 299.899457833 240 272 240 c 0
 227.423828125 240 192 204.579101562 192 160 c 0
 192 115.423828125 227.420898438 80 272 80 c 0
 316.576171875 80 352 115.420898438 352 160 c 0
EndSplineSet
Validated: 1
EndChar

